<svg viewBox="0 0 1000 880" xmlns="http://www.w3.org/2000/svg" width="1000" height="880">
  <defs><marker id="arrowhead_2428726003" markerWidth="8" markerHeight="6" refX="4" refY="3" orient="auto"><polygon points="0 0, 8 3, 0 6" fill="#4CAF50"/></marker><linearGradient id="mbTile_2428726003" x1="0" y1="0" x2="1" y2="1" gradientUnits="objectBoundingBox"><stop offset="0" stop-color="#5b9dff"/><stop offset=".42" stop-color="#3b82f6"/><stop offset=".74" stop-color="#6366f1"/><stop offset="1" stop-color="#7c5cff"/></linearGradient><linearGradient id="mbSheen_2428726003" x1="0" y1="0" x2="0" y2="1" gradientUnits="objectBoundingBox"><stop offset="0" stop-color="#ffffff" stop-opacity=".34"/><stop offset=".55" stop-color="#ffffff" stop-opacity="0"/></linearGradient><radialGradient id="mbGlow_2428726003" cx=".5" cy=".4" r=".65" gradientUnits="objectBoundingBox"><stop offset="0" stop-color="#ffffff" stop-opacity=".22"/><stop offset="1" stop-color="#ffffff" stop-opacity="0"/></radialGradient><linearGradient id="mbInk_2428726003" x1="0" y1="0" x2="0" y2="1" gradientUnits="objectBoundingBox"><stop offset="0" stop-color="#ffffff"/><stop offset="1" stop-color="#dbe7ff"/></linearGradient><linearGradient id="bb_laser_2428726003" x1="0" y1="0" x2="1" y2="0"><stop offset="0" stop-color="#5b9dff"/><stop offset="0.35" stop-color="#6366f1"/><stop offset="0.6" stop-color="#7c5cff"/><stop offset="0.92" stop-color="#7c5cff" stop-opacity="0"/></linearGradient><linearGradient id="bb_btn_2428726003" x1="0" y1="0" x2="1" y2="0"><stop offset="0" stop-color="#3b82f6"/><stop offset="1" stop-color="#7c5cff"/></linearGradient><linearGradient id="bb_btnsheen_2428726003" x1="0" y1="0" x2="0" y2="1"><stop offset="0" stop-color="#ffffff" stop-opacity="0.18"/><stop offset="0.55" stop-color="#ffffff" stop-opacity="0.02"/><stop offset="1" stop-color="#ffffff" stop-opacity="0"/></linearGradient><linearGradient id="mbTile_2428726003bb" x1="0" y1="0" x2="1" y2="1" gradientUnits="objectBoundingBox"><stop offset="0" stop-color="#5b9dff"/><stop offset=".42" stop-color="#3b82f6"/><stop offset=".74" stop-color="#6366f1"/><stop offset="1" stop-color="#7c5cff"/></linearGradient><linearGradient id="mbSheen_2428726003bb" x1="0" y1="0" x2="0" y2="1" gradientUnits="objectBoundingBox"><stop offset="0" stop-color="#ffffff" stop-opacity=".34"/><stop offset=".55" stop-color="#ffffff" stop-opacity="0"/></linearGradient><radialGradient id="mbGlow_2428726003bb" cx=".5" cy=".4" r=".65" gradientUnits="objectBoundingBox"><stop offset="0" stop-color="#ffffff" stop-opacity=".22"/><stop offset="1" stop-color="#ffffff" stop-opacity="0"/></radialGradient><linearGradient id="mbInk_2428726003bb" x1="0" y1="0" x2="0" y2="1" gradientUnits="objectBoundingBox"><stop offset="0" stop-color="#ffffff"/><stop offset="1" stop-color="#dbe7ff"/></linearGradient></defs>
  <!-- background -->
  <rect width="1000" height="880" fill="#0E1420"/>
  <!-- ghost watermark -->
  <text x="471.0" y="377.4" fill="#ffffff" fill-opacity="0.04" font-size="90" font-weight="bold" text-anchor="middle" dominant-baseline="middle">QNT</text>
  <!-- company logo overlay -->
  
  <!-- embedded volume (paneless, under candles) -->
  <rect x="19.3" y="514.4" width="13.4" height="109.6" fill="#E23B3B" opacity="0.28" stroke="none"/>
  <rect x="43.4" y="584.5" width="13.4" height="39.5" fill="#E23B3B" opacity="0.28" stroke="none"/>
  <rect x="67.4" y="606.3" width="13.4" height="17.7" fill="#E23B3B" opacity="0.28" stroke="none"/>
  <rect x="91.5" y="607.1" width="13.4" height="16.9" fill="#E23B3B" opacity="0.28" stroke="none"/>
  <rect x="115.5" y="602.1" width="13.4" height="21.9" fill="#E23B3B" opacity="0.28" stroke="none"/>
  <rect x="139.6" y="612.4" width="13.4" height="11.6" fill="#4CAF50" opacity="0.28" stroke="none"/>
  <rect x="163.6" y="619.3" width="13.4" height="4.7" fill="#E23B3B" opacity="0.28" stroke="none"/>
  <rect x="187.7" y="612.5" width="13.4" height="11.5" fill="#4CAF50" opacity="0.28" stroke="none"/>
  <rect x="211.7" y="616.7" width="13.4" height="7.3" fill="#E23B3B" opacity="0.28" stroke="none"/>
  <rect x="235.8" y="610.4" width="13.4" height="13.6" fill="#4CAF50" opacity="0.28" stroke="none"/>
  <rect x="259.8" y="604.5" width="13.4" height="19.5" fill="#4CAF50" opacity="0.28" stroke="none"/>
  <rect x="283.9" y="609.2" width="13.4" height="14.8" fill="#E23B3B" opacity="0.28" stroke="none"/>
  <rect x="307.9" y="603.3" width="13.4" height="20.7" fill="#4CAF50" opacity="0.28" stroke="none"/>
  <rect x="332.0" y="608.1" width="13.4" height="15.9" fill="#E23B3B" opacity="0.28" stroke="none"/>
  <rect x="356.0" y="613.5" width="13.4" height="10.5" fill="#E23B3B" opacity="0.28" stroke="none"/>
  <rect x="380.1" y="609.3" width="13.4" height="14.7" fill="#4CAF50" opacity="0.28" stroke="none"/>
  <rect x="404.2" y="605.7" width="13.4" height="18.3" fill="#E23B3B" opacity="0.28" stroke="none"/>
  <rect x="428.2" y="610.0" width="13.4" height="14.0" fill="#4CAF50" opacity="0.28" stroke="none"/>
  <rect x="452.3" y="606.3" width="13.4" height="17.7" fill="#E23B3B" opacity="0.28" stroke="none"/>
  <rect x="476.3" y="612.5" width="13.4" height="11.5" fill="#E23B3B" opacity="0.28" stroke="none"/>
  <rect x="500.4" y="604.4" width="13.4" height="19.6" fill="#4CAF50" opacity="0.28" stroke="none"/>
  <rect x="524.4" y="613.5" width="13.4" height="10.5" fill="#E23B3B" opacity="0.28" stroke="none"/>
  <rect x="548.5" y="619.5" width="13.4" height="4.5" fill="#E23B3B" opacity="0.28" stroke="none"/>
  <rect x="572.5" y="620.1" width="13.4" height="3.9" fill="#E23B3B" opacity="0.28" stroke="none"/>
  <rect x="596.6" y="619.6" width="13.4" height="4.4" fill="#E23B3B" opacity="0.28" stroke="none"/>
  <rect x="620.6" y="618.1" width="13.4" height="5.9" fill="#E23B3B" opacity="0.28" stroke="none"/>
  <rect x="644.7" y="618.8" width="13.4" height="5.2" fill="#4CAF50" opacity="0.28" stroke="none"/>
  <rect x="668.7" y="616.8" width="13.4" height="7.2" fill="#E23B3B" opacity="0.28" stroke="none"/>
  <rect x="692.8" y="619.2" width="13.4" height="4.8" fill="#E23B3B" opacity="0.28" stroke="none"/>
  <rect x="716.8" y="619.0" width="13.4" height="5.0" fill="#4CAF50" opacity="0.28" stroke="none"/>
  <rect x="740.9" y="619.0" width="13.4" height="5.0" fill="#4CAF50" opacity="0.28" stroke="none"/>
  <rect x="764.9" y="619.3" width="13.4" height="4.7" fill="#4CAF50" opacity="0.28" stroke="none"/>
  <rect x="789.0" y="618.4" width="13.4" height="5.6" fill="#E23B3B" opacity="0.28" stroke="none"/>
  <rect x="813.0" y="618.9" width="13.4" height="5.1" fill="#4CAF50" opacity="0.28" stroke="none"/>
  <rect x="837.1" y="619.7" width="13.4" height="4.3" fill="#E23B3B" opacity="0.28" stroke="none"/>
  <rect x="861.2" y="618.6" width="13.4" height="5.4" fill="#E23B3B" opacity="0.28" stroke="none"/>
  <rect x="885.2" y="617.8" width="13.4" height="6.2" fill="#E23B3B" opacity="0.28" stroke="none"/>
  <rect x="909.3" y="618.9" width="13.4" height="5.1" fill="#E23B3B" opacity="0.28" stroke="none"/>
  <!-- SMA overlays -->
  
  <!-- M2 overlays: AVWAP + POC (over SMA, under candles) -->
  
  <!-- candlesticks -->
  <line x1="26.0" y1="296.5" x2="26.0" y2="435.1" stroke="#E23B3B" stroke-width="1"/>
  <rect x="19.3" y="337.0" width="13.4" height="92.2" fill="#E23B3B" stroke="none"/>
  <line x1="50.1" y1="435.1" x2="50.1" y2="540.9" stroke="#E23B3B" stroke-width="1"/>
  <rect x="43.4" y="436.2" width="13.4" height="42.8" fill="#E23B3B" stroke="none"/>
  <line x1="74.1" y1="412.0" x2="74.1" y2="463.9" stroke="#E23B3B" stroke-width="1"/>
  <rect x="67.4" y="450.0" width="13.4" height="3.1" fill="#E23B3B" stroke="none"/>
  <line x1="98.2" y1="400.2" x2="98.2" y2="500.3" stroke="#E23B3B" stroke-width="1"/>
  <rect x="91.5" y="418.1" width="13.4" height="77.0" fill="#E23B3B" stroke="none"/>
  <line x1="122.2" y1="490.0" x2="122.2" y2="553.6" stroke="#E23B3B" stroke-width="1"/>
  <rect x="115.5" y="496.5" width="13.4" height="41.4" fill="#E23B3B" stroke="none"/>
  <line x1="146.3" y1="466.0" x2="146.3" y2="542.7" stroke="#4CAF50" stroke-width="1"/>
  <rect x="139.6" y="476.3" width="13.4" height="60.4" fill="#4CAF50" stroke="none"/>
  <line x1="170.3" y1="464.3" x2="170.3" y2="503.4" stroke="#E23B3B" stroke-width="1"/>
  <rect x="163.6" y="480.4" width="13.4" height="10.8" fill="#E23B3B" stroke="none"/>
  <line x1="194.4" y1="421.7" x2="194.4" y2="491.1" stroke="#4CAF50" stroke-width="1"/>
  <rect x="187.7" y="459.1" width="13.4" height="7.7" fill="#4CAF50" stroke="none"/>
  <line x1="218.4" y1="441.9" x2="218.4" y2="498.6" stroke="#E23B3B" stroke-width="1"/>
  <rect x="211.7" y="448.9" width="13.4" height="40.2" fill="#E23B3B" stroke="none"/>
  <line x1="242.5" y1="366.0" x2="242.5" y2="485.8" stroke="#4CAF50" stroke-width="1"/>
  <rect x="235.8" y="400.5" width="13.4" height="84.6" fill="#4CAF50" stroke="none"/>
  <line x1="266.6" y1="279.6" x2="266.6" y2="409.6" stroke="#4CAF50" stroke-width="1"/>
  <rect x="259.8" y="315.2" width="13.4" height="77.3" fill="#4CAF50" stroke="none"/>
  <line x1="290.6" y1="217.8" x2="290.6" y2="352.1" stroke="#E23B3B" stroke-width="1"/>
  <rect x="283.9" y="318.8" width="13.4" height="14.9" fill="#E23B3B" stroke="none"/>
  <line x1="314.7" y1="173.9" x2="314.7" y2="360.0" stroke="#4CAF50" stroke-width="1"/>
  <rect x="307.9" y="222.5" width="13.4" height="132.4" fill="#4CAF50" stroke="none"/>
  <line x1="338.7" y1="210.0" x2="338.7" y2="338.8" stroke="#E23B3B" stroke-width="1"/>
  <rect x="332.0" y="220.7" width="13.4" height="78.8" fill="#E23B3B" stroke="none"/>
  <line x1="362.8" y1="278.8" x2="362.8" y2="379.0" stroke="#E23B3B" stroke-width="1"/>
  <rect x="356.0" y="281.0" width="13.4" height="11.5" fill="#E23B3B" stroke="none"/>
  <line x1="386.8" y1="200.3" x2="386.8" y2="353.1" stroke="#4CAF50" stroke-width="1"/>
  <rect x="380.1" y="245.4" width="13.4" height="100.7" fill="#4CAF50" stroke="none"/>
  <line x1="410.9" y1="185.8" x2="410.9" y2="305.4" stroke="#E23B3B" stroke-width="1"/>
  <rect x="404.2" y="197.9" width="13.4" height="80.6" fill="#E23B3B" stroke="none"/>
  <line x1="434.9" y1="164.0" x2="434.9" y2="315.7" stroke="#4CAF50" stroke-width="1"/>
  <rect x="428.2" y="170.8" width="13.4" height="106.0" fill="#4CAF50" stroke="none"/>
  <line x1="459.0" y1="169.5" x2="459.0" y2="248.9" stroke="#E23B3B" stroke-width="1"/>
  <rect x="452.3" y="190.2" width="13.4" height="20.8" fill="#E23B3B" stroke="none"/>
  <line x1="483.0" y1="184.4" x2="483.0" y2="294.4" stroke="#E23B3B" stroke-width="1"/>
  <rect x="476.3" y="216.0" width="13.4" height="41.6" fill="#E23B3B" stroke="none"/>
  <line x1="507.1" y1="109.6" x2="507.1" y2="262.0" stroke="#4CAF50" stroke-width="1"/>
  <rect x="500.4" y="153.4" width="13.4" height="105.6" fill="#4CAF50" stroke="none"/>
  <line x1="531.1" y1="153.4" x2="531.1" y2="239.0" stroke="#E23B3B" stroke-width="1"/>
  <rect x="524.4" y="153.4" width="13.4" height="67.4" fill="#E23B3B" stroke="none"/>
  <line x1="555.2" y1="205.4" x2="555.2" y2="251.1" stroke="#E23B3B" stroke-width="1"/>
  <rect x="548.5" y="239.6" width="13.4" height="5.3" fill="#E23B3B" stroke="none"/>
  <line x1="579.2" y1="219.8" x2="579.2" y2="272.3" stroke="#E23B3B" stroke-width="1"/>
  <rect x="572.5" y="228.1" width="13.4" height="42.2" fill="#E23B3B" stroke="none"/>
  <line x1="603.3" y1="268.8" x2="603.3" y2="321.6" stroke="#E23B3B" stroke-width="1"/>
  <rect x="596.6" y="272.0" width="13.4" height="35.3" fill="#E23B3B" stroke="none"/>
  <line x1="627.3" y1="306.5" x2="627.3" y2="398.3" stroke="#E23B3B" stroke-width="1"/>
  <rect x="620.6" y="312.8" width="13.4" height="71.5" fill="#E23B3B" stroke="none"/>
  <line x1="651.4" y1="345.3" x2="651.4" y2="397.4" stroke="#4CAF50" stroke-width="1"/>
  <rect x="644.7" y="353.6" width="13.4" height="19.7" fill="#4CAF50" stroke="none"/>
  <line x1="675.4" y1="318.8" x2="675.4" y2="448.5" stroke="#E23B3B" stroke-width="1"/>
  <rect x="668.7" y="348.6" width="13.4" height="79.0" fill="#E23B3B" stroke="none"/>
  <line x1="699.5" y1="437.4" x2="699.5" y2="475.9" stroke="#E23B3B" stroke-width="1"/>
  <rect x="692.8" y="445.6" width="13.4" height="30.2" fill="#E23B3B" stroke="none"/>
  <line x1="723.6" y1="447.6" x2="723.6" y2="522.1" stroke="#4CAF50" stroke-width="1"/>
  <rect x="716.8" y="481.3" width="13.4" height="18.0" fill="#4CAF50" stroke="none"/>
  <line x1="747.6" y1="423.0" x2="747.6" y2="475.9" stroke="#4CAF50" stroke-width="1"/>
  <rect x="740.9" y="465.9" width="13.4" height="3.5" fill="#4CAF50" stroke="none"/>
  <line x1="771.7" y1="442.3" x2="771.7" y2="491.3" stroke="#4CAF50" stroke-width="1"/>
  <rect x="764.9" y="451.0" width="13.4" height="2.8" fill="#4CAF50" stroke="none"/>
  <line x1="795.7" y1="434.2" x2="795.7" y2="510.0" stroke="#E23B3B" stroke-width="1"/>
  <rect x="789.0" y="464.0" width="13.4" height="31.7" fill="#E23B3B" stroke="none"/>
  <line x1="819.8" y1="462.1" x2="819.8" y2="517.6" stroke="#4CAF50" stroke-width="1"/>
  <rect x="813.0" y="476.6" width="13.4" height="33.4" fill="#4CAF50" stroke="none"/>
  <line x1="843.8" y1="473.2" x2="843.8" y2="530.6" stroke="#E23B3B" stroke-width="1"/>
  <rect x="837.1" y="477.2" width="13.4" height="49.8" fill="#E23B3B" stroke="none"/>
  <line x1="867.9" y1="472.6" x2="867.9" y2="541.3" stroke="#E23B3B" stroke-width="1"/>
  <rect x="861.2" y="512.4" width="13.4" height="8.1" fill="#E23B3B" stroke="none"/>
  <line x1="891.9" y1="519.8" x2="891.9" y2="589.5" stroke="#E23B3B" stroke-width="1"/>
  <rect x="885.2" y="530.6" width="13.4" height="26.9" fill="#E23B3B" stroke="none"/>
  <line x1="916.0" y1="545.9" x2="916.0" y2="590.4" stroke="#E23B3B" stroke-width="1"/>
  <rect x="909.3" y="560.0" width="13.4" height="27.0" fill="#E23B3B" stroke="none"/>
  <!-- highlight zone -->
  
  <!-- price axis -->
  <text x="936.0" y="558.8" fill="#6b7a99" font-size="10" font-family="monospace">50.00</text>
  <text x="936.0" y="437.8" fill="#6b7a99" font-size="10" font-family="monospace">60.00</text>
  <text x="936.0" y="316.8" fill="#6b7a99" font-size="10" font-family="monospace">70.00</text>
  <text x="936.0" y="195.8" fill="#6b7a99" font-size="10" font-family="monospace">80.00</text>
  <rect x="932.0" y="577.0" width="58" height="18" rx="2" fill="#E23B3B"/><text x="961.0" y="590.0" fill="#ffffff" font-size="10" font-weight="bold" font-family="monospace" text-anchor="middle">47.34</text>
  <!-- % change callout -->
  
  <!-- date labels -->
  <text x="26.0" y="630" fill="#4a556a" font-size="9" text-anchor="start">2026-06-04</text>
  <text x="314.7" y="630" fill="#4a556a" font-size="9" text-anchor="middle">2026-06-23</text>
  <text x="627.3" y="630" fill="#4a556a" font-size="9" text-anchor="middle">2026-07-13</text>
  <text x="916.0" y="630" fill="#4a556a" font-size="9" text-anchor="end">2026-07-29</text>
  <!-- M2 overlay labels (top-most in price panel, never occluded) -->
  
  <!-- subpanels -->
  <line x1="14" y1="632" x2="928" y2="632" stroke="#232A3D" stroke-width="1"/>
  <text x="18" y="645" fill="#6b7a99" font-size="9" font-weight="700" letter-spacing="0.12em">MACD</text>
  <line x1="14" y1="734.0" x2="928" y2="734.0" stroke="#2f3750" stroke-width="1"/>
  <rect x="813.0" y="734.0" width="13.4" height="98.7" fill="#E23B3B" opacity="0.5" stroke="none"/>
  <rect x="837.1" y="734.0" width="13.4" height="96.2" fill="#E23B3B" opacity="0.5" stroke="none"/>
  <rect x="861.2" y="734.0" width="13.4" height="88.5" fill="#E23B3B" opacity="0.5" stroke="none"/>
  <rect x="885.2" y="734.0" width="13.4" height="86.0" fill="#E23B3B" opacity="0.5" stroke="none"/>
  <rect x="909.3" y="734.0" width="13.4" height="85.3" fill="#E23B3B" opacity="0.5" stroke="none"/>
  <polyline points="819.8,798.0 843.8,819.6 867.9,834.0 891.9,853.0 916.0,873.6" fill="none" stroke="#5b9dff" stroke-width="1.5" stroke-linejoin="round" stroke-linecap="round"/>
  <polyline points="819.8,699.4 843.8,723.4 867.9,745.5 891.9,767.0 916.0,788.4" fill="none" stroke="#F59E0B" stroke-width="1.2" stroke-linejoin="round" stroke-linecap="round"/>
  <text x="936" y="877.6" fill="#E23B3B" font-size="9" font-family="monospace">-3.833</text>
  <!-- header (rendered last so it sits on top) -->
  <rect x="0" y="0" width="1000" height="64" fill="#0A1020" opacity="0.9"/>
  <rect x="8.00" y="15.00" width="34.00" height="34.00" rx="8.93" fill="url(#mbTile_2428726003)"/><rect x="8.00" y="15.00" width="34.00" height="34.00" rx="8.93" fill="url(#mbGlow_2428726003)"/><rect x="8.00" y="15.00" width="34.00" height="34.00" rx="8.93" fill="url(#mbSheen_2428726003)"/><path d="M17.35,38.03 L17.35,26.56 L23.30,32.94 L29.25,24.86 L29.25,38.03" fill="none" stroke="#15205a" stroke-opacity=".30" stroke-width="2.80" stroke-linecap="round" stroke-linejoin="round"/><path d="M17.35,37.10 L17.35,25.62 L23.30,32.00 L29.25,23.92 L29.25,37.10" fill="none" stroke="url(#mbInk_2428726003)" stroke-width="2.80" stroke-linecap="round" stroke-linejoin="round"/>
  <text x="50.0" y="39.0" fill="#ffffff" font-size="20" font-weight="900" font-family="sans-serif" letter-spacing="0.07em">MASTERMIND</text>
  <text x="924.0" y="30.0" fill="#ffffff" font-size="26" font-weight="bold" text-anchor="end" font-family="sans-serif">QNT</text><text x="924.0" y="48.0" fill="#8899bb" font-size="13" text-anchor="end" letter-spacing="1" font-family="sans-serif">DAILY</text>
  <!-- footer -->
  <rect x="0" y="834" width="1000" height="46" fill="#0A1020" opacity="0.94"/><rect x="0" y="834" width="1000" height="1.5" fill="url(#bb_laser_2428726003)"/><rect x="14.00" y="848.00" width="18.00" height="18.00" rx="4.73" fill="url(#mbTile_2428726003bb)"/><rect x="14.00" y="848.00" width="18.00" height="18.00" rx="4.73" fill="url(#mbGlow_2428726003bb)"/><rect x="14.00" y="848.00" width="18.00" height="18.00" rx="4.73" fill="url(#mbSheen_2428726003bb)"/><path d="M18.95,860.20 L18.95,854.12 L22.10,857.50 L25.25,853.22 L25.25,860.20" fill="none" stroke="#15205a" stroke-opacity=".30" stroke-width="1.48" stroke-linecap="round" stroke-linejoin="round"/><path d="M18.95,859.70 L18.95,853.62 L22.10,857.00 L25.25,852.73 L25.25,859.70" fill="none" stroke="url(#mbInk_2428726003bb)" stroke-width="1.48" stroke-linecap="round" stroke-linejoin="round"/><text x="41.0" y="862.0" fill="#ffffff" font-size="15" font-weight="800" font-family="sans-serif" letter-spacing="0.3">mastermind-x.com</text><circle cx="204.0" cy="857.0" r="1.5" fill="#3a4466"/><text x="215.0" y="861.0" fill="#93a7cc" font-size="11" font-weight="700" font-family="sans-serif" letter-spacing="1.4">AI STOCK SIGNALS</text><circle cx="376.4" cy="857.0" r="1.5" fill="#3a4466"/><text x="387.4" y="861.0" fill="#8899bb" font-size="11" font-family="sans-serif" letter-spacing="0.2">Daily stock signals</text><text x="986.0" y="860.0" fill="#3a4466" font-size="9" text-anchor="end" font-family="sans-serif">© 2026 Mastermind</text>
</svg>