<svg viewBox="0 0 1000 880" xmlns="http://www.w3.org/2000/svg" width="1000" height="880">
  <defs><marker id="arrowhead_2600444182" markerWidth="8" markerHeight="6" refX="4" refY="3" orient="auto"><polygon points="0 0, 8 3, 0 6" fill="#4CAF50"/></marker><linearGradient id="mbTile_2600444182" x1="0" y1="0" x2="1" y2="1" gradientUnits="objectBoundingBox"><stop offset="0" stop-color="#5b9dff"/><stop offset=".42" stop-color="#3b82f6"/><stop offset=".74" stop-color="#6366f1"/><stop offset="1" stop-color="#7c5cff"/></linearGradient><linearGradient id="mbSheen_2600444182" x1="0" y1="0" x2="0" y2="1" gradientUnits="objectBoundingBox"><stop offset="0" stop-color="#ffffff" stop-opacity=".34"/><stop offset=".55" stop-color="#ffffff" stop-opacity="0"/></linearGradient><radialGradient id="mbGlow_2600444182" cx=".5" cy=".4" r=".65" gradientUnits="objectBoundingBox"><stop offset="0" stop-color="#ffffff" stop-opacity=".22"/><stop offset="1" stop-color="#ffffff" stop-opacity="0"/></radialGradient><linearGradient id="mbInk_2600444182" x1="0" y1="0" x2="0" y2="1" gradientUnits="objectBoundingBox"><stop offset="0" stop-color="#ffffff"/><stop offset="1" stop-color="#dbe7ff"/></linearGradient><linearGradient id="bb_laser_2600444182" x1="0" y1="0" x2="1" y2="0"><stop offset="0" stop-color="#5b9dff"/><stop offset="0.35" stop-color="#6366f1"/><stop offset="0.6" stop-color="#7c5cff"/><stop offset="0.92" stop-color="#7c5cff" stop-opacity="0"/></linearGradient><linearGradient id="bb_btn_2600444182" x1="0" y1="0" x2="1" y2="0"><stop offset="0" stop-color="#3b82f6"/><stop offset="1" stop-color="#7c5cff"/></linearGradient><linearGradient id="bb_btnsheen_2600444182" x1="0" y1="0" x2="0" y2="1"><stop offset="0" stop-color="#ffffff" stop-opacity="0.18"/><stop offset="0.55" stop-color="#ffffff" stop-opacity="0.02"/><stop offset="1" stop-color="#ffffff" stop-opacity="0"/></linearGradient><linearGradient id="mbTile_2600444182bb" x1="0" y1="0" x2="1" y2="1" gradientUnits="objectBoundingBox"><stop offset="0" stop-color="#5b9dff"/><stop offset=".42" stop-color="#3b82f6"/><stop offset=".74" stop-color="#6366f1"/><stop offset="1" stop-color="#7c5cff"/></linearGradient><linearGradient id="mbSheen_2600444182bb" x1="0" y1="0" x2="0" y2="1" gradientUnits="objectBoundingBox"><stop offset="0" stop-color="#ffffff" stop-opacity=".34"/><stop offset=".55" stop-color="#ffffff" stop-opacity="0"/></linearGradient><radialGradient id="mbGlow_2600444182bb" cx=".5" cy=".4" r=".65" gradientUnits="objectBoundingBox"><stop offset="0" stop-color="#ffffff" stop-opacity=".22"/><stop offset="1" stop-color="#ffffff" stop-opacity="0"/></radialGradient><linearGradient id="mbInk_2600444182bb" x1="0" y1="0" x2="0" y2="1" gradientUnits="objectBoundingBox"><stop offset="0" stop-color="#ffffff"/><stop offset="1" stop-color="#dbe7ff"/></linearGradient></defs>
  <!-- background -->
  <rect width="1000" height="880" fill="#0E1420"/>
  <!-- ghost watermark -->
  <text x="471.0" y="377.4" fill="#ffffff" fill-opacity="0.04" font-size="90" font-weight="bold" text-anchor="middle" dominant-baseline="middle">SHOP</text>
  <!-- company logo overlay -->
  
  <!-- embedded volume (paneless, under candles) -->
  <rect x="16.5" y="591.0" width="5.1" height="33.0" fill="#E23B3B" opacity="0.28" stroke="none"/>
  <rect x="26.7" y="599.8" width="5.1" height="24.2" fill="#4CAF50" opacity="0.28" stroke="none"/>
  <rect x="36.8" y="587.3" width="5.1" height="36.7" fill="#E23B3B" opacity="0.28" stroke="none"/>
  <rect x="47.0" y="601.5" width="5.1" height="22.5" fill="#E23B3B" opacity="0.28" stroke="none"/>
  <rect x="57.2" y="602.7" width="5.1" height="21.3" fill="#E23B3B" opacity="0.28" stroke="none"/>
  <rect x="67.3" y="602.7" width="5.1" height="21.3" fill="#E23B3B" opacity="0.28" stroke="none"/>
  <rect x="77.5" y="603.2" width="5.1" height="20.8" fill="#E23B3B" opacity="0.28" stroke="none"/>
  <rect x="87.6" y="596.4" width="5.1" height="27.6" fill="#4CAF50" opacity="0.28" stroke="none"/>
  <rect x="97.8" y="606.5" width="5.1" height="17.5" fill="#E23B3B" opacity="0.28" stroke="none"/>
  <rect x="107.9" y="604.5" width="5.1" height="19.5" fill="#4CAF50" opacity="0.28" stroke="none"/>
  <rect x="118.1" y="611.1" width="5.1" height="12.9" fill="#4CAF50" opacity="0.28" stroke="none"/>
  <rect x="128.2" y="607.6" width="5.1" height="16.4" fill="#E23B3B" opacity="0.28" stroke="none"/>
  <rect x="138.4" y="602.2" width="5.1" height="21.8" fill="#E23B3B" opacity="0.28" stroke="none"/>
  <rect x="148.6" y="594.9" width="5.1" height="29.1" fill="#E23B3B" opacity="0.28" stroke="none"/>
  <rect x="158.7" y="599.3" width="5.1" height="24.7" fill="#E23B3B" opacity="0.28" stroke="none"/>
  <rect x="168.9" y="595.0" width="5.1" height="29.0" fill="#4CAF50" opacity="0.28" stroke="none"/>
  <rect x="179.0" y="598.9" width="5.1" height="25.1" fill="#4CAF50" opacity="0.28" stroke="none"/>
  <rect x="189.2" y="598.3" width="5.1" height="25.7" fill="#4CAF50" opacity="0.28" stroke="none"/>
  <rect x="199.3" y="605.3" width="5.1" height="18.7" fill="#E23B3B" opacity="0.28" stroke="none"/>
  <rect x="209.5" y="599.6" width="5.1" height="24.4" fill="#4CAF50" opacity="0.28" stroke="none"/>
  <rect x="219.6" y="608.3" width="5.1" height="15.7" fill="#4CAF50" opacity="0.28" stroke="none"/>
  <rect x="229.8" y="604.7" width="5.1" height="19.3" fill="#E23B3B" opacity="0.28" stroke="none"/>
  <rect x="240.0" y="608.0" width="5.1" height="16.0" fill="#E23B3B" opacity="0.28" stroke="none"/>
  <rect x="250.1" y="602.2" width="5.1" height="21.8" fill="#E23B3B" opacity="0.28" stroke="none"/>
  <rect x="260.3" y="600.8" width="5.1" height="23.2" fill="#4CAF50" opacity="0.28" stroke="none"/>
  <rect x="270.4" y="612.9" width="5.1" height="11.1" fill="#E23B3B" opacity="0.28" stroke="none"/>
  <rect x="280.6" y="610.4" width="5.1" height="13.6" fill="#E23B3B" opacity="0.28" stroke="none"/>
  <rect x="290.7" y="609.8" width="5.1" height="14.2" fill="#4CAF50" opacity="0.28" stroke="none"/>
  <rect x="300.9" y="605.3" width="5.1" height="18.7" fill="#4CAF50" opacity="0.28" stroke="none"/>
  <rect x="311.0" y="602.1" width="5.1" height="21.9" fill="#4CAF50" opacity="0.28" stroke="none"/>
  <rect x="321.2" y="593.1" width="5.1" height="30.9" fill="#4CAF50" opacity="0.28" stroke="none"/>
  <rect x="331.4" y="514.4" width="5.1" height="109.6" fill="#E23B3B" opacity="0.28" stroke="none"/>
  <rect x="341.5" y="556.1" width="5.1" height="67.9" fill="#E23B3B" opacity="0.28" stroke="none"/>
  <rect x="351.7" y="561.4" width="5.1" height="62.6" fill="#4CAF50" opacity="0.28" stroke="none"/>
  <rect x="361.8" y="584.0" width="5.1" height="40.0" fill="#E23B3B" opacity="0.28" stroke="none"/>
  <rect x="372.0" y="572.2" width="5.1" height="51.8" fill="#E23B3B" opacity="0.28" stroke="none"/>
  <rect x="382.1" y="584.8" width="5.1" height="39.2" fill="#E23B3B" opacity="0.28" stroke="none"/>
  <rect x="392.3" y="566.7" width="5.1" height="57.3" fill="#E23B3B" opacity="0.28" stroke="none"/>
  <rect x="402.4" y="578.3" width="5.1" height="45.7" fill="#4CAF50" opacity="0.28" stroke="none"/>
  <rect x="412.6" y="580.3" width="5.1" height="43.7" fill="#4CAF50" opacity="0.28" stroke="none"/>
  <rect x="422.8" y="596.5" width="5.1" height="27.5" fill="#4CAF50" opacity="0.28" stroke="none"/>
  <rect x="432.9" y="591.7" width="5.1" height="32.3" fill="#E23B3B" opacity="0.28" stroke="none"/>
  <rect x="443.1" y="601.5" width="5.1" height="22.5" fill="#4CAF50" opacity="0.28" stroke="none"/>
  <rect x="453.2" y="604.8" width="5.1" height="19.2" fill="#4CAF50" opacity="0.28" stroke="none"/>
  <rect x="463.4" y="594.9" width="5.1" height="29.1" fill="#E23B3B" opacity="0.28" stroke="none"/>
  <rect x="473.5" y="602.0" width="5.1" height="22.0" fill="#4CAF50" opacity="0.28" stroke="none"/>
  <rect x="483.7" y="601.0" width="5.1" height="23.0" fill="#4CAF50" opacity="0.28" stroke="none"/>
  <rect x="493.8" y="583.7" width="5.1" height="40.3" fill="#4CAF50" opacity="0.28" stroke="none"/>
  <rect x="504.0" y="590.7" width="5.1" height="33.3" fill="#4CAF50" opacity="0.28" stroke="none"/>
  <rect x="514.2" y="594.5" width="5.1" height="29.5" fill="#4CAF50" opacity="0.28" stroke="none"/>
  <rect x="524.3" y="598.4" width="5.1" height="25.6" fill="#E23B3B" opacity="0.28" stroke="none"/>
  <rect x="534.5" y="603.1" width="5.1" height="20.9" fill="#E23B3B" opacity="0.28" stroke="none"/>
  <rect x="544.6" y="604.3" width="5.1" height="19.7" fill="#4CAF50" opacity="0.28" stroke="none"/>
  <rect x="554.8" y="601.7" width="5.1" height="22.3" fill="#E23B3B" opacity="0.28" stroke="none"/>
  <rect x="564.9" y="604.7" width="5.1" height="19.3" fill="#E23B3B" opacity="0.28" stroke="none"/>
  <rect x="575.1" y="602.4" width="5.1" height="21.6" fill="#E23B3B" opacity="0.28" stroke="none"/>
  <rect x="585.2" y="603.6" width="5.1" height="20.4" fill="#E23B3B" opacity="0.28" stroke="none"/>
  <rect x="595.4" y="601.3" width="5.1" height="22.7" fill="#4CAF50" opacity="0.28" stroke="none"/>
  <rect x="605.6" y="599.7" width="5.1" height="24.3" fill="#E23B3B" opacity="0.28" stroke="none"/>
  <rect x="615.7" y="605.2" width="5.1" height="18.8" fill="#4CAF50" opacity="0.28" stroke="none"/>
  <rect x="625.9" y="608.9" width="5.1" height="15.1" fill="#4CAF50" opacity="0.28" stroke="none"/>
  <rect x="636.0" y="599.8" width="5.1" height="24.2" fill="#E23B3B" opacity="0.28" stroke="none"/>
  <rect x="646.2" y="596.3" width="5.1" height="27.7" fill="#4CAF50" opacity="0.28" stroke="none"/>
  <rect x="656.3" y="600.3" width="5.1" height="23.7" fill="#4CAF50" opacity="0.28" stroke="none"/>
  <rect x="666.5" y="594.7" width="5.1" height="29.3" fill="#E23B3B" opacity="0.28" stroke="none"/>
  <rect x="676.6" y="568.6" width="5.1" height="55.4" fill="#4CAF50" opacity="0.28" stroke="none"/>
  <rect x="686.8" y="602.2" width="5.1" height="21.8" fill="#E23B3B" opacity="0.28" stroke="none"/>
  <rect x="697.0" y="596.6" width="5.1" height="27.4" fill="#4CAF50" opacity="0.28" stroke="none"/>
  <rect x="707.1" y="596.7" width="5.1" height="27.3" fill="#E23B3B" opacity="0.28" stroke="none"/>
  <rect x="717.3" y="605.8" width="5.1" height="18.2" fill="#4CAF50" opacity="0.28" stroke="none"/>
  <rect x="727.4" y="600.8" width="5.1" height="23.2" fill="#4CAF50" opacity="0.28" stroke="none"/>
  <rect x="737.6" y="605.4" width="5.1" height="18.6" fill="#4CAF50" opacity="0.28" stroke="none"/>
  <rect x="747.7" y="603.8" width="5.1" height="20.2" fill="#4CAF50" opacity="0.28" stroke="none"/>
  <rect x="757.9" y="595.5" width="5.1" height="28.5" fill="#E23B3B" opacity="0.28" stroke="none"/>
  <rect x="768.0" y="608.4" width="5.1" height="15.6" fill="#E23B3B" opacity="0.28" stroke="none"/>
  <rect x="778.2" y="606.2" width="5.1" height="17.8" fill="#4CAF50" opacity="0.28" stroke="none"/>
  <rect x="788.4" y="608.9" width="5.1" height="15.1" fill="#E23B3B" opacity="0.28" stroke="none"/>
  <rect x="798.5" y="605.4" width="5.1" height="18.6" fill="#4CAF50" opacity="0.28" stroke="none"/>
  <rect x="808.7" y="610.7" width="5.1" height="13.3" fill="#4CAF50" opacity="0.28" stroke="none"/>
  <rect x="818.8" y="600.9" width="5.1" height="23.1" fill="#E23B3B" opacity="0.28" stroke="none"/>
  <rect x="829.0" y="601.3" width="5.1" height="22.7" fill="#4CAF50" opacity="0.28" stroke="none"/>
  <rect x="839.1" y="606.3" width="5.1" height="17.7" fill="#E23B3B" opacity="0.28" stroke="none"/>
  <rect x="849.3" y="603.5" width="5.1" height="20.5" fill="#4CAF50" opacity="0.28" stroke="none"/>
  <rect x="859.4" y="605.1" width="5.1" height="18.9" fill="#4CAF50" opacity="0.28" stroke="none"/>
  <rect x="869.6" y="602.6" width="5.1" height="21.4" fill="#E23B3B" opacity="0.28" stroke="none"/>
  <rect x="879.8" y="594.9" width="5.1" height="29.1" fill="#E23B3B" opacity="0.28" stroke="none"/>
  <rect x="889.9" y="603.5" width="5.1" height="20.5" fill="#4CAF50" opacity="0.28" stroke="none"/>
  <rect x="900.1" y="592.8" width="5.1" height="31.2" fill="#4CAF50" opacity="0.28" stroke="none"/>
  <rect x="910.2" y="595.8" width="5.1" height="28.2" fill="#4CAF50" opacity="0.28" stroke="none"/>
  <rect x="920.4" y="603.9" width="5.1" height="20.1" fill="#4CAF50" opacity="0.28" stroke="none"/>
  <!-- SMA overlays -->
  <polyline points="19.1,181.1 29.2,191.6 39.4,202.3 49.5,213.3 59.7,224.9 69.9,235.0 80.0,245.3 90.2,253.5 100.3,259.3 110.5,263.8 120.6,268.0 130.8,272.6 140.9,276.2 151.1,281.8 161.3,288.0 171.4,294.4 181.6,297.4 191.7,298.5 201.9,296.8 212.0,293.0 222.2,287.7 232.3,283.4 242.5,280.4 252.7,281.1 262.8,279.5 273.0,276.5 283.1,274.4 293.3,272.7 303.4,272.8 313.6,271.9 323.7,271.6 333.9,273.8 344.1,276.3 354.2,278.2 364.4,281.7 374.5,285.7 384.7,290.1 394.8,295.9 405.0,303.1 415.1,310.8 425.3,316.9 435.5,324.2 445.6,329.6 455.8,335.0 465.9,340.2 476.1,344.2 486.2,348.6 496.4,351.5 506.5,352.6 516.7,352.2 526.9,352.1 537.0,353.9 547.2,354.0 557.3,355.9 567.5,357.0 577.6,357.3 587.8,358.1 597.9,359.9 608.1,362.2 618.3,363.5 628.4,364.7 638.6,366.7 648.7,369.2 658.9,370.2 669.0,370.9 679.2,371.0 689.3,372.4 699.5,374.7 709.7,377.5 719.8,381.3 730.0,384.3 740.1,386.9 750.3,389.5 760.4,390.0 770.6,391.5 780.7,391.7 790.9,391.6 801.1,390.9 811.2,389.9 821.4,390.8 831.5,391.3 841.7,387.8 851.8,383.6 862.0,381.0 872.1,379.3 882.3,377.2 892.5,374.1 902.6,367.1 912.8,359.8 922.9,353.4" fill="none" stroke="#F59E0B" stroke-width="1.2" opacity="0.8" stroke-dasharray="4,2"/>
  <!-- M2 overlays: AVWAP + POC (over SMA, under candles) -->
  
  <!-- candlesticks -->
  <line x1="19.1" y1="281.1" x2="19.1" y2="351.6" stroke="#E23B3B" stroke-width="1"/>
  <rect x="16.5" y="283.3" width="5.1" height="54.1" fill="#E23B3B" stroke="none"/>
  <line x1="29.2" y1="270.6" x2="29.2" y2="320.1" stroke="#4CAF50" stroke-width="1"/>
  <rect x="26.7" y="289.5" width="5.1" height="27.9" fill="#4CAF50" stroke="none"/>
  <line x1="39.4" y1="312.3" x2="39.4" y2="363.2" stroke="#E23B3B" stroke-width="1"/>
  <rect x="36.8" y="321.1" width="5.1" height="23.3" fill="#E23B3B" stroke="none"/>
  <line x1="49.5" y1="287.6" x2="49.5" y2="350.7" stroke="#E23B3B" stroke-width="1"/>
  <rect x="47.0" y="301.5" width="5.1" height="17.8" fill="#E23B3B" stroke="none"/>
  <line x1="59.7" y1="294.2" x2="59.7" y2="357.2" stroke="#E23B3B" stroke-width="1"/>
  <rect x="57.2" y="343.3" width="5.1" height="9.1" fill="#E23B3B" stroke="none"/>
  <line x1="69.9" y1="357.2" x2="69.9" y2="410.8" stroke="#E23B3B" stroke-width="1"/>
  <rect x="67.3" y="373.8" width="5.1" height="18.4" fill="#E23B3B" stroke="none"/>
  <line x1="80.0" y1="362.0" x2="80.0" y2="406.0" stroke="#E23B3B" stroke-width="1"/>
  <rect x="77.5" y="386.6" width="5.1" height="6.4" fill="#E23B3B" stroke="none"/>
  <line x1="90.2" y1="310.4" x2="90.2" y2="399.4" stroke="#4CAF50" stroke-width="1"/>
  <rect x="87.6" y="317.0" width="5.1" height="56.8" fill="#4CAF50" stroke="none"/>
  <line x1="100.3" y1="292.0" x2="100.3" y2="344.1" stroke="#E23B3B" stroke-width="1"/>
  <rect x="97.8" y="293.8" width="5.1" height="24.3" fill="#E23B3B" stroke="none"/>
  <line x1="110.5" y1="305.0" x2="110.5" y2="390.2" stroke="#4CAF50" stroke-width="1"/>
  <rect x="107.9" y="321.1" width="5.1" height="43.4" fill="#4CAF50" stroke="none"/>
  <line x1="120.6" y1="289.1" x2="120.6" y2="333.9" stroke="#4CAF50" stroke-width="1"/>
  <rect x="118.1" y="315.0" width="5.1" height="11.2" fill="#4CAF50" stroke="none"/>
  <line x1="130.8" y1="325.6" x2="130.8" y2="372.9" stroke="#E23B3B" stroke-width="1"/>
  <rect x="128.2" y="328.9" width="5.1" height="5.5" fill="#E23B3B" stroke="none"/>
  <line x1="140.9" y1="229.5" x2="140.9" y2="306.5" stroke="#E23B3B" stroke-width="1"/>
  <rect x="138.4" y="248.1" width="5.1" height="52.5" fill="#E23B3B" stroke="none"/>
  <line x1="151.1" y1="294.9" x2="151.1" y2="390.5" stroke="#E23B3B" stroke-width="1"/>
  <rect x="148.6" y="298.3" width="5.1" height="88.0" fill="#E23B3B" stroke="none"/>
  <line x1="161.3" y1="369.4" x2="161.3" y2="424.4" stroke="#E23B3B" stroke-width="1"/>
  <rect x="158.7" y="379.3" width="5.1" height="24.6" fill="#E23B3B" stroke="none"/>
  <line x1="171.4" y1="349.7" x2="171.4" y2="420.3" stroke="#4CAF50" stroke-width="1"/>
  <rect x="168.9" y="357.5" width="5.1" height="61.3" fill="#4CAF50" stroke="none"/>
  <line x1="181.6" y1="311.5" x2="181.6" y2="351.0" stroke="#4CAF50" stroke-width="1"/>
  <rect x="179.0" y="327.9" width="5.1" height="7.4" fill="#4CAF50" stroke="none"/>
  <line x1="191.7" y1="216.2" x2="191.7" y2="321.4" stroke="#4CAF50" stroke-width="1"/>
  <rect x="189.2" y="219.4" width="5.1" height="92.3" fill="#4CAF50" stroke="none"/>
  <line x1="201.9" y1="183.0" x2="201.9" y2="236.9" stroke="#E23B3B" stroke-width="1"/>
  <rect x="199.3" y="189.0" width="5.1" height="35.6" fill="#E23B3B" stroke="none"/>
  <line x1="212.0" y1="153.8" x2="212.0" y2="192.6" stroke="#4CAF50" stroke-width="1"/>
  <rect x="209.5" y="177.9" width="5.1" height="11.2" fill="#4CAF50" stroke="none"/>
  <line x1="222.2" y1="131.5" x2="222.2" y2="195.6" stroke="#4CAF50" stroke-width="1"/>
  <rect x="219.6" y="133.6" width="5.1" height="56.5" fill="#4CAF50" stroke="none"/>
  <line x1="232.3" y1="109.6" x2="232.3" y2="181.1" stroke="#E23B3B" stroke-width="1"/>
  <rect x="229.8" y="132.8" width="5.1" height="45.4" fill="#E23B3B" stroke="none"/>
  <line x1="242.5" y1="148.8" x2="242.5" y2="176.8" stroke="#E23B3B" stroke-width="1"/>
  <rect x="240.0" y="153.1" width="5.1" height="15.9" fill="#E23B3B" stroke="none"/>
  <line x1="252.7" y1="187.4" x2="252.7" y2="282.5" stroke="#E23B3B" stroke-width="1"/>
  <rect x="250.1" y="190.7" width="5.1" height="64.1" fill="#E23B3B" stroke="none"/>
  <line x1="262.8" y1="230.0" x2="262.8" y2="283.3" stroke="#4CAF50" stroke-width="1"/>
  <rect x="260.3" y="237.0" width="5.1" height="14.8" fill="#4CAF50" stroke="none"/>
  <line x1="273.0" y1="232.6" x2="273.0" y2="267.4" stroke="#E23B3B" stroke-width="1"/>
  <rect x="270.4" y="252.8" width="5.1" height="1.9" fill="#E23B3B" stroke="none"/>
  <line x1="283.1" y1="220.6" x2="283.1" y2="279.7" stroke="#E23B3B" stroke-width="1"/>
  <rect x="280.6" y="260.7" width="5.1" height="18.2" fill="#E23B3B" stroke="none"/>
  <line x1="293.3" y1="279.1" x2="293.3" y2="308.1" stroke="#4CAF50" stroke-width="1"/>
  <rect x="290.7" y="287.7" width="5.1" height="1.5" fill="#4CAF50" stroke="none"/>
  <line x1="303.4" y1="273.1" x2="303.4" y2="320.0" stroke="#4CAF50" stroke-width="1"/>
  <rect x="300.9" y="289.2" width="5.1" height="3.8" fill="#4CAF50" stroke="none"/>
  <line x1="313.6" y1="213.8" x2="313.6" y2="264.1" stroke="#4CAF50" stroke-width="1"/>
  <rect x="311.0" y="216.6" width="5.1" height="45.0" fill="#4CAF50" stroke="none"/>
  <line x1="323.7" y1="197.5" x2="323.7" y2="245.1" stroke="#4CAF50" stroke-width="1"/>
  <rect x="321.2" y="217.9" width="5.1" height="10.0" fill="#4CAF50" stroke="none"/>
  <line x1="333.9" y1="313.0" x2="333.9" y2="461.6" stroke="#E23B3B" stroke-width="1"/>
  <rect x="331.4" y="345.6" width="5.1" height="93.5" fill="#E23B3B" stroke="none"/>
  <line x1="344.1" y1="416.8" x2="344.1" y2="476.3" stroke="#E23B3B" stroke-width="1"/>
  <rect x="341.5" y="428.2" width="5.1" height="35.2" fill="#E23B3B" stroke="none"/>
  <line x1="354.2" y1="391.5" x2="354.2" y2="449.4" stroke="#4CAF50" stroke-width="1"/>
  <rect x="351.7" y="393.4" width="5.1" height="55.5" fill="#4CAF50" stroke="none"/>
  <line x1="364.4" y1="403.4" x2="364.4" y2="442.1" stroke="#E23B3B" stroke-width="1"/>
  <rect x="361.8" y="407.8" width="5.1" height="1.5" fill="#E23B3B" stroke="none"/>
  <line x1="374.5" y1="430.3" x2="374.5" y2="497.3" stroke="#E23B3B" stroke-width="1"/>
  <rect x="372.0" y="442.1" width="5.1" height="53.4" fill="#E23B3B" stroke="none"/>
  <line x1="384.7" y1="488.3" x2="384.7" y2="539.7" stroke="#E23B3B" stroke-width="1"/>
  <rect x="382.1" y="497.2" width="5.1" height="28.3" fill="#E23B3B" stroke="none"/>
  <line x1="394.8" y1="536.7" x2="394.8" y2="584.1" stroke="#E23B3B" stroke-width="1"/>
  <rect x="392.3" y="538.0" width="5.1" height="36.8" fill="#E23B3B" stroke="none"/>
  <line x1="405.0" y1="546.4" x2="405.0" y2="590.4" stroke="#4CAF50" stroke-width="1"/>
  <rect x="402.4" y="552.4" width="5.1" height="22.4" fill="#4CAF50" stroke="none"/>
  <line x1="415.1" y1="507.6" x2="415.1" y2="568.1" stroke="#4CAF50" stroke-width="1"/>
  <rect x="412.6" y="520.6" width="5.1" height="30.9" fill="#4CAF50" stroke="none"/>
  <line x1="425.3" y1="486.8" x2="425.3" y2="538.2" stroke="#4CAF50" stroke-width="1"/>
  <rect x="422.8" y="497.2" width="5.1" height="35.4" fill="#4CAF50" stroke="none"/>
  <line x1="435.5" y1="469.3" x2="435.5" y2="515.7" stroke="#E23B3B" stroke-width="1"/>
  <rect x="432.9" y="490.8" width="5.1" height="21.8" fill="#E23B3B" stroke="none"/>
  <line x1="445.6" y1="466.9" x2="445.6" y2="532.3" stroke="#4CAF50" stroke-width="1"/>
  <rect x="443.1" y="468.1" width="5.1" height="53.5" fill="#4CAF50" stroke="none"/>
  <line x1="455.8" y1="452.5" x2="455.8" y2="505.4" stroke="#4CAF50" stroke-width="1"/>
  <rect x="453.2" y="469.8" width="5.1" height="18.0" fill="#4CAF50" stroke="none"/>
  <line x1="465.9" y1="436.6" x2="465.9" y2="490.7" stroke="#E23B3B" stroke-width="1"/>
  <rect x="463.4" y="459.2" width="5.1" height="31.2" fill="#E23B3B" stroke="none"/>
  <line x1="476.1" y1="467.1" x2="476.1" y2="498.0" stroke="#4CAF50" stroke-width="1"/>
  <rect x="473.5" y="469.3" width="5.1" height="18.5" fill="#4CAF50" stroke="none"/>
  <line x1="486.2" y1="422.7" x2="486.2" y2="481.3" stroke="#4CAF50" stroke-width="1"/>
  <rect x="483.7" y="450.5" width="5.1" height="29.1" fill="#4CAF50" stroke="none"/>
  <line x1="496.4" y1="354.4" x2="496.4" y2="446.5" stroke="#4CAF50" stroke-width="1"/>
  <rect x="493.8" y="356.9" width="5.1" height="87.1" fill="#4CAF50" stroke="none"/>
  <line x1="506.5" y1="303.5" x2="506.5" y2="374.4" stroke="#4CAF50" stroke-width="1"/>
  <rect x="504.0" y="316.0" width="5.1" height="25.8" fill="#4CAF50" stroke="none"/>
  <line x1="516.7" y1="250.4" x2="516.7" y2="312.2" stroke="#4CAF50" stroke-width="1"/>
  <rect x="514.2" y="256.0" width="5.1" height="43.0" fill="#4CAF50" stroke="none"/>
  <line x1="526.9" y1="284.7" x2="526.9" y2="351.3" stroke="#E23B3B" stroke-width="1"/>
  <rect x="524.3" y="296.7" width="5.1" height="38.2" fill="#E23B3B" stroke="none"/>
  <line x1="537.0" y1="354.3" x2="537.0" y2="385.0" stroke="#E23B3B" stroke-width="1"/>
  <rect x="534.5" y="361.5" width="5.1" height="18.5" fill="#E23B3B" stroke="none"/>
  <line x1="547.2" y1="326.5" x2="547.2" y2="364.6" stroke="#4CAF50" stroke-width="1"/>
  <rect x="544.6" y="345.7" width="5.1" height="1.8" fill="#4CAF50" stroke="none"/>
  <line x1="557.3" y1="347.2" x2="557.3" y2="431.7" stroke="#E23B3B" stroke-width="1"/>
  <rect x="554.8" y="362.8" width="5.1" height="55.1" fill="#E23B3B" stroke="none"/>
  <line x1="567.5" y1="358.5" x2="567.5" y2="407.0" stroke="#E23B3B" stroke-width="1"/>
  <rect x="564.9" y="373.0" width="5.1" height="31.1" fill="#E23B3B" stroke="none"/>
  <line x1="577.6" y1="335.5" x2="577.6" y2="443.9" stroke="#E23B3B" stroke-width="1"/>
  <rect x="575.1" y="401.6" width="5.1" height="6.4" fill="#E23B3B" stroke="none"/>
  <line x1="587.8" y1="409.9" x2="587.8" y2="452.7" stroke="#E23B3B" stroke-width="1"/>
  <rect x="585.2" y="428.3" width="5.1" height="4.4" fill="#E23B3B" stroke="none"/>
  <line x1="597.9" y1="406.4" x2="597.9" y2="478.1" stroke="#4CAF50" stroke-width="1"/>
  <rect x="595.4" y="407.5" width="5.1" height="39.6" fill="#4CAF50" stroke="none"/>
  <line x1="608.1" y1="401.3" x2="608.1" y2="446.3" stroke="#E23B3B" stroke-width="1"/>
  <rect x="605.6" y="411.6" width="5.1" height="20.6" fill="#E23B3B" stroke="none"/>
  <line x1="618.3" y1="353.7" x2="618.3" y2="410.5" stroke="#4CAF50" stroke-width="1"/>
  <rect x="615.7" y="385.1" width="5.1" height="17.7" fill="#4CAF50" stroke="none"/>
  <line x1="628.4" y1="361.9" x2="628.4" y2="395.0" stroke="#4CAF50" stroke-width="1"/>
  <rect x="625.9" y="376.9" width="5.1" height="13.9" fill="#4CAF50" stroke="none"/>
  <line x1="638.6" y1="367.5" x2="638.6" y2="437.6" stroke="#E23B3B" stroke-width="1"/>
  <rect x="636.0" y="386.1" width="5.1" height="47.8" fill="#E23B3B" stroke="none"/>
  <line x1="648.7" y1="416.5" x2="648.7" y2="455.6" stroke="#4CAF50" stroke-width="1"/>
  <rect x="646.2" y="425.5" width="5.1" height="11.8" fill="#4CAF50" stroke="none"/>
  <line x1="658.9" y1="395.2" x2="658.9" y2="457.1" stroke="#4CAF50" stroke-width="1"/>
  <rect x="656.3" y="435.1" width="5.1" height="13.7" fill="#4CAF50" stroke="none"/>
  <line x1="669.0" y1="412.5" x2="669.0" y2="446.1" stroke="#E23B3B" stroke-width="1"/>
  <rect x="666.5" y="436.5" width="5.1" height="1.9" fill="#E23B3B" stroke="none"/>
  <line x1="679.2" y1="362.9" x2="679.2" y2="449.1" stroke="#4CAF50" stroke-width="1"/>
  <rect x="676.6" y="366.4" width="5.1" height="81.0" fill="#4CAF50" stroke="none"/>
  <line x1="689.3" y1="349.6" x2="689.3" y2="398.0" stroke="#E23B3B" stroke-width="1"/>
  <rect x="686.8" y="375.0" width="5.1" height="19.8" fill="#E23B3B" stroke="none"/>
  <line x1="699.5" y1="325.4" x2="699.5" y2="389.4" stroke="#4CAF50" stroke-width="1"/>
  <rect x="697.0" y="336.6" width="5.1" height="47.3" fill="#4CAF50" stroke="none"/>
  <line x1="709.7" y1="294.8" x2="709.7" y2="368.4" stroke="#E23B3B" stroke-width="1"/>
  <rect x="707.1" y="319.7" width="5.1" height="46.3" fill="#E23B3B" stroke="none"/>
  <line x1="719.8" y1="346.1" x2="719.8" y2="390.5" stroke="#4CAF50" stroke-width="1"/>
  <rect x="717.3" y="366.3" width="5.1" height="13.1" fill="#4CAF50" stroke="none"/>
  <line x1="730.0" y1="260.6" x2="730.0" y2="331.4" stroke="#4CAF50" stroke-width="1"/>
  <rect x="727.4" y="283.6" width="5.1" height="47.8" fill="#4CAF50" stroke="none"/>
  <line x1="740.1" y1="287.3" x2="740.1" y2="319.2" stroke="#4CAF50" stroke-width="1"/>
  <rect x="737.6" y="307.7" width="5.1" height="4.6" fill="#4CAF50" stroke="none"/>
  <line x1="750.3" y1="284.6" x2="750.3" y2="349.3" stroke="#4CAF50" stroke-width="1"/>
  <rect x="747.7" y="300.2" width="5.1" height="13.1" fill="#4CAF50" stroke="none"/>
  <line x1="760.4" y1="235.8" x2="760.4" y2="285.4" stroke="#E23B3B" stroke-width="1"/>
  <rect x="757.9" y="270.2" width="5.1" height="10.7" fill="#E23B3B" stroke="none"/>
  <line x1="770.6" y1="291.3" x2="770.6" y2="355.3" stroke="#E23B3B" stroke-width="1"/>
  <rect x="768.0" y="291.4" width="5.1" height="19.0" fill="#E23B3B" stroke="none"/>
  <line x1="780.7" y1="266.0" x2="780.7" y2="338.2" stroke="#4CAF50" stroke-width="1"/>
  <rect x="778.2" y="266.5" width="5.1" height="65.7" fill="#4CAF50" stroke="none"/>
  <line x1="790.9" y1="182.4" x2="790.9" y2="276.2" stroke="#E23B3B" stroke-width="1"/>
  <rect x="788.4" y="226.6" width="5.1" height="46.9" fill="#E23B3B" stroke="none"/>
  <line x1="801.1" y1="227.3" x2="801.1" y2="282.8" stroke="#4CAF50" stroke-width="1"/>
  <rect x="798.5" y="249.1" width="5.1" height="1.5" fill="#4CAF50" stroke="none"/>
  <line x1="811.2" y1="233.9" x2="811.2" y2="301.7" stroke="#4CAF50" stroke-width="1"/>
  <rect x="808.7" y="238.7" width="5.1" height="45.0" fill="#4CAF50" stroke="none"/>
  <line x1="821.4" y1="217.4" x2="821.4" y2="292.0" stroke="#E23B3B" stroke-width="1"/>
  <rect x="818.8" y="230.1" width="5.1" height="32.2" fill="#E23B3B" stroke="none"/>
  <line x1="831.5" y1="214.1" x2="831.5" y2="281.9" stroke="#4CAF50" stroke-width="1"/>
  <rect x="829.0" y="245.5" width="5.1" height="5.1" fill="#4CAF50" stroke="none"/>
  <line x1="841.7" y1="250.6" x2="841.7" y2="289.4" stroke="#E23B3B" stroke-width="1"/>
  <rect x="839.1" y="250.6" width="5.1" height="11.5" fill="#E23B3B" stroke="none"/>
  <line x1="851.8" y1="210.0" x2="851.8" y2="263.4" stroke="#4CAF50" stroke-width="1"/>
  <rect x="849.3" y="252.0" width="5.1" height="2.8" fill="#4CAF50" stroke="none"/>
  <line x1="862.0" y1="254.1" x2="862.0" y2="310.0" stroke="#4CAF50" stroke-width="1"/>
  <rect x="859.4" y="268.1" width="5.1" height="20.2" fill="#4CAF50" stroke="none"/>
  <line x1="872.1" y1="263.7" x2="872.1" y2="339.2" stroke="#E23B3B" stroke-width="1"/>
  <rect x="869.6" y="269.0" width="5.1" height="50.3" fill="#E23B3B" stroke="none"/>
  <line x1="882.3" y1="324.9" x2="882.3" y2="401.0" stroke="#E23B3B" stroke-width="1"/>
  <rect x="879.8" y="330.1" width="5.1" height="60.4" fill="#E23B3B" stroke="none"/>
  <line x1="892.5" y1="361.7" x2="892.5" y2="398.7" stroke="#4CAF50" stroke-width="1"/>
  <rect x="889.9" y="371.1" width="5.1" height="8.4" fill="#4CAF50" stroke="none"/>
  <line x1="902.6" y1="225.0" x2="902.6" y2="326.0" stroke="#4CAF50" stroke-width="1"/>
  <rect x="900.1" y="225.3" width="5.1" height="96.4" fill="#4CAF50" stroke="none"/>
  <line x1="912.8" y1="146.4" x2="912.8" y2="214.3" stroke="#4CAF50" stroke-width="1"/>
  <rect x="910.2" y="187.6" width="5.1" height="22.1" fill="#4CAF50" stroke="none"/>
  <line x1="922.9" y1="149.3" x2="922.9" y2="210.5" stroke="#4CAF50" stroke-width="1"/>
  <rect x="920.4" y="199.9" width="5.1" height="1.5" fill="#4CAF50" stroke="none"/>
  <!-- highlight zone -->
  
  <!-- price axis -->
  <text x="936.0" y="527.7" fill="#6b7a99" font-size="10" font-family="monospace">100.00</text>
  <text x="936.0" y="416.7" fill="#6b7a99" font-size="10" font-family="monospace">110.00</text>
  <text x="936.0" y="305.7" fill="#6b7a99" font-size="10" font-family="monospace">120.00</text>
  <text x="936.0" y="83.7" fill="#6b7a99" font-size="10" font-family="monospace">140.00</text>
  <rect x="932.0" y="189.9" width="58" height="18" rx="2" fill="#E23B3B"/><text x="961.0" y="202.9" fill="#ffffff" font-size="10" font-weight="bold" font-family="monospace" text-anchor="middle">129.17</text>
  <!-- % change callout -->
  
  <!-- date labels -->
  <text x="19.1" y="630" fill="#4a556a" font-size="9" text-anchor="start">2026-03-20</text>
  <text x="201.9" y="630" fill="#4a556a" font-size="9" text-anchor="middle">2026-04-16</text>
  <text x="384.7" y="630" fill="#4a556a" font-size="9" text-anchor="middle">2026-05-12</text>
  <text x="557.3" y="630" fill="#4a556a" font-size="9" text-anchor="middle">2026-06-05</text>
  <text x="740.1" y="630" fill="#4a556a" font-size="9" text-anchor="middle">2026-07-02</text>
  <text x="922.9" y="630" fill="#4a556a" font-size="9" text-anchor="end">2026-07-29</text>
  <!-- M2 overlay labels (top-most in price panel, never occluded) -->
  <rect x="871.0" y="344.9" width="52" height="17" rx="4" fill="#0E1420" fill-opacity="0.82" stroke="#F59E0B" stroke-opacity="0.55" stroke-width="1"/><text x="916.0" y="357.4" fill="#F59E0B" font-size="11" text-anchor="end" font-family="sans-serif">50 SMA</text>
  <!-- subpanels -->
  <line x1="14" y1="632" x2="928" y2="632" stroke="#232A3D" stroke-width="1"/>
  <text x="18" y="645" fill="#6b7a99" font-size="9" font-weight="700" letter-spacing="0.12em">MACD</text>
  <line x1="14" y1="734.0" x2="928" y2="734.0" stroke="#2f3750" stroke-width="1"/>
  <rect x="16.5" y="734.0" width="5.1" height="1.1" fill="#E23B3B" opacity="0.5" stroke="none"/>
  <rect x="26.7" y="734.0" width="5.1" height="1.5" fill="#E23B3B" opacity="0.5" stroke="none"/>
  <rect x="36.8" y="734.0" width="5.1" height="4.0" fill="#E23B3B" opacity="0.5" stroke="none"/>
  <rect x="47.0" y="734.0" width="5.1" height="4.1" fill="#E23B3B" opacity="0.5" stroke="none"/>
  <rect x="57.2" y="734.0" width="5.1" height="5.2" fill="#E23B3B" opacity="0.5" stroke="none"/>
  <rect x="67.3" y="734.0" width="5.1" height="7.3" fill="#E23B3B" opacity="0.5" stroke="none"/>
  <rect x="77.5" y="734.0" width="5.1" height="8.0" fill="#E23B3B" opacity="0.5" stroke="none"/>
  <rect x="87.6" y="734.0" width="5.1" height="4.5" fill="#E23B3B" opacity="0.5" stroke="none"/>
  <rect x="97.8" y="734.0" width="5.1" height="1.9" fill="#E23B3B" opacity="0.5" stroke="none"/>
  <rect x="107.9" y="734.0" width="5.1" height="1.0" fill="#E23B3B" opacity="0.5" stroke="none"/>
  <rect x="118.1" y="732.5" width="5.1" height="1.5" fill="#4CAF50" opacity="0.5" stroke="none"/>
  <rect x="128.2" y="732.2" width="5.1" height="1.8" fill="#4CAF50" opacity="0.5" stroke="none"/>
  <rect x="138.4" y="730.4" width="5.1" height="3.6" fill="#4CAF50" opacity="0.5" stroke="none"/>
  <rect x="148.6" y="733.1" width="5.1" height="1.0" fill="#4CAF50" opacity="0.5" stroke="none"/>
  <rect x="158.7" y="734.0" width="5.1" height="1.3" fill="#E23B3B" opacity="0.5" stroke="none"/>
  <rect x="168.9" y="734.0" width="5.1" height="1.0" fill="#E23B3B" opacity="0.5" stroke="none"/>
  <rect x="179.0" y="732.4" width="5.1" height="1.6" fill="#4CAF50" opacity="0.5" stroke="none"/>
  <rect x="189.2" y="726.2" width="5.1" height="7.8" fill="#4CAF50" opacity="0.5" stroke="none"/>
  <rect x="199.3" y="722.8" width="5.1" height="11.2" fill="#4CAF50" opacity="0.5" stroke="none"/>
  <rect x="209.5" y="719.0" width="5.1" height="15.0" fill="#4CAF50" opacity="0.5" stroke="none"/>
  <rect x="219.6" y="715.3" width="5.1" height="18.7" fill="#4CAF50" opacity="0.5" stroke="none"/>
  <rect x="229.8" y="715.9" width="5.1" height="18.1" fill="#4CAF50" opacity="0.5" stroke="none"/>
  <rect x="240.0" y="716.8" width="5.1" height="17.2" fill="#4CAF50" opacity="0.5" stroke="none"/>
  <rect x="250.1" y="722.0" width="5.1" height="12.0" fill="#4CAF50" opacity="0.5" stroke="none"/>
  <rect x="260.3" y="725.2" width="5.1" height="8.8" fill="#4CAF50" opacity="0.5" stroke="none"/>
  <rect x="270.4" y="728.4" width="5.1" height="5.6" fill="#4CAF50" opacity="0.5" stroke="none"/>
  <rect x="280.6" y="731.9" width="5.1" height="2.1" fill="#4CAF50" opacity="0.5" stroke="none"/>
  <rect x="290.7" y="734.0" width="5.1" height="1.0" fill="#E23B3B" opacity="0.5" stroke="none"/>
  <rect x="300.9" y="734.0" width="5.1" height="2.5" fill="#E23B3B" opacity="0.5" stroke="none"/>
  <rect x="311.0" y="734.0" width="5.1" height="1.0" fill="#E23B3B" opacity="0.5" stroke="none"/>
  <rect x="321.2" y="733.1" width="5.1" height="1.0" fill="#4CAF50" opacity="0.5" stroke="none"/>
  <rect x="331.4" y="734.0" width="5.1" height="8.2" fill="#E23B3B" opacity="0.5" stroke="none"/>
  <rect x="341.5" y="734.0" width="5.1" height="14.6" fill="#E23B3B" opacity="0.5" stroke="none"/>
  <rect x="351.7" y="734.0" width="5.1" height="14.7" fill="#E23B3B" opacity="0.5" stroke="none"/>
  <rect x="361.8" y="734.0" width="5.1" height="14.7" fill="#E23B3B" opacity="0.5" stroke="none"/>
  <rect x="372.0" y="734.0" width="5.1" height="17.7" fill="#E23B3B" opacity="0.5" stroke="none"/>
  <rect x="382.1" y="734.0" width="5.1" height="19.9" fill="#E23B3B" opacity="0.5" stroke="none"/>
  <rect x="392.3" y="734.0" width="5.1" height="22.2" fill="#E23B3B" opacity="0.5" stroke="none"/>
  <rect x="402.4" y="734.0" width="5.1" height="21.4" fill="#E23B3B" opacity="0.5" stroke="none"/>
  <rect x="412.6" y="734.0" width="5.1" height="18.0" fill="#E23B3B" opacity="0.5" stroke="none"/>
  <rect x="422.8" y="734.0" width="5.1" height="13.7" fill="#E23B3B" opacity="0.5" stroke="none"/>
  <rect x="432.9" y="734.0" width="5.1" height="10.6" fill="#E23B3B" opacity="0.5" stroke="none"/>
  <rect x="443.1" y="734.0" width="5.1" height="5.9" fill="#E23B3B" opacity="0.5" stroke="none"/>
  <rect x="453.2" y="734.0" width="5.1" height="2.3" fill="#E23B3B" opacity="0.5" stroke="none"/>
  <rect x="463.4" y="734.0" width="5.1" height="1.0" fill="#E23B3B" opacity="0.5" stroke="none"/>
  <rect x="473.5" y="732.0" width="5.1" height="2.0" fill="#4CAF50" opacity="0.5" stroke="none"/>
  <rect x="483.7" y="729.4" width="5.1" height="4.6" fill="#4CAF50" opacity="0.5" stroke="none"/>
  <rect x="493.8" y="723.5" width="5.1" height="10.5" fill="#4CAF50" opacity="0.5" stroke="none"/>
  <rect x="504.0" y="718.3" width="5.1" height="15.7" fill="#4CAF50" opacity="0.5" stroke="none"/>
  <rect x="514.2" y="712.9" width="5.1" height="21.1" fill="#4CAF50" opacity="0.5" stroke="none"/>
  <rect x="524.3" y="713.9" width="5.1" height="20.1" fill="#4CAF50" opacity="0.5" stroke="none"/>
  <rect x="534.5" y="717.3" width="5.1" height="16.7" fill="#4CAF50" opacity="0.5" stroke="none"/>
  <rect x="544.6" y="718.7" width="5.1" height="15.3" fill="#4CAF50" opacity="0.5" stroke="none"/>
  <rect x="554.8" y="723.4" width="5.1" height="10.6" fill="#4CAF50" opacity="0.5" stroke="none"/>
  <rect x="564.9" y="726.3" width="5.1" height="7.7" fill="#4CAF50" opacity="0.5" stroke="none"/>
  <rect x="575.1" y="728.5" width="5.1" height="5.5" fill="#4CAF50" opacity="0.5" stroke="none"/>
  <rect x="585.2" y="731.3" width="5.1" height="2.7" fill="#4CAF50" opacity="0.5" stroke="none"/>
  <rect x="595.4" y="732.0" width="5.1" height="2.0" fill="#4CAF50" opacity="0.5" stroke="none"/>
  <rect x="605.6" y="733.5" width="5.1" height="1.0" fill="#4CAF50" opacity="0.5" stroke="none"/>
  <rect x="615.7" y="732.4" width="5.1" height="1.6" fill="#4CAF50" opacity="0.5" stroke="none"/>
  <rect x="625.9" y="731.4" width="5.1" height="2.6" fill="#4CAF50" opacity="0.5" stroke="none"/>
  <rect x="636.0" y="733.4" width="5.1" height="1.0" fill="#4CAF50" opacity="0.5" stroke="none"/>
  <rect x="646.2" y="734.0" width="5.1" height="1.0" fill="#E23B3B" opacity="0.5" stroke="none"/>
  <rect x="656.3" y="734.0" width="5.1" height="1.1" fill="#E23B3B" opacity="0.5" stroke="none"/>
  <rect x="666.5" y="734.0" width="5.1" height="1.8" fill="#E23B3B" opacity="0.5" stroke="none"/>
  <rect x="676.6" y="732.8" width="5.1" height="1.2" fill="#4CAF50" opacity="0.5" stroke="none"/>
  <rect x="686.8" y="732.3" width="5.1" height="1.7" fill="#4CAF50" opacity="0.5" stroke="none"/>
  <rect x="697.0" y="729.4" width="5.1" height="4.6" fill="#4CAF50" opacity="0.5" stroke="none"/>
  <rect x="707.1" y="729.1" width="5.1" height="4.9" fill="#4CAF50" opacity="0.5" stroke="none"/>
  <rect x="717.3" y="729.2" width="5.1" height="4.8" fill="#4CAF50" opacity="0.5" stroke="none"/>
  <rect x="727.4" y="725.8" width="5.1" height="8.2" fill="#4CAF50" opacity="0.5" stroke="none"/>
  <rect x="737.6" y="725.2" width="5.1" height="8.8" fill="#4CAF50" opacity="0.5" stroke="none"/>
  <rect x="747.7" y="725.0" width="5.1" height="9.0" fill="#4CAF50" opacity="0.5" stroke="none"/>
  <rect x="757.9" y="724.5" width="5.1" height="9.5" fill="#4CAF50" opacity="0.5" stroke="none"/>
  <rect x="768.0" y="726.1" width="5.1" height="7.9" fill="#4CAF50" opacity="0.5" stroke="none"/>
  <rect x="778.2" y="725.7" width="5.1" height="8.3" fill="#4CAF50" opacity="0.5" stroke="none"/>
  <rect x="788.4" y="726.3" width="5.1" height="7.7" fill="#4CAF50" opacity="0.5" stroke="none"/>
  <rect x="798.5" y="726.1" width="5.1" height="7.9" fill="#4CAF50" opacity="0.5" stroke="none"/>
  <rect x="808.7" y="726.1" width="5.1" height="7.9" fill="#4CAF50" opacity="0.5" stroke="none"/>
  <rect x="818.8" y="727.7" width="5.1" height="6.3" fill="#4CAF50" opacity="0.5" stroke="none"/>
  <rect x="829.0" y="728.5" width="5.1" height="5.5" fill="#4CAF50" opacity="0.5" stroke="none"/>
  <rect x="839.1" y="730.2" width="5.1" height="3.8" fill="#4CAF50" opacity="0.5" stroke="none"/>
  <rect x="849.3" y="731.2" width="5.1" height="2.8" fill="#4CAF50" opacity="0.5" stroke="none"/>
  <rect x="859.4" y="732.9" width="5.1" height="1.1" fill="#4CAF50" opacity="0.5" stroke="none"/>
  <rect x="869.6" y="734.0" width="5.1" height="2.5" fill="#E23B3B" opacity="0.5" stroke="none"/>
  <rect x="879.8" y="734.0" width="5.1" height="8.0" fill="#E23B3B" opacity="0.5" stroke="none"/>
  <rect x="889.9" y="734.0" width="5.1" height="10.3" fill="#E23B3B" opacity="0.5" stroke="none"/>
  <rect x="900.1" y="734.0" width="5.1" height="5.0" fill="#E23B3B" opacity="0.5" stroke="none"/>
  <rect x="910.2" y="733.8" width="5.1" height="1.0" fill="#4CAF50" opacity="0.5" stroke="none"/>
  <rect x="920.4" y="731.3" width="5.1" height="2.7" fill="#4CAF50" opacity="0.5" stroke="none"/>
  <polyline points="19.1,749.5 29.2,750.3 39.4,753.8 49.5,754.9 59.7,757.3 69.9,761.2 80.0,763.9 90.2,761.6 100.3,759.5 110.5,757.7 120.6,755.7 130.8,754.9 140.9,752.2 151.1,754.7 161.3,757.3 171.4,756.5 181.6,754.0 191.7,745.9 201.9,739.6 212.0,732.1 222.2,723.8 232.3,719.8 242.5,716.4 252.7,718.6 262.8,719.6 273.0,721.5 283.1,724.4 293.3,727.3 303.4,729.8 313.6,727.7 323.7,726.3 333.9,737.4 344.1,747.4 354.2,751.3 364.4,754.9 374.5,762.3 384.7,769.5 394.8,777.4 405.0,781.8 415.1,783.1 425.3,782.1 435.5,781.7 445.6,778.4 455.8,775.4 465.9,773.7 476.1,770.8 486.2,767.0 496.4,758.5 506.5,749.3 516.7,738.7 526.9,734.6 537.0,733.9 547.2,731.4 557.3,733.5 567.5,734.4 577.6,735.3 587.8,737.4 597.9,737.6 608.1,739.0 618.3,737.5 628.4,735.8 638.6,737.7 648.7,738.6 658.9,739.8 669.0,740.8 679.2,737.6 689.3,736.6 699.5,732.6 709.7,731.1 719.8,729.9 730.0,724.5 740.1,721.7 750.3,719.3 760.4,716.4 770.6,716.0 780.7,713.5 790.9,712.2 801.1,710.0 811.2,708.0 821.4,708.1 831.5,707.5 841.7,708.2 851.8,708.5 862.0,710.0 872.1,714.2 882.3,721.6 892.5,726.5 902.6,722.4 912.8,717.3 922.9,714.1" fill="none" stroke="#5b9dff" stroke-width="1.5" stroke-linejoin="round" stroke-linecap="round"/>
  <polyline points="19.1,748.4 29.2,748.8 39.4,749.8 49.5,750.8 59.7,752.1 69.9,753.9 80.0,755.9 90.2,757.0 100.3,757.5 110.5,757.6 120.6,757.2 130.8,756.7 140.9,755.8 151.1,755.6 161.3,755.9 171.4,756.0 181.6,755.6 191.7,753.7 201.9,750.9 212.0,747.1 222.2,742.5 232.3,737.9 242.5,733.6 252.7,730.6 262.8,728.4 273.0,727.0 283.1,726.5 293.3,726.7 303.4,727.3 313.6,727.4 323.7,727.1 333.9,729.2 344.1,732.8 354.2,736.5 364.4,740.2 374.5,744.6 384.7,749.6 394.8,755.2 405.0,760.5 415.1,765.0 425.3,768.4 435.5,771.1 445.6,772.6 455.8,773.1 465.9,773.2 476.1,772.7 486.2,771.6 496.4,769.0 506.5,765.1 516.7,759.8 526.9,754.7 537.0,750.6 547.2,746.7 557.3,744.1 567.5,742.2 577.6,740.8 587.8,740.1 597.9,739.6 608.1,739.5 618.3,739.1 628.4,738.4 638.6,738.3 648.7,738.3 658.9,738.6 669.0,739.1 679.2,738.8 689.3,738.3 699.5,737.2 709.7,736.0 719.8,734.8 730.0,732.7 740.1,730.5 750.3,728.3 760.4,725.9 770.6,723.9 780.7,721.8 790.9,719.9 801.1,717.9 811.2,715.9 821.4,714.4 831.5,713.0 841.7,712.0 851.8,711.3 862.0,711.1 872.1,711.7 882.3,713.7 892.5,716.2 902.6,717.5 912.8,717.4 922.9,716.8" fill="none" stroke="#F59E0B" stroke-width="1.2" stroke-linejoin="round" stroke-linecap="round"/>
  <text x="936" y="718.1" fill="#4CAF50" font-size="9" font-family="monospace">2.594</text>
  <!-- header (rendered last so it sits on top) -->
  <rect x="0" y="0" width="1000" height="64" fill="#0A1020" opacity="0.9"/>
  <rect x="8.00" y="15.00" width="34.00" height="34.00" rx="8.93" fill="url(#mbTile_2600444182)"/><rect x="8.00" y="15.00" width="34.00" height="34.00" rx="8.93" fill="url(#mbGlow_2600444182)"/><rect x="8.00" y="15.00" width="34.00" height="34.00" rx="8.93" fill="url(#mbSheen_2600444182)"/><path d="M17.35,38.03 L17.35,26.56 L23.30,32.94 L29.25,24.86 L29.25,38.03" fill="none" stroke="#15205a" stroke-opacity=".30" stroke-width="2.80" stroke-linecap="round" stroke-linejoin="round"/><path d="M17.35,37.10 L17.35,25.62 L23.30,32.00 L29.25,23.92 L29.25,37.10" fill="none" stroke="url(#mbInk_2600444182)" stroke-width="2.80" stroke-linecap="round" stroke-linejoin="round"/>
  <text x="50.0" y="39.0" fill="#ffffff" font-size="20" font-weight="900" font-family="sans-serif" letter-spacing="0.07em">MASTERMIND</text>
  <text x="924.0" y="30.0" fill="#ffffff" font-size="26" font-weight="bold" text-anchor="end" font-family="sans-serif">SHOP</text><text x="924.0" y="48.0" fill="#8899bb" font-size="13" text-anchor="end" letter-spacing="1" font-family="sans-serif">DAILY</text>
  <!-- footer -->
  <rect x="0" y="834" width="1000" height="46" fill="#0A1020" opacity="0.94"/><rect x="0" y="834" width="1000" height="1.5" fill="url(#bb_laser_2600444182)"/><rect x="14.00" y="848.00" width="18.00" height="18.00" rx="4.73" fill="url(#mbTile_2600444182bb)"/><rect x="14.00" y="848.00" width="18.00" height="18.00" rx="4.73" fill="url(#mbGlow_2600444182bb)"/><rect x="14.00" y="848.00" width="18.00" height="18.00" rx="4.73" fill="url(#mbSheen_2600444182bb)"/><path d="M18.95,860.20 L18.95,854.12 L22.10,857.50 L25.25,853.22 L25.25,860.20" fill="none" stroke="#15205a" stroke-opacity=".30" stroke-width="1.48" stroke-linecap="round" stroke-linejoin="round"/><path d="M18.95,859.70 L18.95,853.62 L22.10,857.00 L25.25,852.73 L25.25,859.70" fill="none" stroke="url(#mbInk_2600444182bb)" stroke-width="1.48" stroke-linecap="round" stroke-linejoin="round"/><text x="41.0" y="862.0" fill="#ffffff" font-size="15" font-weight="800" font-family="sans-serif" letter-spacing="0.3">mastermind-x.com</text><circle cx="204.0" cy="857.0" r="1.5" fill="#3a4466"/><text x="215.0" y="861.0" fill="#93a7cc" font-size="11" font-weight="700" font-family="sans-serif" letter-spacing="1.4">AI STOCK SIGNALS</text><circle cx="376.4" cy="857.0" r="1.5" fill="#3a4466"/><text x="387.4" y="861.0" fill="#8899bb" font-size="11" font-family="sans-serif" letter-spacing="0.2">Daily stock signals</text><text x="986.0" y="860.0" fill="#3a4466" font-size="9" text-anchor="end" font-family="sans-serif">© 2026 Mastermind</text>
</svg>