<svg viewBox="0 0 1000 880" xmlns="http://www.w3.org/2000/svg" width="1000" height="880">
  <defs><marker id="arrowhead_1931640084" markerWidth="8" markerHeight="6" refX="4" refY="3" orient="auto"><polygon points="0 0, 8 3, 0 6" fill="#4CAF50"/></marker><linearGradient id="mbTile_1931640084" x1="0" y1="0" x2="1" y2="1" gradientUnits="objectBoundingBox"><stop offset="0" stop-color="#5b9dff"/><stop offset=".42" stop-color="#3b82f6"/><stop offset=".74" stop-color="#6366f1"/><stop offset="1" stop-color="#7c5cff"/></linearGradient><linearGradient id="mbSheen_1931640084" x1="0" y1="0" x2="0" y2="1" gradientUnits="objectBoundingBox"><stop offset="0" stop-color="#ffffff" stop-opacity=".34"/><stop offset=".55" stop-color="#ffffff" stop-opacity="0"/></linearGradient><radialGradient id="mbGlow_1931640084" cx=".5" cy=".4" r=".65" gradientUnits="objectBoundingBox"><stop offset="0" stop-color="#ffffff" stop-opacity=".22"/><stop offset="1" stop-color="#ffffff" stop-opacity="0"/></radialGradient><linearGradient id="mbInk_1931640084" x1="0" y1="0" x2="0" y2="1" gradientUnits="objectBoundingBox"><stop offset="0" stop-color="#ffffff"/><stop offset="1" stop-color="#dbe7ff"/></linearGradient><linearGradient id="bb_laser_1931640084" x1="0" y1="0" x2="1" y2="0"><stop offset="0" stop-color="#5b9dff"/><stop offset="0.35" stop-color="#6366f1"/><stop offset="0.6" stop-color="#7c5cff"/><stop offset="0.92" stop-color="#7c5cff" stop-opacity="0"/></linearGradient><linearGradient id="bb_btn_1931640084" x1="0" y1="0" x2="1" y2="0"><stop offset="0" stop-color="#3b82f6"/><stop offset="1" stop-color="#7c5cff"/></linearGradient><linearGradient id="bb_btnsheen_1931640084" x1="0" y1="0" x2="0" y2="1"><stop offset="0" stop-color="#ffffff" stop-opacity="0.18"/><stop offset="0.55" stop-color="#ffffff" stop-opacity="0.02"/><stop offset="1" stop-color="#ffffff" stop-opacity="0"/></linearGradient><linearGradient id="mbTile_1931640084bb" x1="0" y1="0" x2="1" y2="1" gradientUnits="objectBoundingBox"><stop offset="0" stop-color="#5b9dff"/><stop offset=".42" stop-color="#3b82f6"/><stop offset=".74" stop-color="#6366f1"/><stop offset="1" stop-color="#7c5cff"/></linearGradient><linearGradient id="mbSheen_1931640084bb" x1="0" y1="0" x2="0" y2="1" gradientUnits="objectBoundingBox"><stop offset="0" stop-color="#ffffff" stop-opacity=".34"/><stop offset=".55" stop-color="#ffffff" stop-opacity="0"/></linearGradient><radialGradient id="mbGlow_1931640084bb" cx=".5" cy=".4" r=".65" gradientUnits="objectBoundingBox"><stop offset="0" stop-color="#ffffff" stop-opacity=".22"/><stop offset="1" stop-color="#ffffff" stop-opacity="0"/></radialGradient><linearGradient id="mbInk_1931640084bb" x1="0" y1="0" x2="0" y2="1" gradientUnits="objectBoundingBox"><stop offset="0" stop-color="#ffffff"/><stop offset="1" stop-color="#dbe7ff"/></linearGradient></defs>
  <!-- background -->
  <rect width="1000" height="880" fill="#0E1420"/>
  <!-- ghost watermark -->
  <text x="471.0" y="377.4" fill="#ffffff" fill-opacity="0.04" font-size="90" font-weight="bold" text-anchor="middle" dominant-baseline="middle">MWA</text>
  <!-- company logo overlay -->
  
  <!-- embedded volume (paneless, under candles) -->
  <rect x="16.5" y="533.8" width="5.1" height="90.2" fill="#E23B3B" opacity="0.28" stroke="none"/>
  <rect x="26.7" y="594.9" width="5.1" height="29.1" fill="#E23B3B" opacity="0.28" stroke="none"/>
  <rect x="36.8" y="587.6" width="5.1" height="36.4" fill="#4CAF50" opacity="0.28" stroke="none"/>
  <rect x="47.0" y="605.2" width="5.1" height="18.8" fill="#E23B3B" opacity="0.28" stroke="none"/>
  <rect x="57.2" y="609.3" width="5.1" height="14.7" fill="#E23B3B" opacity="0.28" stroke="none"/>
  <rect x="67.3" y="595.6" width="5.1" height="28.4" fill="#E23B3B" opacity="0.28" stroke="none"/>
  <rect x="77.5" y="594.8" width="5.1" height="29.2" fill="#E23B3B" opacity="0.28" stroke="none"/>
  <rect x="87.6" y="600.6" width="5.1" height="23.4" fill="#4CAF50" opacity="0.28" stroke="none"/>
  <rect x="97.8" y="606.0" width="5.1" height="18.0" fill="#4CAF50" opacity="0.28" stroke="none"/>
  <rect x="107.9" y="610.9" width="5.1" height="13.1" fill="#4CAF50" opacity="0.28" stroke="none"/>
  <rect x="118.1" y="608.8" width="5.1" height="15.2" fill="#4CAF50" opacity="0.28" stroke="none"/>
  <rect x="128.2" y="603.0" width="5.1" height="21.0" fill="#4CAF50" opacity="0.28" stroke="none"/>
  <rect x="138.4" y="595.6" width="5.1" height="28.4" fill="#4CAF50" opacity="0.28" stroke="none"/>
  <rect x="148.6" y="603.8" width="5.1" height="20.2" fill="#4CAF50" opacity="0.28" stroke="none"/>
  <rect x="158.7" y="605.4" width="5.1" height="18.6" fill="#E23B3B" opacity="0.28" stroke="none"/>
  <rect x="168.9" y="598.1" width="5.1" height="25.9" fill="#4CAF50" opacity="0.28" stroke="none"/>
  <rect x="179.0" y="594.7" width="5.1" height="29.3" fill="#E23B3B" opacity="0.28" stroke="none"/>
  <rect x="189.2" y="598.5" width="5.1" height="25.5" fill="#E23B3B" opacity="0.28" stroke="none"/>
  <rect x="199.3" y="602.3" width="5.1" height="21.7" fill="#E23B3B" opacity="0.28" stroke="none"/>
  <rect x="209.5" y="514.4" width="5.1" height="109.6" fill="#4CAF50" opacity="0.28" stroke="none"/>
  <rect x="219.6" y="581.9" width="5.1" height="42.1" fill="#E23B3B" opacity="0.28" stroke="none"/>
  <rect x="229.8" y="587.4" width="5.1" height="36.6" fill="#4CAF50" opacity="0.28" stroke="none"/>
  <rect x="240.0" y="599.3" width="5.1" height="24.7" fill="#E23B3B" opacity="0.28" stroke="none"/>
  <rect x="250.1" y="605.6" width="5.1" height="18.4" fill="#4CAF50" opacity="0.28" stroke="none"/>
  <rect x="260.3" y="548.0" width="5.1" height="76.0" fill="#4CAF50" opacity="0.28" stroke="none"/>
  <rect x="270.4" y="600.4" width="5.1" height="23.6" fill="#4CAF50" opacity="0.28" stroke="none"/>
  <rect x="280.6" y="609.9" width="5.1" height="14.1" fill="#E23B3B" opacity="0.28" stroke="none"/>
  <rect x="290.7" y="595.1" width="5.1" height="28.9" fill="#E23B3B" opacity="0.28" stroke="none"/>
  <rect x="300.9" y="601.7" width="5.1" height="22.3" fill="#4CAF50" opacity="0.28" stroke="none"/>
  <rect x="311.0" y="598.6" width="5.1" height="25.4" fill="#E23B3B" opacity="0.28" stroke="none"/>
  <rect x="321.2" y="601.4" width="5.1" height="22.6" fill="#E23B3B" opacity="0.28" stroke="none"/>
  <rect x="331.4" y="603.5" width="5.1" height="20.5" fill="#4CAF50" opacity="0.28" stroke="none"/>
  <rect x="341.5" y="582.7" width="5.1" height="41.3" fill="#E23B3B" opacity="0.28" stroke="none"/>
  <rect x="351.7" y="585.1" width="5.1" height="38.9" fill="#E23B3B" opacity="0.28" stroke="none"/>
  <rect x="361.8" y="602.2" width="5.1" height="21.8" fill="#E23B3B" opacity="0.28" stroke="none"/>
  <rect x="372.0" y="606.1" width="5.1" height="17.9" fill="#E23B3B" opacity="0.28" stroke="none"/>
  <rect x="382.1" y="596.0" width="5.1" height="28.0" fill="#E23B3B" opacity="0.28" stroke="none"/>
  <rect x="392.3" y="600.3" width="5.1" height="23.7" fill="#4CAF50" opacity="0.28" stroke="none"/>
  <rect x="402.4" y="595.5" width="5.1" height="28.5" fill="#4CAF50" opacity="0.28" stroke="none"/>
  <rect x="412.6" y="581.7" width="5.1" height="42.3" fill="#E23B3B" opacity="0.28" stroke="none"/>
  <rect x="422.8" y="591.1" width="5.1" height="32.9" fill="#4CAF50" opacity="0.28" stroke="none"/>
  <rect x="432.9" y="604.2" width="5.1" height="19.8" fill="#E23B3B" opacity="0.28" stroke="none"/>
  <rect x="443.1" y="594.9" width="5.1" height="29.1" fill="#4CAF50" opacity="0.28" stroke="none"/>
  <rect x="453.2" y="589.7" width="5.1" height="34.3" fill="#E23B3B" opacity="0.28" stroke="none"/>
  <rect x="463.4" y="599.1" width="5.1" height="24.9" fill="#4CAF50" opacity="0.28" stroke="none"/>
  <rect x="473.5" y="601.3" width="5.1" height="22.7" fill="#4CAF50" opacity="0.28" stroke="none"/>
  <rect x="483.7" y="587.6" width="5.1" height="36.4" fill="#E23B3B" opacity="0.28" stroke="none"/>
  <rect x="493.8" y="591.9" width="5.1" height="32.1" fill="#E23B3B" opacity="0.28" stroke="none"/>
  <rect x="504.0" y="593.3" width="5.1" height="30.7" fill="#E23B3B" opacity="0.28" stroke="none"/>
  <rect x="514.2" y="581.9" width="5.1" height="42.1" fill="#E23B3B" opacity="0.28" stroke="none"/>
  <rect x="524.3" y="597.4" width="5.1" height="26.6" fill="#4CAF50" opacity="0.28" stroke="none"/>
  <rect x="534.5" y="597.5" width="5.1" height="26.5" fill="#4CAF50" opacity="0.28" stroke="none"/>
  <rect x="544.6" y="589.8" width="5.1" height="34.2" fill="#E23B3B" opacity="0.28" stroke="none"/>
  <rect x="554.8" y="601.8" width="5.1" height="22.2" fill="#4CAF50" opacity="0.28" stroke="none"/>
  <rect x="564.9" y="596.6" width="5.1" height="27.4" fill="#4CAF50" opacity="0.28" stroke="none"/>
  <rect x="575.1" y="596.4" width="5.1" height="27.6" fill="#4CAF50" opacity="0.28" stroke="none"/>
  <rect x="585.2" y="588.8" width="5.1" height="35.2" fill="#E23B3B" opacity="0.28" stroke="none"/>
  <rect x="595.4" y="603.5" width="5.1" height="20.5" fill="#E23B3B" opacity="0.28" stroke="none"/>
  <rect x="605.6" y="605.4" width="5.1" height="18.6" fill="#E23B3B" opacity="0.28" stroke="none"/>
  <rect x="615.7" y="603.1" width="5.1" height="20.9" fill="#E23B3B" opacity="0.28" stroke="none"/>
  <rect x="625.9" y="600.3" width="5.1" height="23.7" fill="#4CAF50" opacity="0.28" stroke="none"/>
  <rect x="636.0" y="601.1" width="5.1" height="22.9" fill="#E23B3B" opacity="0.28" stroke="none"/>
  <rect x="646.2" y="551.6" width="5.1" height="72.4" fill="#4CAF50" opacity="0.28" stroke="none"/>
  <rect x="656.3" y="597.3" width="5.1" height="26.7" fill="#4CAF50" opacity="0.28" stroke="none"/>
  <rect x="666.5" y="604.4" width="5.1" height="19.6" fill="#E23B3B" opacity="0.28" stroke="none"/>
  <rect x="676.6" y="582.5" width="5.1" height="41.5" fill="#4CAF50" opacity="0.28" stroke="none"/>
  <rect x="686.8" y="596.9" width="5.1" height="27.1" fill="#4CAF50" opacity="0.28" stroke="none"/>
  <rect x="697.0" y="538.1" width="5.1" height="85.9" fill="#E23B3B" opacity="0.28" stroke="none"/>
  <rect x="707.1" y="589.8" width="5.1" height="34.2" fill="#E23B3B" opacity="0.28" stroke="none"/>
  <rect x="717.3" y="595.5" width="5.1" height="28.5" fill="#4CAF50" opacity="0.28" stroke="none"/>
  <rect x="727.4" y="601.4" width="5.1" height="22.6" fill="#E23B3B" opacity="0.28" stroke="none"/>
  <rect x="737.6" y="601.4" width="5.1" height="22.6" fill="#E23B3B" opacity="0.28" stroke="none"/>
  <rect x="747.7" y="591.8" width="5.1" height="32.2" fill="#4CAF50" opacity="0.28" stroke="none"/>
  <rect x="757.9" y="594.6" width="5.1" height="29.4" fill="#E23B3B" opacity="0.28" stroke="none"/>
  <rect x="768.0" y="595.9" width="5.1" height="28.1" fill="#E23B3B" opacity="0.28" stroke="none"/>
  <rect x="778.2" y="597.2" width="5.1" height="26.8" fill="#E23B3B" opacity="0.28" stroke="none"/>
  <rect x="788.4" y="604.5" width="5.1" height="19.5" fill="#4CAF50" opacity="0.28" stroke="none"/>
  <rect x="798.5" y="593.6" width="5.1" height="30.4" fill="#E23B3B" opacity="0.28" stroke="none"/>
  <rect x="808.7" y="602.0" width="5.1" height="22.0" fill="#E23B3B" opacity="0.28" stroke="none"/>
  <rect x="818.8" y="599.7" width="5.1" height="24.3" fill="#4CAF50" opacity="0.28" stroke="none"/>
  <rect x="829.0" y="595.6" width="5.1" height="28.4" fill="#4CAF50" opacity="0.28" stroke="none"/>
  <rect x="839.1" y="577.4" width="5.1" height="46.6" fill="#E23B3B" opacity="0.28" stroke="none"/>
  <rect x="849.3" y="607.1" width="5.1" height="16.9" fill="#E23B3B" opacity="0.28" stroke="none"/>
  <rect x="859.4" y="600.0" width="5.1" height="24.0" fill="#E23B3B" opacity="0.28" stroke="none"/>
  <rect x="869.6" y="602.4" width="5.1" height="21.6" fill="#4CAF50" opacity="0.28" stroke="none"/>
  <rect x="879.8" y="600.7" width="5.1" height="23.3" fill="#4CAF50" opacity="0.28" stroke="none"/>
  <rect x="889.9" y="601.6" width="5.1" height="22.4" fill="#E23B3B" opacity="0.28" stroke="none"/>
  <rect x="900.1" y="597.4" width="5.1" height="26.6" fill="#E23B3B" opacity="0.28" stroke="none"/>
  <rect x="910.2" y="600.5" width="5.1" height="23.5" fill="#4CAF50" opacity="0.28" stroke="none"/>
  <rect x="920.4" y="599.7" width="5.1" height="24.3" fill="#E23B3B" opacity="0.28" stroke="none"/>
  <!-- SMA overlays -->
  <polyline points="19.1,314.2 29.2,309.8 39.4,305.4 49.5,300.9 59.7,297.1 69.9,295.1 80.0,294.3 90.2,292.5 100.3,289.4 110.5,287.9 120.6,286.4 130.8,284.4 140.9,281.2 151.1,276.3 161.3,271.8 171.4,266.8 181.6,262.1 191.7,260.1 201.9,258.6 212.0,256.2 222.2,256.7 232.3,258.7 242.5,261.4 252.7,263.4 262.8,265.3 273.0,267.6 283.1,270.6 293.3,274.2 303.4,277.2 313.6,280.7 323.7,284.7 333.9,287.8 344.1,291.9 354.2,296.3 364.4,301.9 374.5,307.8 384.7,314.1 394.8,319.8 405.0,325.1 415.1,330.0 425.3,333.2 435.5,337.5 445.6,341.3 455.8,345.7 465.9,349.0 476.1,351.8 486.2,354.7 496.4,358.0 506.5,361.1 516.7,365.3 526.9,368.4 537.0,372.3 547.2,376.8 557.3,380.9 567.5,384.4 577.6,385.7 587.8,387.4 597.9,390.1 608.1,393.3 618.3,395.9 628.4,398.1 638.6,401.3 648.7,405.5 658.9,411.7 669.0,417.6 679.2,423.6 689.3,428.2 699.5,431.8 709.7,435.2 719.8,439.9 730.0,443.4 740.1,447.4 750.3,450.9 760.4,455.2 770.6,460.1 780.7,465.1 790.9,469.8 801.1,474.3 811.2,478.9 821.4,482.5 831.5,484.3 841.7,487.3 851.8,490.3 862.0,493.2 872.1,495.3 882.3,496.7 892.5,497.2 902.6,497.6 912.8,497.6 922.9,498.1" fill="none" stroke="#F59E0B" stroke-width="1.2" opacity="0.8" stroke-dasharray="4,2"/>
  <!-- M2 overlays: AVWAP + POC (over SMA, under candles) -->
  
  <!-- candlesticks -->
  <line x1="19.1" y1="346.1" x2="19.1" y2="380.1" stroke="#E23B3B" stroke-width="1"/>
  <rect x="16.5" y="346.1" width="5.1" height="24.4" fill="#E23B3B" stroke="none"/>
  <line x1="29.2" y1="279.6" x2="29.2" y2="327.6" stroke="#E23B3B" stroke-width="1"/>
  <rect x="26.7" y="310.6" width="5.1" height="9.6" fill="#E23B3B" stroke="none"/>
  <line x1="39.4" y1="287.0" x2="39.4" y2="344.6" stroke="#4CAF50" stroke-width="1"/>
  <rect x="36.8" y="298.8" width="5.1" height="34.0" fill="#4CAF50" stroke="none"/>
  <line x1="49.5" y1="272.9" x2="49.5" y2="336.5" stroke="#E23B3B" stroke-width="1"/>
  <rect x="47.0" y="278.9" width="5.1" height="17.7" fill="#E23B3B" stroke="none"/>
  <line x1="59.7" y1="291.4" x2="59.7" y2="335.8" stroke="#E23B3B" stroke-width="1"/>
  <rect x="57.2" y="312.8" width="5.1" height="14.8" fill="#E23B3B" stroke="none"/>
  <line x1="69.9" y1="335.8" x2="69.9" y2="391.9" stroke="#E23B3B" stroke-width="1"/>
  <rect x="67.3" y="344.6" width="5.1" height="39.2" fill="#E23B3B" stroke="none"/>
  <line x1="80.0" y1="362.4" x2="80.0" y2="407.4" stroke="#E23B3B" stroke-width="1"/>
  <rect x="77.5" y="362.4" width="5.1" height="35.5" fill="#E23B3B" stroke="none"/>
  <line x1="90.2" y1="332.1" x2="90.2" y2="392.6" stroke="#4CAF50" stroke-width="1"/>
  <rect x="87.6" y="350.5" width="5.1" height="20.7" fill="#4CAF50" stroke="none"/>
  <line x1="100.3" y1="295.1" x2="100.3" y2="343.9" stroke="#4CAF50" stroke-width="1"/>
  <rect x="97.8" y="308.4" width="5.1" height="28.8" fill="#4CAF50" stroke="none"/>
  <line x1="110.5" y1="302.5" x2="110.5" y2="372.7" stroke="#4CAF50" stroke-width="1"/>
  <rect x="107.9" y="338.7" width="5.1" height="8.9" fill="#4CAF50" stroke="none"/>
  <line x1="120.6" y1="323.2" x2="120.6" y2="360.1" stroke="#4CAF50" stroke-width="1"/>
  <rect x="118.1" y="331.3" width="5.1" height="11.8" fill="#4CAF50" stroke="none"/>
  <line x1="130.8" y1="296.6" x2="130.8" y2="349.8" stroke="#4CAF50" stroke-width="1"/>
  <rect x="128.2" y="318.8" width="5.1" height="11.1" fill="#4CAF50" stroke="none"/>
  <line x1="140.9" y1="210.1" x2="140.9" y2="251.5" stroke="#4CAF50" stroke-width="1"/>
  <rect x="138.4" y="236.0" width="5.1" height="1.5" fill="#4CAF50" stroke="none"/>
  <line x1="151.1" y1="141.4" x2="151.1" y2="245.6" stroke="#4CAF50" stroke-width="1"/>
  <rect x="148.6" y="155.5" width="5.1" height="90.1" fill="#4CAF50" stroke="none"/>
  <line x1="161.3" y1="153.2" x2="161.3" y2="191.7" stroke="#E23B3B" stroke-width="1"/>
  <rect x="158.7" y="155.5" width="5.1" height="32.5" fill="#E23B3B" stroke="none"/>
  <line x1="171.4" y1="129.6" x2="171.4" y2="209.4" stroke="#4CAF50" stroke-width="1"/>
  <rect x="168.9" y="137.7" width="5.1" height="42.1" fill="#4CAF50" stroke="none"/>
  <line x1="181.6" y1="109.6" x2="181.6" y2="156.2" stroke="#E23B3B" stroke-width="1"/>
  <rect x="179.0" y="137.7" width="5.1" height="13.3" fill="#E23B3B" stroke="none"/>
  <line x1="191.7" y1="163.6" x2="191.7" y2="240.4" stroke="#E23B3B" stroke-width="1"/>
  <rect x="189.2" y="163.6" width="5.1" height="61.3" fill="#E23B3B" stroke="none"/>
  <line x1="201.9" y1="209.4" x2="201.9" y2="284.8" stroke="#E23B3B" stroke-width="1"/>
  <rect x="199.3" y="228.6" width="5.1" height="47.3" fill="#E23B3B" stroke="none"/>
  <line x1="212.0" y1="202.0" x2="212.0" y2="258.2" stroke="#4CAF50" stroke-width="1"/>
  <rect x="209.5" y="233.8" width="5.1" height="22.2" fill="#4CAF50" stroke="none"/>
  <line x1="222.2" y1="250.8" x2="222.2" y2="362.4" stroke="#E23B3B" stroke-width="1"/>
  <rect x="219.6" y="256.7" width="5.1" height="90.9" fill="#E23B3B" stroke="none"/>
  <line x1="232.3" y1="326.9" x2="232.3" y2="361.6" stroke="#4CAF50" stroke-width="1"/>
  <rect x="229.8" y="333.5" width="5.1" height="15.5" fill="#4CAF50" stroke="none"/>
  <line x1="242.5" y1="306.9" x2="242.5" y2="348.3" stroke="#E23B3B" stroke-width="1"/>
  <rect x="240.0" y="321.0" width="5.1" height="7.4" fill="#E23B3B" stroke="none"/>
  <line x1="252.7" y1="297.3" x2="252.7" y2="332.1" stroke="#4CAF50" stroke-width="1"/>
  <rect x="250.1" y="306.2" width="5.1" height="14.0" fill="#4CAF50" stroke="none"/>
  <line x1="262.8" y1="298.1" x2="262.8" y2="329.1" stroke="#4CAF50" stroke-width="1"/>
  <rect x="260.3" y="300.3" width="5.1" height="10.3" fill="#4CAF50" stroke="none"/>
  <line x1="273.0" y1="278.9" x2="273.0" y2="318.8" stroke="#4CAF50" stroke-width="1"/>
  <rect x="270.4" y="287.0" width="5.1" height="9.6" fill="#4CAF50" stroke="none"/>
  <line x1="283.1" y1="275.9" x2="283.1" y2="329.1" stroke="#E23B3B" stroke-width="1"/>
  <rect x="280.6" y="279.6" width="5.1" height="24.4" fill="#E23B3B" stroke="none"/>
  <line x1="293.3" y1="302.5" x2="293.3" y2="347.6" stroke="#E23B3B" stroke-width="1"/>
  <rect x="290.7" y="307.7" width="5.1" height="27.3" fill="#E23B3B" stroke="none"/>
  <line x1="303.4" y1="317.3" x2="303.4" y2="357.9" stroke="#4CAF50" stroke-width="1"/>
  <rect x="300.9" y="321.0" width="5.1" height="20.7" fill="#4CAF50" stroke="none"/>
  <line x1="313.6" y1="312.1" x2="313.6" y2="364.6" stroke="#E23B3B" stroke-width="1"/>
  <rect x="311.0" y="312.1" width="5.1" height="45.8" fill="#E23B3B" stroke="none"/>
  <line x1="323.7" y1="341.7" x2="323.7" y2="389.7" stroke="#E23B3B" stroke-width="1"/>
  <rect x="321.2" y="365.3" width="5.1" height="4.4" fill="#E23B3B" stroke="none"/>
  <line x1="333.9" y1="324.7" x2="333.9" y2="360.9" stroke="#4CAF50" stroke-width="1"/>
  <rect x="331.4" y="346.1" width="5.1" height="6.7" fill="#4CAF50" stroke="none"/>
  <line x1="344.1" y1="301.0" x2="344.1" y2="408.2" stroke="#E23B3B" stroke-width="1"/>
  <rect x="341.5" y="374.2" width="5.1" height="2.2" fill="#E23B3B" stroke="none"/>
  <line x1="354.2" y1="327.6" x2="354.2" y2="397.8" stroke="#E23B3B" stroke-width="1"/>
  <rect x="351.7" y="356.4" width="5.1" height="38.4" fill="#E23B3B" stroke="none"/>
  <line x1="364.4" y1="369.7" x2="364.4" y2="434.8" stroke="#E23B3B" stroke-width="1"/>
  <rect x="361.8" y="383.0" width="5.1" height="50.2" fill="#E23B3B" stroke="none"/>
  <line x1="374.5" y1="421.4" x2="374.5" y2="467.4" stroke="#E23B3B" stroke-width="1"/>
  <rect x="372.0" y="421.4" width="5.1" height="45.2" fill="#E23B3B" stroke="none"/>
  <line x1="384.7" y1="457.0" x2="384.7" y2="508.1" stroke="#E23B3B" stroke-width="1"/>
  <rect x="382.1" y="463.7" width="5.1" height="39.3" fill="#E23B3B" stroke="none"/>
  <line x1="394.8" y1="491.1" x2="394.8" y2="522.2" stroke="#4CAF50" stroke-width="1"/>
  <rect x="392.3" y="497.0" width="5.1" height="7.4" fill="#4CAF50" stroke="none"/>
  <line x1="405.0" y1="458.5" x2="405.0" y2="494.8" stroke="#4CAF50" stroke-width="1"/>
  <rect x="402.4" y="465.9" width="5.1" height="14.8" fill="#4CAF50" stroke="none"/>
  <line x1="415.1" y1="451.1" x2="415.1" y2="497.7" stroke="#E23B3B" stroke-width="1"/>
  <rect x="412.6" y="474.8" width="5.1" height="17.0" fill="#E23B3B" stroke="none"/>
  <line x1="425.3" y1="459.2" x2="425.3" y2="491.1" stroke="#4CAF50" stroke-width="1"/>
  <rect x="422.8" y="476.3" width="5.1" height="10.4" fill="#4CAF50" stroke="none"/>
  <line x1="435.5" y1="466.6" x2="435.5" y2="531.1" stroke="#E23B3B" stroke-width="1"/>
  <rect x="432.9" y="477.0" width="5.1" height="52.6" fill="#E23B3B" stroke="none"/>
  <line x1="445.6" y1="488.1" x2="445.6" y2="543.7" stroke="#4CAF50" stroke-width="1"/>
  <rect x="443.1" y="497.7" width="5.1" height="29.6" fill="#4CAF50" stroke="none"/>
  <line x1="455.8" y1="495.5" x2="455.8" y2="534.8" stroke="#E23B3B" stroke-width="1"/>
  <rect x="453.2" y="516.3" width="5.1" height="4.4" fill="#E23B3B" stroke="none"/>
  <line x1="465.9" y1="497.7" x2="465.9" y2="533.3" stroke="#4CAF50" stroke-width="1"/>
  <rect x="463.4" y="506.6" width="5.1" height="1.5" fill="#4CAF50" stroke="none"/>
  <line x1="476.1" y1="470.3" x2="476.1" y2="503.7" stroke="#4CAF50" stroke-width="1"/>
  <rect x="473.5" y="471.8" width="5.1" height="11.9" fill="#4CAF50" stroke="none"/>
  <line x1="486.2" y1="456.3" x2="486.2" y2="488.1" stroke="#E23B3B" stroke-width="1"/>
  <rect x="483.7" y="461.4" width="5.1" height="18.5" fill="#E23B3B" stroke="none"/>
  <line x1="496.4" y1="474.8" x2="496.4" y2="524.4" stroke="#E23B3B" stroke-width="1"/>
  <rect x="493.8" y="493.3" width="5.1" height="9.6" fill="#E23B3B" stroke="none"/>
  <line x1="506.5" y1="484.4" x2="506.5" y2="516.3" stroke="#E23B3B" stroke-width="1"/>
  <rect x="504.0" y="505.9" width="5.1" height="8.1" fill="#E23B3B" stroke="none"/>
  <line x1="516.7" y1="533.3" x2="516.7" y2="590.4" stroke="#E23B3B" stroke-width="1"/>
  <rect x="514.2" y="533.3" width="5.1" height="20.7" fill="#E23B3B" stroke="none"/>
  <line x1="526.9" y1="521.5" x2="526.9" y2="555.5" stroke="#4CAF50" stroke-width="1"/>
  <rect x="524.3" y="523.7" width="5.1" height="25.9" fill="#4CAF50" stroke="none"/>
  <line x1="537.0" y1="514.8" x2="537.0" y2="540.7" stroke="#4CAF50" stroke-width="1"/>
  <rect x="534.5" y="516.3" width="5.1" height="9.6" fill="#4CAF50" stroke="none"/>
  <line x1="547.2" y1="496.3" x2="547.2" y2="530.3" stroke="#E23B3B" stroke-width="1"/>
  <rect x="544.6" y="497.0" width="5.1" height="25.9" fill="#E23B3B" stroke="none"/>
  <line x1="557.3" y1="482.9" x2="557.3" y2="520.0" stroke="#4CAF50" stroke-width="1"/>
  <rect x="554.8" y="505.2" width="5.1" height="13.3" fill="#4CAF50" stroke="none"/>
  <line x1="567.5" y1="477.0" x2="567.5" y2="505.2" stroke="#4CAF50" stroke-width="1"/>
  <rect x="564.9" y="502.2" width="5.1" height="1.5" fill="#4CAF50" stroke="none"/>
  <line x1="577.6" y1="434.0" x2="577.6" y2="481.4" stroke="#4CAF50" stroke-width="1"/>
  <rect x="575.1" y="446.6" width="5.1" height="34.1" fill="#4CAF50" stroke="none"/>
  <line x1="587.8" y1="431.1" x2="587.8" y2="492.6" stroke="#E23B3B" stroke-width="1"/>
  <rect x="585.2" y="445.1" width="5.1" height="37.8" fill="#E23B3B" stroke="none"/>
  <line x1="597.9" y1="459.2" x2="597.9" y2="502.9" stroke="#E23B3B" stroke-width="1"/>
  <rect x="595.4" y="474.0" width="5.1" height="9.6" fill="#E23B3B" stroke="none"/>
  <line x1="608.1" y1="445.9" x2="608.1" y2="477.0" stroke="#E23B3B" stroke-width="1"/>
  <rect x="605.6" y="455.5" width="5.1" height="13.3" fill="#E23B3B" stroke="none"/>
  <line x1="618.3" y1="428.8" x2="618.3" y2="474.0" stroke="#E23B3B" stroke-width="1"/>
  <rect x="615.7" y="442.2" width="5.1" height="28.9" fill="#E23B3B" stroke="none"/>
  <line x1="628.4" y1="431.1" x2="628.4" y2="454.0" stroke="#4CAF50" stroke-width="1"/>
  <rect x="625.9" y="438.5" width="5.1" height="15.6" fill="#4CAF50" stroke="none"/>
  <line x1="638.6" y1="422.9" x2="638.6" y2="495.5" stroke="#E23B3B" stroke-width="1"/>
  <rect x="636.0" y="448.1" width="5.1" height="33.3" fill="#E23B3B" stroke="none"/>
  <line x1="648.7" y1="432.5" x2="648.7" y2="474.0" stroke="#4CAF50" stroke-width="1"/>
  <rect x="646.2" y="445.9" width="5.1" height="9.6" fill="#4CAF50" stroke="none"/>
  <line x1="658.9" y1="448.1" x2="658.9" y2="478.5" stroke="#4CAF50" stroke-width="1"/>
  <rect x="656.3" y="463.7" width="5.1" height="1.5" fill="#4CAF50" stroke="none"/>
  <line x1="669.0" y1="453.3" x2="669.0" y2="499.2" stroke="#E23B3B" stroke-width="1"/>
  <rect x="666.5" y="477.7" width="5.1" height="5.2" fill="#E23B3B" stroke="none"/>
  <line x1="679.2" y1="395.5" x2="679.2" y2="485.9" stroke="#4CAF50" stroke-width="1"/>
  <rect x="676.6" y="438.5" width="5.1" height="38.5" fill="#4CAF50" stroke="none"/>
  <line x1="689.3" y1="351.1" x2="689.3" y2="432.5" stroke="#4CAF50" stroke-width="1"/>
  <rect x="686.8" y="382.9" width="5.1" height="38.5" fill="#4CAF50" stroke="none"/>
  <line x1="699.5" y1="380.7" x2="699.5" y2="408.1" stroke="#E23B3B" stroke-width="1"/>
  <rect x="697.0" y="380.7" width="5.1" height="23.0" fill="#E23B3B" stroke="none"/>
  <line x1="709.7" y1="403.7" x2="709.7" y2="448.8" stroke="#E23B3B" stroke-width="1"/>
  <rect x="707.1" y="428.1" width="5.1" height="20.0" fill="#E23B3B" stroke="none"/>
  <line x1="719.8" y1="460.0" x2="719.8" y2="492.6" stroke="#4CAF50" stroke-width="1"/>
  <rect x="717.3" y="468.1" width="5.1" height="15.6" fill="#4CAF50" stroke="none"/>
  <line x1="730.0" y1="460.7" x2="730.0" y2="522.9" stroke="#E23B3B" stroke-width="1"/>
  <rect x="727.4" y="463.7" width="5.1" height="57.8" fill="#E23B3B" stroke="none"/>
  <line x1="740.1" y1="497.0" x2="740.1" y2="548.1" stroke="#E23B3B" stroke-width="1"/>
  <rect x="737.6" y="511.8" width="5.1" height="20.0" fill="#E23B3B" stroke="none"/>
  <line x1="750.3" y1="502.9" x2="750.3" y2="546.6" stroke="#4CAF50" stroke-width="1"/>
  <rect x="747.7" y="503.7" width="5.1" height="29.6" fill="#4CAF50" stroke="none"/>
  <line x1="760.4" y1="469.6" x2="760.4" y2="534.0" stroke="#E23B3B" stroke-width="1"/>
  <rect x="757.9" y="505.2" width="5.1" height="17.0" fill="#E23B3B" stroke="none"/>
  <line x1="770.6" y1="515.5" x2="770.6" y2="554.0" stroke="#E23B3B" stroke-width="1"/>
  <rect x="768.0" y="537.7" width="5.1" height="10.4" fill="#E23B3B" stroke="none"/>
  <line x1="780.7" y1="518.5" x2="780.7" y2="543.7" stroke="#E23B3B" stroke-width="1"/>
  <rect x="778.2" y="528.9" width="5.1" height="7.4" fill="#E23B3B" stroke="none"/>
  <line x1="790.9" y1="513.3" x2="790.9" y2="545.2" stroke="#4CAF50" stroke-width="1"/>
  <rect x="788.4" y="535.5" width="5.1" height="8.9" fill="#4CAF50" stroke="none"/>
  <line x1="801.1" y1="518.5" x2="801.1" y2="576.3" stroke="#E23B3B" stroke-width="1"/>
  <rect x="798.5" y="539.2" width="5.1" height="20.0" fill="#E23B3B" stroke="none"/>
  <line x1="811.2" y1="534.0" x2="811.2" y2="563.7" stroke="#E23B3B" stroke-width="1"/>
  <rect x="808.7" y="547.4" width="5.1" height="4.4" fill="#E23B3B" stroke="none"/>
  <line x1="821.4" y1="538.5" x2="821.4" y2="566.6" stroke="#4CAF50" stroke-width="1"/>
  <rect x="818.8" y="539.2" width="5.1" height="14.1" fill="#4CAF50" stroke="none"/>
  <line x1="831.5" y1="459.2" x2="831.5" y2="554.0" stroke="#4CAF50" stroke-width="1"/>
  <rect x="829.0" y="460.0" width="5.1" height="83.7" fill="#4CAF50" stroke="none"/>
  <line x1="841.7" y1="436.3" x2="841.7" y2="495.5" stroke="#E23B3B" stroke-width="1"/>
  <rect x="839.1" y="481.4" width="5.1" height="14.1" fill="#E23B3B" stroke="none"/>
  <line x1="851.8" y1="483.7" x2="851.8" y2="537.7" stroke="#E23B3B" stroke-width="1"/>
  <rect x="849.3" y="483.7" width="5.1" height="41.5" fill="#E23B3B" stroke="none"/>
  <line x1="862.0" y1="513.3" x2="862.0" y2="548.9" stroke="#E23B3B" stroke-width="1"/>
  <rect x="859.4" y="513.3" width="5.1" height="28.9" fill="#E23B3B" stroke="none"/>
  <line x1="872.1" y1="519.2" x2="872.1" y2="550.3" stroke="#4CAF50" stroke-width="1"/>
  <rect x="869.6" y="537.7" width="5.1" height="4.4" fill="#4CAF50" stroke="none"/>
  <line x1="882.3" y1="523.7" x2="882.3" y2="550.3" stroke="#4CAF50" stroke-width="1"/>
  <rect x="879.8" y="538.5" width="5.1" height="11.9" fill="#4CAF50" stroke="none"/>
  <line x1="892.5" y1="505.2" x2="892.5" y2="528.9" stroke="#E23B3B" stroke-width="1"/>
  <rect x="889.9" y="519.2" width="5.1" height="8.1" fill="#E23B3B" stroke="none"/>
  <line x1="902.6" y1="493.3" x2="902.6" y2="533.3" stroke="#E23B3B" stroke-width="1"/>
  <rect x="900.1" y="511.1" width="5.1" height="6.7" fill="#E23B3B" stroke="none"/>
  <line x1="912.8" y1="444.4" x2="912.8" y2="505.2" stroke="#4CAF50" stroke-width="1"/>
  <rect x="910.2" y="462.2" width="5.1" height="36.3" fill="#4CAF50" stroke="none"/>
  <line x1="922.9" y1="468.8" x2="922.9" y2="530.7" stroke="#E23B3B" stroke-width="1"/>
  <rect x="920.4" y="470.3" width="5.1" height="46.7" fill="#E23B3B" stroke="none"/>
  <!-- highlight zone -->
  
  <!-- price axis -->
  <text x="936.0" y="607.7" fill="#6b7a99" font-size="10" font-family="monospace">24.00</text>
  <text x="936.0" y="459.5" fill="#6b7a99" font-size="10" font-family="monospace">26.00</text>
  <text x="936.0" y="311.3" fill="#6b7a99" font-size="10" font-family="monospace">28.00</text>
  <text x="936.0" y="163.2" fill="#6b7a99" font-size="10" font-family="monospace">30.00</text>
  <rect x="932.0" y="507.0" width="58" height="18" rx="2" fill="#E23B3B"/><text x="961.0" y="520.0" fill="#ffffff" font-size="10" font-weight="bold" font-family="monospace" text-anchor="middle">25.17</text>
  <!-- % change callout -->
  
  <!-- date labels -->
  <text x="19.1" y="630" fill="#4a556a" font-size="9" text-anchor="start">2026-03-20</text>
  <text x="201.9" y="630" fill="#4a556a" font-size="9" text-anchor="middle">2026-04-16</text>
  <text x="384.7" y="630" fill="#4a556a" font-size="9" text-anchor="middle">2026-05-12</text>
  <text x="557.3" y="630" fill="#4a556a" font-size="9" text-anchor="middle">2026-06-05</text>
  <text x="740.1" y="630" fill="#4a556a" font-size="9" text-anchor="middle">2026-07-02</text>
  <text x="922.9" y="630" fill="#4a556a" font-size="9" text-anchor="end">2026-07-29</text>
  <!-- M2 overlay labels (top-most in price panel, never occluded) -->
  <rect x="871.0" y="485.0" width="52" height="17" rx="4" fill="#0E1420" fill-opacity="0.82" stroke="#F59E0B" stroke-opacity="0.55" stroke-width="1"/><text x="916.0" y="497.5" fill="#F59E0B" font-size="11" text-anchor="end" font-family="sans-serif">50 SMA</text>
  <!-- subpanels -->
  <line x1="14" y1="632" x2="928" y2="632" stroke="#232A3D" stroke-width="1"/>
  <text x="18" y="645" fill="#6b7a99" font-size="9" font-weight="700" letter-spacing="0.12em">MACD</text>
  <line x1="14" y1="734.0" x2="928" y2="734.0" stroke="#2f3750" stroke-width="1"/>
  <rect x="16.5" y="734.0" width="5.1" height="15.5" fill="#E23B3B" opacity="0.5" stroke="none"/>
  <rect x="26.7" y="734.0" width="5.1" height="11.5" fill="#E23B3B" opacity="0.5" stroke="none"/>
  <rect x="36.8" y="734.0" width="5.1" height="7.1" fill="#E23B3B" opacity="0.5" stroke="none"/>
  <rect x="47.0" y="734.0" width="5.1" height="3.9" fill="#E23B3B" opacity="0.5" stroke="none"/>
  <rect x="57.2" y="734.0" width="5.1" height="3.2" fill="#E23B3B" opacity="0.5" stroke="none"/>
  <rect x="67.3" y="734.0" width="5.1" height="5.6" fill="#E23B3B" opacity="0.5" stroke="none"/>
  <rect x="77.5" y="734.0" width="5.1" height="7.5" fill="#E23B3B" opacity="0.5" stroke="none"/>
  <rect x="87.6" y="734.0" width="5.1" height="5.6" fill="#E23B3B" opacity="0.5" stroke="none"/>
  <rect x="97.8" y="734.0" width="5.1" height="1.8" fill="#E23B3B" opacity="0.5" stroke="none"/>
  <rect x="107.9" y="734.0" width="5.1" height="1.0" fill="#E23B3B" opacity="0.5" stroke="none"/>
  <rect x="118.1" y="733.6" width="5.1" height="1.0" fill="#4CAF50" opacity="0.5" stroke="none"/>
  <rect x="128.2" y="732.1" width="5.1" height="1.9" fill="#4CAF50" opacity="0.5" stroke="none"/>
  <rect x="138.4" y="726.7" width="5.1" height="7.3" fill="#4CAF50" opacity="0.5" stroke="none"/>
  <rect x="148.6" y="719.2" width="5.1" height="14.8" fill="#4CAF50" opacity="0.5" stroke="none"/>
  <rect x="158.7" y="717.0" width="5.1" height="17.0" fill="#4CAF50" opacity="0.5" stroke="none"/>
  <rect x="168.9" y="713.8" width="5.1" height="20.2" fill="#4CAF50" opacity="0.5" stroke="none"/>
  <rect x="179.0" y="713.6" width="5.1" height="20.4" fill="#4CAF50" opacity="0.5" stroke="none"/>
  <rect x="189.2" y="718.6" width="5.1" height="15.4" fill="#4CAF50" opacity="0.5" stroke="none"/>
  <rect x="199.3" y="725.4" width="5.1" height="8.6" fill="#4CAF50" opacity="0.5" stroke="none"/>
  <rect x="209.5" y="727.9" width="5.1" height="6.1" fill="#4CAF50" opacity="0.5" stroke="none"/>
  <rect x="219.6" y="734.0" width="5.1" height="2.1" fill="#E23B3B" opacity="0.5" stroke="none"/>
  <rect x="229.8" y="734.0" width="5.1" height="6.5" fill="#E23B3B" opacity="0.5" stroke="none"/>
  <rect x="240.0" y="734.0" width="5.1" height="8.8" fill="#E23B3B" opacity="0.5" stroke="none"/>
  <rect x="250.1" y="734.0" width="5.1" height="8.6" fill="#E23B3B" opacity="0.5" stroke="none"/>
  <rect x="260.3" y="734.0" width="5.1" height="7.8" fill="#E23B3B" opacity="0.5" stroke="none"/>
  <rect x="270.4" y="734.0" width="5.1" height="6.3" fill="#E23B3B" opacity="0.5" stroke="none"/>
  <rect x="280.6" y="734.0" width="5.1" height="5.9" fill="#E23B3B" opacity="0.5" stroke="none"/>
  <rect x="290.7" y="734.0" width="5.1" height="7.1" fill="#E23B3B" opacity="0.5" stroke="none"/>
  <rect x="300.9" y="734.0" width="5.1" height="6.8" fill="#E23B3B" opacity="0.5" stroke="none"/>
  <rect x="311.0" y="734.0" width="5.1" height="8.2" fill="#E23B3B" opacity="0.5" stroke="none"/>
  <rect x="321.2" y="734.0" width="5.1" height="9.2" fill="#E23B3B" opacity="0.5" stroke="none"/>
  <rect x="331.4" y="734.0" width="5.1" height="8.1" fill="#E23B3B" opacity="0.5" stroke="none"/>
  <rect x="341.5" y="734.0" width="5.1" height="8.6" fill="#E23B3B" opacity="0.5" stroke="none"/>
  <rect x="351.7" y="734.0" width="5.1" height="9.3" fill="#E23B3B" opacity="0.5" stroke="none"/>
  <rect x="361.8" y="734.0" width="5.1" height="11.3" fill="#E23B3B" opacity="0.5" stroke="none"/>
  <rect x="372.0" y="734.0" width="5.1" height="13.6" fill="#E23B3B" opacity="0.5" stroke="none"/>
  <rect x="382.1" y="734.0" width="5.1" height="16.1" fill="#E23B3B" opacity="0.5" stroke="none"/>
  <rect x="392.3" y="734.0" width="5.1" height="16.4" fill="#E23B3B" opacity="0.5" stroke="none"/>
  <rect x="402.4" y="734.0" width="5.1" height="13.7" fill="#E23B3B" opacity="0.5" stroke="none"/>
  <rect x="412.6" y="734.0" width="5.1" height="12.5" fill="#E23B3B" opacity="0.5" stroke="none"/>
  <rect x="422.8" y="734.0" width="5.1" height="10.0" fill="#E23B3B" opacity="0.5" stroke="none"/>
  <rect x="432.9" y="734.0" width="5.1" height="10.4" fill="#E23B3B" opacity="0.5" stroke="none"/>
  <rect x="443.1" y="734.0" width="5.1" height="8.1" fill="#E23B3B" opacity="0.5" stroke="none"/>
  <rect x="453.2" y="734.0" width="5.1" height="7.1" fill="#E23B3B" opacity="0.5" stroke="none"/>
  <rect x="463.4" y="734.0" width="5.1" height="5.0" fill="#E23B3B" opacity="0.5" stroke="none"/>
  <rect x="473.5" y="734.0" width="5.1" height="1.1" fill="#E23B3B" opacity="0.5" stroke="none"/>
  <rect x="483.7" y="732.7" width="5.1" height="1.3" fill="#4CAF50" opacity="0.5" stroke="none"/>
  <rect x="493.8" y="732.1" width="5.1" height="1.9" fill="#4CAF50" opacity="0.5" stroke="none"/>
  <rect x="504.0" y="732.1" width="5.1" height="1.9" fill="#4CAF50" opacity="0.5" stroke="none"/>
  <rect x="514.2" y="733.9" width="5.1" height="1.0" fill="#4CAF50" opacity="0.5" stroke="none"/>
  <rect x="524.3" y="733.1" width="5.1" height="1.0" fill="#4CAF50" opacity="0.5" stroke="none"/>
  <rect x="534.5" y="731.8" width="5.1" height="2.2" fill="#4CAF50" opacity="0.5" stroke="none"/>
  <rect x="544.6" y="731.2" width="5.1" height="2.8" fill="#4CAF50" opacity="0.5" stroke="none"/>
  <rect x="554.8" y="729.6" width="5.1" height="4.4" fill="#4CAF50" opacity="0.5" stroke="none"/>
  <rect x="564.9" y="728.3" width="5.1" height="5.7" fill="#4CAF50" opacity="0.5" stroke="none"/>
  <rect x="575.1" y="724.5" width="5.1" height="9.5" fill="#4CAF50" opacity="0.5" stroke="none"/>
  <rect x="585.2" y="724.2" width="5.1" height="9.8" fill="#4CAF50" opacity="0.5" stroke="none"/>
  <rect x="595.4" y="724.3" width="5.1" height="9.7" fill="#4CAF50" opacity="0.5" stroke="none"/>
  <rect x="605.6" y="723.8" width="5.1" height="10.2" fill="#4CAF50" opacity="0.5" stroke="none"/>
  <rect x="615.7" y="723.9" width="5.1" height="10.1" fill="#4CAF50" opacity="0.5" stroke="none"/>
  <rect x="625.9" y="722.5" width="5.1" height="11.5" fill="#4CAF50" opacity="0.5" stroke="none"/>
  <rect x="636.0" y="724.4" width="5.1" height="9.6" fill="#4CAF50" opacity="0.5" stroke="none"/>
  <rect x="646.2" y="723.9" width="5.1" height="10.1" fill="#4CAF50" opacity="0.5" stroke="none"/>
  <rect x="656.3" y="725.0" width="5.1" height="9.0" fill="#4CAF50" opacity="0.5" stroke="none"/>
  <rect x="666.5" y="727.1" width="5.1" height="6.9" fill="#4CAF50" opacity="0.5" stroke="none"/>
  <rect x="676.6" y="726.2" width="5.1" height="7.8" fill="#4CAF50" opacity="0.5" stroke="none"/>
  <rect x="686.8" y="723.0" width="5.1" height="11.0" fill="#4CAF50" opacity="0.5" stroke="none"/>
  <rect x="697.0" y="722.6" width="5.1" height="11.4" fill="#4CAF50" opacity="0.5" stroke="none"/>
  <rect x="707.1" y="725.3" width="5.1" height="8.7" fill="#4CAF50" opacity="0.5" stroke="none"/>
  <rect x="717.3" y="728.5" width="5.1" height="5.5" fill="#4CAF50" opacity="0.5" stroke="none"/>
  <rect x="727.4" y="733.6" width="5.1" height="1.0" fill="#4CAF50" opacity="0.5" stroke="none"/>
  <rect x="737.6" y="734.0" width="5.1" height="3.4" fill="#E23B3B" opacity="0.5" stroke="none"/>
  <rect x="747.7" y="734.0" width="5.1" height="4.1" fill="#E23B3B" opacity="0.5" stroke="none"/>
  <rect x="757.9" y="734.0" width="5.1" height="5.3" fill="#E23B3B" opacity="0.5" stroke="none"/>
  <rect x="768.0" y="734.0" width="5.1" height="7.1" fill="#E23B3B" opacity="0.5" stroke="none"/>
  <rect x="778.2" y="734.0" width="5.1" height="7.1" fill="#E23B3B" opacity="0.5" stroke="none"/>
  <rect x="788.4" y="734.0" width="5.1" height="6.7" fill="#E23B3B" opacity="0.5" stroke="none"/>
  <rect x="798.5" y="734.0" width="5.1" height="7.3" fill="#E23B3B" opacity="0.5" stroke="none"/>
  <rect x="808.7" y="734.0" width="5.1" height="6.7" fill="#E23B3B" opacity="0.5" stroke="none"/>
  <rect x="818.8" y="734.0" width="5.1" height="5.2" fill="#E23B3B" opacity="0.5" stroke="none"/>
  <rect x="829.0" y="733.6" width="5.1" height="1.0" fill="#4CAF50" opacity="0.5" stroke="none"/>
  <rect x="839.1" y="731.9" width="5.1" height="2.1" fill="#4CAF50" opacity="0.5" stroke="none"/>
  <rect x="849.3" y="732.4" width="5.1" height="1.6" fill="#4CAF50" opacity="0.5" stroke="none"/>
  <rect x="859.4" y="733.6" width="5.1" height="1.0" fill="#4CAF50" opacity="0.5" stroke="none"/>
  <rect x="869.6" y="734.0" width="5.1" height="1.0" fill="#E23B3B" opacity="0.5" stroke="none"/>
  <rect x="879.8" y="734.0" width="5.1" height="1.0" fill="#E23B3B" opacity="0.5" stroke="none"/>
  <rect x="889.9" y="733.6" width="5.1" height="1.0" fill="#4CAF50" opacity="0.5" stroke="none"/>
  <rect x="900.1" y="732.5" width="5.1" height="1.5" fill="#4CAF50" opacity="0.5" stroke="none"/>
  <rect x="910.2" y="728.9" width="5.1" height="5.1" fill="#4CAF50" opacity="0.5" stroke="none"/>
  <rect x="920.4" y="729.7" width="5.1" height="4.3" fill="#4CAF50" opacity="0.5" stroke="none"/>
  <polyline points="19.1,750.6 29.2,749.4 39.4,746.9 49.5,744.6 59.7,744.8 69.9,748.6 80.0,752.3 90.2,751.9 100.3,748.5 110.5,747.7 120.6,746.4 130.8,744.4 140.9,737.2 151.1,726.0 161.3,719.6 171.4,711.3 181.6,706.0 191.7,707.1 201.9,711.7 212.0,712.8 222.2,721.5 232.3,727.5 242.5,732.0 252.7,734.0 262.8,735.2 273.0,735.2 283.1,736.3 293.3,739.3 303.4,740.6 313.6,744.0 323.7,747.4 333.9,748.3 344.1,750.9 354.2,754.0 364.4,758.8 374.5,764.5 384.7,771.0 394.8,775.4 405.0,776.2 415.1,778.1 425.3,778.0 435.5,781.1 445.6,780.8 455.8,781.6 465.9,780.7 476.1,777.1 486.2,774.4 496.4,773.3 506.5,772.8 516.7,774.7 526.9,773.6 537.0,771.8 547.2,770.4 557.3,767.7 567.5,765.0 577.6,758.8 587.8,756.1 597.9,753.8 608.1,750.8 618.3,748.3 628.4,744.1 638.6,743.5 648.7,740.6 658.9,739.4 669.0,739.7 679.2,736.9 689.3,730.9 699.5,727.7 709.7,728.2 719.8,730.0 730.0,735.1 740.1,739.7 750.3,741.4 760.4,743.9 770.6,747.5 780.7,749.3 790.9,750.5 801.1,752.9 811.2,754.1 821.4,753.9 831.5,748.2 841.7,745.9 851.8,746.0 862.0,747.1 872.1,747.5 882.3,747.8 892.5,747.0 902.6,745.6 912.8,740.7 922.9,740.4" fill="none" stroke="#5b9dff" stroke-width="1.5" stroke-linejoin="round" stroke-linecap="round"/>
  <polyline points="19.1,735.1 29.2,738.0 39.4,739.8 49.5,740.7 59.7,741.5 69.9,742.9 80.0,744.8 90.2,746.2 100.3,746.7 110.5,746.9 120.6,746.8 130.8,746.3 140.9,744.5 151.1,740.8 161.3,736.5 171.4,731.5 181.6,726.4 191.7,722.5 201.9,720.4 212.0,718.9 222.2,719.4 232.3,721.0 242.5,723.2 252.7,725.4 262.8,727.3 273.0,728.9 283.1,730.4 293.3,732.2 303.4,733.9 313.6,735.9 323.7,738.2 333.9,740.2 344.1,742.4 354.2,744.7 364.4,747.5 374.5,750.9 384.7,754.9 394.8,759.0 405.0,762.4 415.1,765.6 425.3,768.1 435.5,770.7 445.6,772.7 455.8,774.5 465.9,775.7 476.1,776.0 486.2,775.7 496.4,775.2 506.5,774.7 516.7,774.7 526.9,774.5 537.0,774.0 547.2,773.2 557.3,772.1 567.5,770.7 577.6,768.3 587.8,765.9 597.9,763.5 608.1,760.9 618.3,758.4 628.4,755.5 638.6,753.1 648.7,750.6 658.9,748.4 669.0,746.6 679.2,744.7 689.3,741.9 699.5,739.1 709.7,736.9 719.8,735.5 730.0,735.4 740.1,736.3 750.3,737.3 760.4,738.6 770.6,740.4 780.7,742.2 790.9,743.8 801.1,745.7 811.2,747.3 821.4,748.6 831.5,748.6 841.7,748.0 851.8,747.6 862.0,747.5 872.1,747.5 882.3,747.6 892.5,747.5 902.6,747.1 912.8,745.8 922.9,744.7" fill="none" stroke="#F59E0B" stroke-width="1.2" stroke-linejoin="round" stroke-linecap="round"/>
  <text x="936" y="744.4" fill="#E23B3B" font-size="9" font-family="monospace">-0.103</text>
  <!-- header (rendered last so it sits on top) -->
  <rect x="0" y="0" width="1000" height="64" fill="#0A1020" opacity="0.9"/>
  <rect x="8.00" y="15.00" width="34.00" height="34.00" rx="8.93" fill="url(#mbTile_1931640084)"/><rect x="8.00" y="15.00" width="34.00" height="34.00" rx="8.93" fill="url(#mbGlow_1931640084)"/><rect x="8.00" y="15.00" width="34.00" height="34.00" rx="8.93" fill="url(#mbSheen_1931640084)"/><path d="M17.35,38.03 L17.35,26.56 L23.30,32.94 L29.25,24.86 L29.25,38.03" fill="none" stroke="#15205a" stroke-opacity=".30" stroke-width="2.80" stroke-linecap="round" stroke-linejoin="round"/><path d="M17.35,37.10 L17.35,25.62 L23.30,32.00 L29.25,23.92 L29.25,37.10" fill="none" stroke="url(#mbInk_1931640084)" stroke-width="2.80" stroke-linecap="round" stroke-linejoin="round"/>
  <text x="50.0" y="39.0" fill="#ffffff" font-size="20" font-weight="900" font-family="sans-serif" letter-spacing="0.07em">MASTERMIND</text>
  <text x="924.0" y="30.0" fill="#ffffff" font-size="26" font-weight="bold" text-anchor="end" font-family="sans-serif">MWA</text><text x="924.0" y="48.0" fill="#8899bb" font-size="13" text-anchor="end" letter-spacing="1" font-family="sans-serif">DAILY</text>
  <!-- footer -->
  <rect x="0" y="834" width="1000" height="46" fill="#0A1020" opacity="0.94"/><rect x="0" y="834" width="1000" height="1.5" fill="url(#bb_laser_1931640084)"/><rect x="14.00" y="848.00" width="18.00" height="18.00" rx="4.73" fill="url(#mbTile_1931640084bb)"/><rect x="14.00" y="848.00" width="18.00" height="18.00" rx="4.73" fill="url(#mbGlow_1931640084bb)"/><rect x="14.00" y="848.00" width="18.00" height="18.00" rx="4.73" fill="url(#mbSheen_1931640084bb)"/><path d="M18.95,860.20 L18.95,854.12 L22.10,857.50 L25.25,853.22 L25.25,860.20" fill="none" stroke="#15205a" stroke-opacity=".30" stroke-width="1.48" stroke-linecap="round" stroke-linejoin="round"/><path d="M18.95,859.70 L18.95,853.62 L22.10,857.00 L25.25,852.73 L25.25,859.70" fill="none" stroke="url(#mbInk_1931640084bb)" stroke-width="1.48" stroke-linecap="round" stroke-linejoin="round"/><text x="41.0" y="862.0" fill="#ffffff" font-size="15" font-weight="800" font-family="sans-serif" letter-spacing="0.3">mastermind-x.com</text><circle cx="204.0" cy="857.0" r="1.5" fill="#3a4466"/><text x="215.0" y="861.0" fill="#93a7cc" font-size="11" font-weight="700" font-family="sans-serif" letter-spacing="1.4">AI STOCK SIGNALS</text><circle cx="376.4" cy="857.0" r="1.5" fill="#3a4466"/><text x="387.4" y="861.0" fill="#8899bb" font-size="11" font-family="sans-serif" letter-spacing="0.2">Daily stock signals</text><text x="986.0" y="860.0" fill="#3a4466" font-size="9" text-anchor="end" font-family="sans-serif">© 2026 Mastermind</text>
</svg>