<svg viewBox="0 0 1000 880" xmlns="http://www.w3.org/2000/svg" width="1000" height="880">
  <defs><marker id="arrowhead_1063565857" markerWidth="8" markerHeight="6" refX="4" refY="3" orient="auto"><polygon points="0 0, 8 3, 0 6" fill="#4CAF50"/></marker><linearGradient id="mbTile_1063565857" x1="0" y1="0" x2="1" y2="1" gradientUnits="objectBoundingBox"><stop offset="0" stop-color="#5b9dff"/><stop offset=".42" stop-color="#3b82f6"/><stop offset=".74" stop-color="#6366f1"/><stop offset="1" stop-color="#7c5cff"/></linearGradient><linearGradient id="mbSheen_1063565857" x1="0" y1="0" x2="0" y2="1" gradientUnits="objectBoundingBox"><stop offset="0" stop-color="#ffffff" stop-opacity=".34"/><stop offset=".55" stop-color="#ffffff" stop-opacity="0"/></linearGradient><radialGradient id="mbGlow_1063565857" cx=".5" cy=".4" r=".65" gradientUnits="objectBoundingBox"><stop offset="0" stop-color="#ffffff" stop-opacity=".22"/><stop offset="1" stop-color="#ffffff" stop-opacity="0"/></radialGradient><linearGradient id="mbInk_1063565857" x1="0" y1="0" x2="0" y2="1" gradientUnits="objectBoundingBox"><stop offset="0" stop-color="#ffffff"/><stop offset="1" stop-color="#dbe7ff"/></linearGradient><linearGradient id="bb_laser_1063565857" x1="0" y1="0" x2="1" y2="0"><stop offset="0" stop-color="#5b9dff"/><stop offset="0.35" stop-color="#6366f1"/><stop offset="0.6" stop-color="#7c5cff"/><stop offset="0.92" stop-color="#7c5cff" stop-opacity="0"/></linearGradient><linearGradient id="bb_btn_1063565857" x1="0" y1="0" x2="1" y2="0"><stop offset="0" stop-color="#3b82f6"/><stop offset="1" stop-color="#7c5cff"/></linearGradient><linearGradient id="bb_btnsheen_1063565857" x1="0" y1="0" x2="0" y2="1"><stop offset="0" stop-color="#ffffff" stop-opacity="0.18"/><stop offset="0.55" stop-color="#ffffff" stop-opacity="0.02"/><stop offset="1" stop-color="#ffffff" stop-opacity="0"/></linearGradient><linearGradient id="mbTile_1063565857bb" x1="0" y1="0" x2="1" y2="1" gradientUnits="objectBoundingBox"><stop offset="0" stop-color="#5b9dff"/><stop offset=".42" stop-color="#3b82f6"/><stop offset=".74" stop-color="#6366f1"/><stop offset="1" stop-color="#7c5cff"/></linearGradient><linearGradient id="mbSheen_1063565857bb" x1="0" y1="0" x2="0" y2="1" gradientUnits="objectBoundingBox"><stop offset="0" stop-color="#ffffff" stop-opacity=".34"/><stop offset=".55" stop-color="#ffffff" stop-opacity="0"/></linearGradient><radialGradient id="mbGlow_1063565857bb" cx=".5" cy=".4" r=".65" gradientUnits="objectBoundingBox"><stop offset="0" stop-color="#ffffff" stop-opacity=".22"/><stop offset="1" stop-color="#ffffff" stop-opacity="0"/></radialGradient><linearGradient id="mbInk_1063565857bb" x1="0" y1="0" x2="0" y2="1" gradientUnits="objectBoundingBox"><stop offset="0" stop-color="#ffffff"/><stop offset="1" stop-color="#dbe7ff"/></linearGradient></defs>
  <!-- background -->
  <rect width="1000" height="880" fill="#0E1420"/>
  <!-- ghost watermark -->
  <text x="471.0" y="377.4" fill="#ffffff" fill-opacity="0.04" font-size="90" font-weight="bold" text-anchor="middle" dominant-baseline="middle">HUBG</text>
  <!-- company logo overlay -->
  
  <!-- embedded volume (paneless, under candles) -->
  <rect x="16.5" y="551.9" width="5.1" height="72.1" fill="#E23B3B" opacity="0.28" stroke="none"/>
  <rect x="26.7" y="591.7" width="5.1" height="32.3" fill="#E23B3B" opacity="0.28" stroke="none"/>
  <rect x="36.8" y="594.2" width="5.1" height="29.8" fill="#4CAF50" opacity="0.28" stroke="none"/>
  <rect x="47.0" y="590.2" width="5.1" height="33.8" fill="#4CAF50" opacity="0.28" stroke="none"/>
  <rect x="57.2" y="585.7" width="5.1" height="38.3" fill="#4CAF50" opacity="0.28" stroke="none"/>
  <rect x="67.3" y="597.2" width="5.1" height="26.8" fill="#E23B3B" opacity="0.28" stroke="none"/>
  <rect x="77.5" y="587.6" width="5.1" height="36.4" fill="#E23B3B" opacity="0.28" stroke="none"/>
  <rect x="87.6" y="592.8" width="5.1" height="31.2" fill="#4CAF50" opacity="0.28" stroke="none"/>
  <rect x="97.8" y="601.1" width="5.1" height="22.9" fill="#4CAF50" opacity="0.28" stroke="none"/>
  <rect x="107.9" y="605.3" width="5.1" height="18.7" fill="#4CAF50" opacity="0.28" stroke="none"/>
  <rect x="118.1" y="604.1" width="5.1" height="19.9" fill="#4CAF50" opacity="0.28" stroke="none"/>
  <rect x="128.2" y="592.9" width="5.1" height="31.1" fill="#4CAF50" opacity="0.28" stroke="none"/>
  <rect x="138.4" y="592.2" width="5.1" height="31.8" fill="#4CAF50" opacity="0.28" stroke="none"/>
  <rect x="148.6" y="595.0" width="5.1" height="29.0" fill="#4CAF50" opacity="0.28" stroke="none"/>
  <rect x="158.7" y="591.7" width="5.1" height="32.3" fill="#4CAF50" opacity="0.28" stroke="none"/>
  <rect x="168.9" y="603.3" width="5.1" height="20.7" fill="#4CAF50" opacity="0.28" stroke="none"/>
  <rect x="179.0" y="589.3" width="5.1" height="34.7" fill="#4CAF50" opacity="0.28" stroke="none"/>
  <rect x="189.2" y="596.6" width="5.1" height="27.4" fill="#E23B3B" opacity="0.28" stroke="none"/>
  <rect x="199.3" y="582.8" width="5.1" height="41.2" fill="#4CAF50" opacity="0.28" stroke="none"/>
  <rect x="209.5" y="578.9" width="5.1" height="45.1" fill="#4CAF50" opacity="0.28" stroke="none"/>
  <rect x="219.6" y="582.7" width="5.1" height="41.3" fill="#4CAF50" opacity="0.28" stroke="none"/>
  <rect x="229.8" y="590.7" width="5.1" height="33.3" fill="#E23B3B" opacity="0.28" stroke="none"/>
  <rect x="240.0" y="580.2" width="5.1" height="43.8" fill="#E23B3B" opacity="0.28" stroke="none"/>
  <rect x="250.1" y="583.6" width="5.1" height="40.4" fill="#E23B3B" opacity="0.28" stroke="none"/>
  <rect x="260.3" y="600.0" width="5.1" height="24.0" fill="#E23B3B" opacity="0.28" stroke="none"/>
  <rect x="270.4" y="604.6" width="5.1" height="19.4" fill="#4CAF50" opacity="0.28" stroke="none"/>
  <rect x="280.6" y="605.4" width="5.1" height="18.6" fill="#4CAF50" opacity="0.28" stroke="none"/>
  <rect x="290.7" y="588.0" width="5.1" height="36.0" fill="#E23B3B" opacity="0.28" stroke="none"/>
  <rect x="300.9" y="597.3" width="5.1" height="26.7" fill="#4CAF50" opacity="0.28" stroke="none"/>
  <rect x="311.0" y="600.7" width="5.1" height="23.3" fill="#E23B3B" opacity="0.28" stroke="none"/>
  <rect x="321.2" y="589.3" width="5.1" height="34.7" fill="#E23B3B" opacity="0.28" stroke="none"/>
  <rect x="331.4" y="594.0" width="5.1" height="30.0" fill="#4CAF50" opacity="0.28" stroke="none"/>
  <rect x="341.5" y="590.7" width="5.1" height="33.3" fill="#4CAF50" opacity="0.28" stroke="none"/>
  <rect x="351.7" y="591.5" width="5.1" height="32.5" fill="#E23B3B" opacity="0.28" stroke="none"/>
  <rect x="361.8" y="604.5" width="5.1" height="19.5" fill="#4CAF50" opacity="0.28" stroke="none"/>
  <rect x="372.0" y="599.9" width="5.1" height="24.1" fill="#E23B3B" opacity="0.28" stroke="none"/>
  <rect x="382.1" y="514.4" width="5.1" height="109.6" fill="#E23B3B" opacity="0.28" stroke="none"/>
  <rect x="392.3" y="587.8" width="5.1" height="36.2" fill="#4CAF50" opacity="0.28" stroke="none"/>
  <rect x="402.4" y="565.5" width="5.1" height="58.5" fill="#E23B3B" opacity="0.28" stroke="none"/>
  <rect x="412.6" y="575.4" width="5.1" height="48.6" fill="#4CAF50" opacity="0.28" stroke="none"/>
  <rect x="422.8" y="577.7" width="5.1" height="46.3" fill="#4CAF50" opacity="0.28" stroke="none"/>
  <rect x="432.9" y="596.6" width="5.1" height="27.4" fill="#E23B3B" opacity="0.28" stroke="none"/>
  <rect x="443.1" y="583.6" width="5.1" height="40.4" fill="#4CAF50" opacity="0.28" stroke="none"/>
  <rect x="453.2" y="582.3" width="5.1" height="41.7" fill="#4CAF50" opacity="0.28" stroke="none"/>
  <rect x="463.4" y="587.8" width="5.1" height="36.2" fill="#4CAF50" opacity="0.28" stroke="none"/>
  <rect x="473.5" y="565.8" width="5.1" height="58.2" fill="#4CAF50" opacity="0.28" stroke="none"/>
  <rect x="483.7" y="592.0" width="5.1" height="32.0" fill="#4CAF50" opacity="0.28" stroke="none"/>
  <rect x="493.8" y="600.2" width="5.1" height="23.8" fill="#E23B3B" opacity="0.28" stroke="none"/>
  <rect x="504.0" y="570.7" width="5.1" height="53.3" fill="#4CAF50" opacity="0.28" stroke="none"/>
  <rect x="514.2" y="577.0" width="5.1" height="47.0" fill="#4CAF50" opacity="0.28" stroke="none"/>
  <rect x="524.3" y="584.6" width="5.1" height="39.4" fill="#4CAF50" opacity="0.28" stroke="none"/>
  <rect x="534.5" y="587.4" width="5.1" height="36.6" fill="#E23B3B" opacity="0.28" stroke="none"/>
  <rect x="544.6" y="600.3" width="5.1" height="23.7" fill="#4CAF50" opacity="0.28" stroke="none"/>
  <rect x="554.8" y="598.0" width="5.1" height="26.0" fill="#E23B3B" opacity="0.28" stroke="none"/>
  <rect x="564.9" y="589.6" width="5.1" height="34.4" fill="#4CAF50" opacity="0.28" stroke="none"/>
  <rect x="575.1" y="588.9" width="5.1" height="35.1" fill="#4CAF50" opacity="0.28" stroke="none"/>
  <rect x="585.2" y="592.6" width="5.1" height="31.4" fill="#4CAF50" opacity="0.28" stroke="none"/>
  <rect x="595.4" y="580.7" width="5.1" height="43.3" fill="#4CAF50" opacity="0.28" stroke="none"/>
  <rect x="605.6" y="590.1" width="5.1" height="33.9" fill="#4CAF50" opacity="0.28" stroke="none"/>
  <rect x="615.7" y="597.8" width="5.1" height="26.2" fill="#E23B3B" opacity="0.28" stroke="none"/>
  <rect x="625.9" y="587.4" width="5.1" height="36.6" fill="#E23B3B" opacity="0.28" stroke="none"/>
  <rect x="636.0" y="591.6" width="5.1" height="32.4" fill="#E23B3B" opacity="0.28" stroke="none"/>
  <rect x="646.2" y="577.2" width="5.1" height="46.8" fill="#4CAF50" opacity="0.28" stroke="none"/>
  <rect x="656.3" y="602.3" width="5.1" height="21.7" fill="#E23B3B" opacity="0.28" stroke="none"/>
  <rect x="666.5" y="598.4" width="5.1" height="25.6" fill="#E23B3B" opacity="0.28" stroke="none"/>
  <rect x="676.6" y="582.5" width="5.1" height="41.5" fill="#E23B3B" opacity="0.28" stroke="none"/>
  <rect x="686.8" y="593.6" width="5.1" height="30.4" fill="#4CAF50" opacity="0.28" stroke="none"/>
  <rect x="697.0" y="536.1" width="5.1" height="87.9" fill="#E23B3B" opacity="0.28" stroke="none"/>
  <rect x="707.1" y="580.2" width="5.1" height="43.8" fill="#4CAF50" opacity="0.28" stroke="none"/>
  <rect x="717.3" y="584.1" width="5.1" height="39.9" fill="#E23B3B" opacity="0.28" stroke="none"/>
  <rect x="727.4" y="589.0" width="5.1" height="35.0" fill="#4CAF50" opacity="0.28" stroke="none"/>
  <rect x="737.6" y="591.0" width="5.1" height="33.0" fill="#4CAF50" opacity="0.28" stroke="none"/>
  <rect x="747.7" y="590.8" width="5.1" height="33.2" fill="#4CAF50" opacity="0.28" stroke="none"/>
  <rect x="757.9" y="594.3" width="5.1" height="29.7" fill="#4CAF50" opacity="0.28" stroke="none"/>
  <rect x="768.0" y="591.3" width="5.1" height="32.7" fill="#E23B3B" opacity="0.28" stroke="none"/>
  <rect x="778.2" y="596.6" width="5.1" height="27.4" fill="#4CAF50" opacity="0.28" stroke="none"/>
  <rect x="788.4" y="601.9" width="5.1" height="22.1" fill="#E23B3B" opacity="0.28" stroke="none"/>
  <rect x="798.5" y="596.1" width="5.1" height="27.9" fill="#4CAF50" opacity="0.28" stroke="none"/>
  <rect x="808.7" y="583.8" width="5.1" height="40.2" fill="#E23B3B" opacity="0.28" stroke="none"/>
  <rect x="818.8" y="564.1" width="5.1" height="59.9" fill="#4CAF50" opacity="0.28" stroke="none"/>
  <rect x="829.0" y="550.0" width="5.1" height="74.0" fill="#4CAF50" opacity="0.28" stroke="none"/>
  <rect x="839.1" y="589.3" width="5.1" height="34.7" fill="#4CAF50" opacity="0.28" stroke="none"/>
  <rect x="849.3" y="604.8" width="5.1" height="19.2" fill="#E23B3B" opacity="0.28" stroke="none"/>
  <rect x="859.4" y="601.3" width="5.1" height="22.7" fill="#4CAF50" opacity="0.28" stroke="none"/>
  <rect x="869.6" y="605.6" width="5.1" height="18.4" fill="#4CAF50" opacity="0.28" stroke="none"/>
  <rect x="879.8" y="592.9" width="5.1" height="31.1" fill="#E23B3B" opacity="0.28" stroke="none"/>
  <rect x="889.9" y="590.5" width="5.1" height="33.5" fill="#4CAF50" opacity="0.28" stroke="none"/>
  <rect x="900.1" y="587.3" width="5.1" height="36.7" fill="#E23B3B" opacity="0.28" stroke="none"/>
  <rect x="910.2" y="586.9" width="5.1" height="37.1" fill="#4CAF50" opacity="0.28" stroke="none"/>
  <rect x="920.4" y="595.9" width="5.1" height="28.1" fill="#4CAF50" opacity="0.28" stroke="none"/>
  <!-- SMA overlays -->
  <polyline points="19.1,348.5 29.2,354.0 39.4,359.5 49.5,365.2 59.7,370.8 69.9,377.0 80.0,383.5 90.2,389.2 100.3,394.1 110.5,400.1 120.6,406.0 130.8,411.5 140.9,416.2 151.1,420.8 161.3,425.3 171.4,430.1 181.6,434.2 191.7,439.7 201.9,444.5 212.0,449.7 222.2,453.8 232.3,452.7 242.5,451.7 252.7,451.6 262.8,451.3 273.0,449.2 283.1,446.8 293.3,445.2 303.4,443.6 313.6,442.7 323.7,443.9 333.9,443.6 344.1,442.4 354.2,441.3 364.4,441.3 374.5,441.9 384.7,445.2 394.8,448.0 405.0,451.0 415.1,453.0 425.3,453.4 435.5,453.7 445.6,452.2 455.8,450.2 465.9,446.6 476.1,442.1 486.2,437.3 496.4,432.7 506.5,428.5 516.7,423.7 526.9,418.8 537.0,414.7 547.2,410.6 557.3,407.1 567.5,402.4 577.6,397.3 587.8,392.3 597.9,387.0 608.1,381.7 618.3,376.8 628.4,372.4 638.6,368.8 648.7,365.6 658.9,362.8 669.0,360.4 679.2,358.3 689.3,356.1 699.5,353.6 709.7,352.1 719.8,351.5 730.0,350.7 740.1,350.0 750.3,348.9 760.4,347.4 770.6,345.8 780.7,344.1 790.9,342.8 801.1,340.1 811.2,338.2 821.4,335.7 831.5,330.0 841.7,324.9 851.8,321.0 862.0,316.7 872.1,312.4 882.3,308.4 892.5,301.5 902.6,296.1 912.8,290.4 922.9,284.8" fill="none" stroke="#F59E0B" stroke-width="1.2" opacity="0.8" stroke-dasharray="4,2"/>
  <!-- M2 overlays: AVWAP + POC (over SMA, under candles) -->
  
  <!-- candlesticks -->
  <line x1="19.1" y1="547.7" x2="19.1" y2="590.4" stroke="#E23B3B" stroke-width="1"/>
  <rect x="16.5" y="557.7" width="5.1" height="5.9" fill="#E23B3B" stroke="none"/>
  <line x1="29.2" y1="516.9" x2="29.2" y2="551.5" stroke="#E23B3B" stroke-width="1"/>
  <rect x="26.7" y="547.7" width="5.1" height="2.9" fill="#E23B3B" stroke="none"/>
  <line x1="39.4" y1="520.7" x2="39.4" y2="566.8" stroke="#4CAF50" stroke-width="1"/>
  <rect x="36.8" y="530.3" width="5.1" height="31.9" fill="#4CAF50" stroke="none"/>
  <line x1="49.5" y1="516.4" x2="49.5" y2="559.0" stroke="#4CAF50" stroke-width="1"/>
  <rect x="47.0" y="522.8" width="5.1" height="6.7" fill="#4CAF50" stroke="none"/>
  <line x1="59.7" y1="522.8" x2="59.7" y2="564.1" stroke="#4CAF50" stroke-width="1"/>
  <rect x="57.2" y="529.3" width="5.1" height="32.7" fill="#4CAF50" stroke="none"/>
  <line x1="69.9" y1="536.0" x2="69.9" y2="561.4" stroke="#E23B3B" stroke-width="1"/>
  <rect x="67.3" y="542.1" width="5.1" height="6.7" fill="#E23B3B" stroke="none"/>
  <line x1="80.0" y1="527.1" x2="80.0" y2="557.4" stroke="#E23B3B" stroke-width="1"/>
  <rect x="77.5" y="538.6" width="5.1" height="12.6" fill="#E23B3B" stroke="none"/>
  <line x1="90.2" y1="511.0" x2="90.2" y2="548.5" stroke="#4CAF50" stroke-width="1"/>
  <rect x="87.6" y="531.1" width="5.1" height="16.9" fill="#4CAF50" stroke="none"/>
  <line x1="100.3" y1="494.4" x2="100.3" y2="525.8" stroke="#4CAF50" stroke-width="1"/>
  <rect x="97.8" y="515.9" width="5.1" height="6.2" fill="#4CAF50" stroke="none"/>
  <line x1="110.5" y1="509.2" x2="110.5" y2="539.4" stroke="#4CAF50" stroke-width="1"/>
  <rect x="107.9" y="518.8" width="5.1" height="17.7" fill="#4CAF50" stroke="none"/>
  <line x1="120.6" y1="498.7" x2="120.6" y2="528.4" stroke="#4CAF50" stroke-width="1"/>
  <rect x="118.1" y="502.5" width="5.1" height="22.2" fill="#4CAF50" stroke="none"/>
  <line x1="130.8" y1="499.5" x2="130.8" y2="523.1" stroke="#4CAF50" stroke-width="1"/>
  <rect x="128.2" y="504.9" width="5.1" height="5.9" fill="#4CAF50" stroke="none"/>
  <line x1="140.9" y1="446.2" x2="140.9" y2="474.6" stroke="#4CAF50" stroke-width="1"/>
  <rect x="138.4" y="462.3" width="5.1" height="1.5" fill="#4CAF50" stroke="none"/>
  <line x1="151.1" y1="447.3" x2="151.1" y2="481.0" stroke="#4CAF50" stroke-width="1"/>
  <rect x="148.6" y="458.2" width="5.1" height="13.1" fill="#4CAF50" stroke="none"/>
  <line x1="161.3" y1="435.5" x2="161.3" y2="479.1" stroke="#4CAF50" stroke-width="1"/>
  <rect x="158.7" y="452.6" width="5.1" height="3.8" fill="#4CAF50" stroke="none"/>
  <line x1="171.4" y1="443.8" x2="171.4" y2="470.8" stroke="#4CAF50" stroke-width="1"/>
  <rect x="168.9" y="446.4" width="5.1" height="12.9" fill="#4CAF50" stroke="none"/>
  <line x1="181.6" y1="419.1" x2="181.6" y2="457.4" stroke="#4CAF50" stroke-width="1"/>
  <rect x="179.0" y="429.0" width="5.1" height="20.1" fill="#4CAF50" stroke="none"/>
  <line x1="191.7" y1="433.3" x2="191.7" y2="450.5" stroke="#E23B3B" stroke-width="1"/>
  <rect x="189.2" y="442.4" width="5.1" height="2.7" fill="#E23B3B" stroke="none"/>
  <line x1="201.9" y1="374.1" x2="201.9" y2="446.2" stroke="#4CAF50" stroke-width="1"/>
  <rect x="199.3" y="389.6" width="5.1" height="56.5" fill="#4CAF50" stroke="none"/>
  <line x1="212.0" y1="345.2" x2="212.0" y2="388.0" stroke="#4CAF50" stroke-width="1"/>
  <rect x="209.5" y="353.7" width="5.1" height="22.0" fill="#4CAF50" stroke="none"/>
  <line x1="222.2" y1="323.7" x2="222.2" y2="386.7" stroke="#4CAF50" stroke-width="1"/>
  <rect x="219.6" y="331.8" width="5.1" height="31.6" fill="#4CAF50" stroke="none"/>
  <line x1="232.3" y1="309.8" x2="232.3" y2="337.7" stroke="#E23B3B" stroke-width="1"/>
  <rect x="229.8" y="321.3" width="5.1" height="1.5" fill="#E23B3B" stroke="none"/>
  <line x1="242.5" y1="306.3" x2="242.5" y2="334.4" stroke="#E23B3B" stroke-width="1"/>
  <rect x="240.0" y="315.4" width="5.1" height="6.2" fill="#E23B3B" stroke="none"/>
  <line x1="252.7" y1="285.4" x2="252.7" y2="367.7" stroke="#E23B3B" stroke-width="1"/>
  <rect x="250.1" y="312.5" width="5.1" height="18.8" fill="#E23B3B" stroke="none"/>
  <line x1="262.8" y1="326.4" x2="262.8" y2="358.6" stroke="#E23B3B" stroke-width="1"/>
  <rect x="260.3" y="328.3" width="5.1" height="19.0" fill="#E23B3B" stroke="none"/>
  <line x1="273.0" y1="317.3" x2="273.0" y2="365.8" stroke="#4CAF50" stroke-width="1"/>
  <rect x="270.4" y="322.4" width="5.1" height="23.3" fill="#4CAF50" stroke="none"/>
  <line x1="283.1" y1="311.7" x2="283.1" y2="342.5" stroke="#4CAF50" stroke-width="1"/>
  <rect x="280.6" y="318.4" width="5.1" height="5.1" fill="#4CAF50" stroke="none"/>
  <line x1="293.3" y1="311.4" x2="293.3" y2="365.0" stroke="#E23B3B" stroke-width="1"/>
  <rect x="290.7" y="328.8" width="5.1" height="22.0" fill="#E23B3B" stroke="none"/>
  <line x1="303.4" y1="320.2" x2="303.4" y2="362.8" stroke="#4CAF50" stroke-width="1"/>
  <rect x="300.9" y="322.4" width="5.1" height="28.4" fill="#4CAF50" stroke="none"/>
  <line x1="313.6" y1="313.8" x2="313.6" y2="341.9" stroke="#E23B3B" stroke-width="1"/>
  <rect x="311.0" y="320.5" width="5.1" height="19.3" fill="#E23B3B" stroke="none"/>
  <line x1="323.7" y1="369.8" x2="323.7" y2="404.4" stroke="#E23B3B" stroke-width="1"/>
  <rect x="321.2" y="369.8" width="5.1" height="27.3" fill="#E23B3B" stroke="none"/>
  <line x1="333.9" y1="365.0" x2="333.9" y2="399.3" stroke="#4CAF50" stroke-width="1"/>
  <rect x="331.4" y="376.5" width="5.1" height="15.8" fill="#4CAF50" stroke="none"/>
  <line x1="344.1" y1="331.8" x2="344.1" y2="370.6" stroke="#4CAF50" stroke-width="1"/>
  <rect x="341.5" y="338.5" width="5.1" height="32.2" fill="#4CAF50" stroke="none"/>
  <line x1="354.2" y1="321.8" x2="354.2" y2="352.7" stroke="#E23B3B" stroke-width="1"/>
  <rect x="351.7" y="326.7" width="5.1" height="17.7" fill="#E23B3B" stroke="none"/>
  <line x1="364.4" y1="341.1" x2="364.4" y2="369.5" stroke="#4CAF50" stroke-width="1"/>
  <rect x="361.8" y="347.8" width="5.1" height="4.3" fill="#4CAF50" stroke="none"/>
  <line x1="374.5" y1="336.8" x2="374.5" y2="378.9" stroke="#E23B3B" stroke-width="1"/>
  <rect x="372.0" y="344.9" width="5.1" height="30.3" fill="#E23B3B" stroke="none"/>
  <line x1="384.7" y1="399.8" x2="384.7" y2="546.4" stroke="#E23B3B" stroke-width="1"/>
  <rect x="382.1" y="416.7" width="5.1" height="98.9" fill="#E23B3B" stroke="none"/>
  <line x1="394.8" y1="471.1" x2="394.8" y2="506.2" stroke="#4CAF50" stroke-width="1"/>
  <rect x="392.3" y="479.9" width="5.1" height="22.5" fill="#4CAF50" stroke="none"/>
  <line x1="405.0" y1="464.4" x2="405.0" y2="510.8" stroke="#E23B3B" stroke-width="1"/>
  <rect x="402.4" y="484.5" width="5.1" height="13.1" fill="#E23B3B" stroke="none"/>
  <line x1="415.1" y1="481.0" x2="415.1" y2="517.7" stroke="#4CAF50" stroke-width="1"/>
  <rect x="412.6" y="496.0" width="5.1" height="10.5" fill="#4CAF50" stroke="none"/>
  <line x1="425.3" y1="461.2" x2="425.3" y2="507.8" stroke="#4CAF50" stroke-width="1"/>
  <rect x="422.8" y="474.1" width="5.1" height="14.2" fill="#4CAF50" stroke="none"/>
  <line x1="435.5" y1="457.7" x2="435.5" y2="493.1" stroke="#E23B3B" stroke-width="1"/>
  <rect x="432.9" y="468.4" width="5.1" height="1.5" fill="#E23B3B" stroke="none"/>
  <line x1="445.6" y1="398.5" x2="445.6" y2="470.8" stroke="#4CAF50" stroke-width="1"/>
  <rect x="443.1" y="404.9" width="5.1" height="56.3" fill="#4CAF50" stroke="none"/>
  <line x1="455.8" y1="398.2" x2="455.8" y2="451.8" stroke="#4CAF50" stroke-width="1"/>
  <rect x="453.2" y="406.8" width="5.1" height="14.5" fill="#4CAF50" stroke="none"/>
  <line x1="465.9" y1="379.5" x2="465.9" y2="422.1" stroke="#4CAF50" stroke-width="1"/>
  <rect x="463.4" y="385.9" width="5.1" height="24.4" fill="#4CAF50" stroke="none"/>
  <line x1="476.1" y1="349.2" x2="476.1" y2="385.1" stroke="#4CAF50" stroke-width="1"/>
  <rect x="473.5" y="350.8" width="5.1" height="27.9" fill="#4CAF50" stroke="none"/>
  <line x1="486.2" y1="326.1" x2="486.2" y2="345.4" stroke="#4CAF50" stroke-width="1"/>
  <rect x="483.7" y="339.3" width="5.1" height="1.5" fill="#4CAF50" stroke="none"/>
  <line x1="496.4" y1="344.6" x2="496.4" y2="365.3" stroke="#E23B3B" stroke-width="1"/>
  <rect x="493.8" y="354.0" width="5.1" height="1.9" fill="#E23B3B" stroke="none"/>
  <line x1="506.5" y1="376.0" x2="506.5" y2="458.5" stroke="#4CAF50" stroke-width="1"/>
  <rect x="504.0" y="383.7" width="5.1" height="74.8" fill="#4CAF50" stroke="none"/>
  <line x1="516.7" y1="328.0" x2="516.7" y2="416.2" stroke="#4CAF50" stroke-width="1"/>
  <rect x="514.2" y="328.8" width="5.1" height="62.2" fill="#4CAF50" stroke="none"/>
  <line x1="526.9" y1="301.7" x2="526.9" y2="339.0" stroke="#4CAF50" stroke-width="1"/>
  <rect x="524.3" y="321.8" width="5.1" height="1.5" fill="#4CAF50" stroke="none"/>
  <line x1="537.0" y1="321.8" x2="537.0" y2="346.0" stroke="#E23B3B" stroke-width="1"/>
  <rect x="534.5" y="333.4" width="5.1" height="10.7" fill="#E23B3B" stroke="none"/>
  <line x1="547.2" y1="315.7" x2="547.2" y2="336.8" stroke="#4CAF50" stroke-width="1"/>
  <rect x="544.6" y="328.5" width="5.1" height="3.5" fill="#4CAF50" stroke="none"/>
  <line x1="557.3" y1="316.9" x2="557.3" y2="345.3" stroke="#E23B3B" stroke-width="1"/>
  <rect x="554.8" y="320.9" width="5.1" height="22.3" fill="#E23B3B" stroke="none"/>
  <line x1="567.5" y1="289.7" x2="567.5" y2="351.2" stroke="#4CAF50" stroke-width="1"/>
  <rect x="564.9" y="298.0" width="5.1" height="39.0" fill="#4CAF50" stroke="none"/>
  <line x1="577.6" y1="272.0" x2="577.6" y2="320.6" stroke="#4CAF50" stroke-width="1"/>
  <rect x="575.1" y="291.3" width="5.1" height="4.8" fill="#4CAF50" stroke="none"/>
  <line x1="587.8" y1="297.2" x2="587.8" y2="327.6" stroke="#4CAF50" stroke-width="1"/>
  <rect x="585.2" y="302.6" width="5.1" height="1.5" fill="#4CAF50" stroke="none"/>
  <line x1="597.9" y1="249.4" x2="597.9" y2="304.0" stroke="#4CAF50" stroke-width="1"/>
  <rect x="595.4" y="266.1" width="5.1" height="25.3" fill="#4CAF50" stroke="none"/>
  <line x1="608.1" y1="238.9" x2="608.1" y2="289.4" stroke="#4CAF50" stroke-width="1"/>
  <rect x="605.6" y="250.5" width="5.1" height="8.3" fill="#4CAF50" stroke="none"/>
  <line x1="618.3" y1="251.3" x2="618.3" y2="283.0" stroke="#E23B3B" stroke-width="1"/>
  <rect x="615.7" y="251.3" width="5.1" height="22.0" fill="#E23B3B" stroke="none"/>
  <line x1="628.4" y1="263.9" x2="628.4" y2="291.1" stroke="#E23B3B" stroke-width="1"/>
  <rect x="625.9" y="272.8" width="5.1" height="9.7" fill="#E23B3B" stroke="none"/>
  <line x1="638.6" y1="277.9" x2="638.6" y2="329.5" stroke="#E23B3B" stroke-width="1"/>
  <rect x="636.0" y="290.5" width="5.1" height="33.9" fill="#E23B3B" stroke="none"/>
  <line x1="648.7" y1="299.7" x2="648.7" y2="316.9" stroke="#4CAF50" stroke-width="1"/>
  <rect x="646.2" y="305.0" width="5.1" height="4.0" fill="#4CAF50" stroke="none"/>
  <line x1="658.9" y1="289.4" x2="658.9" y2="318.5" stroke="#E23B3B" stroke-width="1"/>
  <rect x="656.3" y="307.7" width="5.1" height="7.3" fill="#E23B3B" stroke="none"/>
  <line x1="669.0" y1="309.1" x2="669.0" y2="341.3" stroke="#E23B3B" stroke-width="1"/>
  <rect x="666.5" y="318.2" width="5.1" height="18.0" fill="#E23B3B" stroke="none"/>
  <line x1="679.2" y1="316.9" x2="679.2" y2="347.5" stroke="#E23B3B" stroke-width="1"/>
  <rect x="676.6" y="338.1" width="5.1" height="3.2" fill="#E23B3B" stroke="none"/>
  <line x1="689.3" y1="298.0" x2="689.3" y2="335.1" stroke="#4CAF50" stroke-width="1"/>
  <rect x="686.8" y="317.1" width="5.1" height="18.0" fill="#4CAF50" stroke="none"/>
  <line x1="699.5" y1="293.7" x2="699.5" y2="329.2" stroke="#E23B3B" stroke-width="1"/>
  <rect x="697.0" y="313.1" width="5.1" height="8.1" fill="#E23B3B" stroke="none"/>
  <line x1="709.7" y1="308.5" x2="709.7" y2="338.4" stroke="#4CAF50" stroke-width="1"/>
  <rect x="707.1" y="315.0" width="5.1" height="9.9" fill="#4CAF50" stroke="none"/>
  <line x1="719.8" y1="309.9" x2="719.8" y2="352.6" stroke="#E23B3B" stroke-width="1"/>
  <rect x="717.3" y="312.3" width="5.1" height="7.8" fill="#E23B3B" stroke="none"/>
  <line x1="730.0" y1="271.7" x2="730.0" y2="324.9" stroke="#4CAF50" stroke-width="1"/>
  <rect x="727.4" y="293.5" width="5.1" height="13.2" fill="#4CAF50" stroke="none"/>
  <line x1="740.1" y1="273.3" x2="740.1" y2="308.0" stroke="#4CAF50" stroke-width="1"/>
  <rect x="737.6" y="289.2" width="5.1" height="16.4" fill="#4CAF50" stroke="none"/>
  <line x1="750.3" y1="252.4" x2="750.3" y2="288.1" stroke="#4CAF50" stroke-width="1"/>
  <rect x="747.7" y="264.4" width="5.1" height="23.6" fill="#4CAF50" stroke="none"/>
  <line x1="760.4" y1="247.8" x2="760.4" y2="276.3" stroke="#4CAF50" stroke-width="1"/>
  <rect x="757.9" y="258.5" width="5.1" height="8.6" fill="#4CAF50" stroke="none"/>
  <line x1="770.6" y1="250.5" x2="770.6" y2="290.5" stroke="#E23B3B" stroke-width="1"/>
  <rect x="768.0" y="259.3" width="5.1" height="7.8" fill="#E23B3B" stroke="none"/>
  <line x1="780.7" y1="229.8" x2="780.7" y2="267.1" stroke="#4CAF50" stroke-width="1"/>
  <rect x="778.2" y="236.5" width="5.1" height="30.6" fill="#4CAF50" stroke="none"/>
  <line x1="790.9" y1="230.6" x2="790.9" y2="260.1" stroke="#E23B3B" stroke-width="1"/>
  <rect x="788.4" y="236.5" width="5.1" height="18.8" fill="#E23B3B" stroke="none"/>
  <line x1="801.1" y1="212.0" x2="801.1" y2="255.3" stroke="#4CAF50" stroke-width="1"/>
  <rect x="798.5" y="215.3" width="5.1" height="40.0" fill="#4CAF50" stroke="none"/>
  <line x1="811.2" y1="191.6" x2="811.2" y2="236.2" stroke="#E23B3B" stroke-width="1"/>
  <rect x="808.7" y="201.0" width="5.1" height="25.3" fill="#E23B3B" stroke="none"/>
  <line x1="821.4" y1="180.3" x2="821.4" y2="231.1" stroke="#4CAF50" stroke-width="1"/>
  <rect x="818.8" y="212.3" width="5.1" height="11.8" fill="#4CAF50" stroke="none"/>
  <line x1="831.5" y1="110.7" x2="831.5" y2="186.0" stroke="#4CAF50" stroke-width="1"/>
  <rect x="829.0" y="115.3" width="5.1" height="70.7" fill="#4CAF50" stroke="none"/>
  <line x1="841.7" y1="109.6" x2="841.7" y2="138.1" stroke="#4CAF50" stroke-width="1"/>
  <rect x="839.1" y="120.4" width="5.1" height="17.7" fill="#4CAF50" stroke="none"/>
  <line x1="851.8" y1="122.5" x2="851.8" y2="148.9" stroke="#E23B3B" stroke-width="1"/>
  <rect x="849.3" y="122.5" width="5.1" height="22.0" fill="#E23B3B" stroke="none"/>
  <line x1="862.0" y1="122.8" x2="862.0" y2="153.5" stroke="#4CAF50" stroke-width="1"/>
  <rect x="859.4" y="128.5" width="5.1" height="16.9" fill="#4CAF50" stroke="none"/>
  <line x1="872.1" y1="126.6" x2="872.1" y2="164.2" stroke="#4CAF50" stroke-width="1"/>
  <rect x="869.6" y="130.9" width="5.1" height="2.1" fill="#4CAF50" stroke="none"/>
  <line x1="882.3" y1="127.7" x2="882.3" y2="178.2" stroke="#E23B3B" stroke-width="1"/>
  <rect x="879.8" y="129.8" width="5.1" height="44.3" fill="#E23B3B" stroke="none"/>
  <line x1="892.5" y1="157.2" x2="892.5" y2="211.5" stroke="#4CAF50" stroke-width="1"/>
  <rect x="889.9" y="172.5" width="5.1" height="8.9" fill="#4CAF50" stroke="none"/>
  <line x1="902.6" y1="171.7" x2="902.6" y2="225.5" stroke="#E23B3B" stroke-width="1"/>
  <rect x="900.1" y="174.7" width="5.1" height="35.2" fill="#E23B3B" stroke="none"/>
  <line x1="912.8" y1="194.8" x2="912.8" y2="219.6" stroke="#4CAF50" stroke-width="1"/>
  <rect x="910.2" y="214.5" width="5.1" height="2.4" fill="#4CAF50" stroke="none"/>
  <line x1="922.9" y1="200.8" x2="922.9" y2="251.1" stroke="#4CAF50" stroke-width="1"/>
  <rect x="920.4" y="215.3" width="5.1" height="8.6" fill="#4CAF50" stroke="none"/>
  <!-- highlight zone -->
  
  <!-- price axis -->
  <text x="936.0" y="560.3" fill="#6b7a99" font-size="10" font-family="monospace">35.00</text>
  <text x="936.0" y="425.9" fill="#6b7a99" font-size="10" font-family="monospace">40.00</text>
  <text x="936.0" y="291.6" fill="#6b7a99" font-size="10" font-family="monospace">45.00</text>
  <text x="936.0" y="157.2" fill="#6b7a99" font-size="10" font-family="monospace">50.00</text>
  <rect x="932.0" y="205.3" width="58" height="18" rx="2" fill="#E23B3B"/><text x="961.0" y="218.3" fill="#ffffff" font-size="10" font-weight="bold" font-family="monospace" text-anchor="middle">47.69</text>
  <!-- % change callout -->
  
  <!-- date labels -->
  <text x="19.1" y="630" fill="#4a556a" font-size="9" text-anchor="start">2026-03-20</text>
  <text x="201.9" y="630" fill="#4a556a" font-size="9" text-anchor="middle">2026-04-16</text>
  <text x="384.7" y="630" fill="#4a556a" font-size="9" text-anchor="middle">2026-05-12</text>
  <text x="557.3" y="630" fill="#4a556a" font-size="9" text-anchor="middle">2026-06-05</text>
  <text x="740.1" y="630" fill="#4a556a" font-size="9" text-anchor="middle">2026-07-02</text>
  <text x="922.9" y="630" fill="#4a556a" font-size="9" text-anchor="end">2026-07-29</text>
  <!-- M2 overlay labels (top-most in price panel, never occluded) -->
  <rect x="871.0" y="276.3" width="52" height="17" rx="4" fill="#0E1420" fill-opacity="0.82" stroke="#F59E0B" stroke-opacity="0.55" stroke-width="1"/><text x="916.0" y="288.8" fill="#F59E0B" font-size="11" text-anchor="end" font-family="sans-serif">50 SMA</text>
  <!-- subpanels -->
  <line x1="14" y1="632" x2="928" y2="632" stroke="#232A3D" stroke-width="1"/>
  <text x="18" y="645" fill="#6b7a99" font-size="9" font-weight="700" letter-spacing="0.12em">MACD</text>
  <line x1="14" y1="734.0" x2="928" y2="734.0" stroke="#2f3750" stroke-width="1"/>
  <rect x="16.5" y="734.0" width="5.1" height="6.0" fill="#E23B3B" opacity="0.5" stroke="none"/>
  <rect x="26.7" y="734.0" width="5.1" height="3.2" fill="#E23B3B" opacity="0.5" stroke="none"/>
  <rect x="36.8" y="734.0" width="5.1" height="1.0" fill="#E23B3B" opacity="0.5" stroke="none"/>
  <rect x="47.0" y="731.6" width="5.1" height="2.4" fill="#4CAF50" opacity="0.5" stroke="none"/>
  <rect x="57.2" y="730.0" width="5.1" height="4.0" fill="#4CAF50" opacity="0.5" stroke="none"/>
  <rect x="67.3" y="729.7" width="5.1" height="4.3" fill="#4CAF50" opacity="0.5" stroke="none"/>
  <rect x="77.5" y="729.5" width="5.1" height="4.5" fill="#4CAF50" opacity="0.5" stroke="none"/>
  <rect x="87.6" y="728.5" width="5.1" height="5.5" fill="#4CAF50" opacity="0.5" stroke="none"/>
  <rect x="97.8" y="727.2" width="5.1" height="6.8" fill="#4CAF50" opacity="0.5" stroke="none"/>
  <rect x="107.9" y="726.6" width="5.1" height="7.4" fill="#4CAF50" opacity="0.5" stroke="none"/>
  <rect x="118.1" y="725.7" width="5.1" height="8.3" fill="#4CAF50" opacity="0.5" stroke="none"/>
  <rect x="128.2" y="725.4" width="5.1" height="8.6" fill="#4CAF50" opacity="0.5" stroke="none"/>
  <rect x="138.4" y="723.7" width="5.1" height="10.3" fill="#4CAF50" opacity="0.5" stroke="none"/>
  <rect x="148.6" y="722.8" width="5.1" height="11.2" fill="#4CAF50" opacity="0.5" stroke="none"/>
  <rect x="158.7" y="722.5" width="5.1" height="11.5" fill="#4CAF50" opacity="0.5" stroke="none"/>
  <rect x="168.9" y="722.4" width="5.1" height="11.6" fill="#4CAF50" opacity="0.5" stroke="none"/>
  <rect x="179.0" y="722.2" width="5.1" height="11.8" fill="#4CAF50" opacity="0.5" stroke="none"/>
  <rect x="189.2" y="723.2" width="5.1" height="10.8" fill="#4CAF50" opacity="0.5" stroke="none"/>
  <rect x="199.3" y="722.1" width="5.1" height="11.9" fill="#4CAF50" opacity="0.5" stroke="none"/>
  <rect x="209.5" y="720.5" width="5.1" height="13.5" fill="#4CAF50" opacity="0.5" stroke="none"/>
  <rect x="219.6" y="719.3" width="5.1" height="14.7" fill="#4CAF50" opacity="0.5" stroke="none"/>
  <rect x="229.8" y="718.9" width="5.1" height="15.1" fill="#4CAF50" opacity="0.5" stroke="none"/>
  <rect x="240.0" y="719.5" width="5.1" height="14.5" fill="#4CAF50" opacity="0.5" stroke="none"/>
  <rect x="250.1" y="721.1" width="5.1" height="12.9" fill="#4CAF50" opacity="0.5" stroke="none"/>
  <rect x="260.3" y="723.6" width="5.1" height="10.4" fill="#4CAF50" opacity="0.5" stroke="none"/>
  <rect x="270.4" y="724.8" width="5.1" height="9.2" fill="#4CAF50" opacity="0.5" stroke="none"/>
  <rect x="280.6" y="726.0" width="5.1" height="8.0" fill="#4CAF50" opacity="0.5" stroke="none"/>
  <rect x="290.7" y="728.7" width="5.1" height="5.3" fill="#4CAF50" opacity="0.5" stroke="none"/>
  <rect x="300.9" y="729.7" width="5.1" height="4.3" fill="#4CAF50" opacity="0.5" stroke="none"/>
  <rect x="311.0" y="731.5" width="5.1" height="2.5" fill="#4CAF50" opacity="0.5" stroke="none"/>
  <rect x="321.2" y="734.0" width="5.1" height="1.3" fill="#E23B3B" opacity="0.5" stroke="none"/>
  <rect x="331.4" y="734.0" width="5.1" height="2.9" fill="#E23B3B" opacity="0.5" stroke="none"/>
  <rect x="341.5" y="734.0" width="5.1" height="2.5" fill="#E23B3B" opacity="0.5" stroke="none"/>
  <rect x="351.7" y="734.0" width="5.1" height="2.5" fill="#E23B3B" opacity="0.5" stroke="none"/>
  <rect x="361.8" y="734.0" width="5.1" height="2.7" fill="#E23B3B" opacity="0.5" stroke="none"/>
  <rect x="372.0" y="734.0" width="5.1" height="4.0" fill="#E23B3B" opacity="0.5" stroke="none"/>
  <rect x="382.1" y="734.0" width="5.1" height="10.5" fill="#E23B3B" opacity="0.5" stroke="none"/>
  <rect x="392.3" y="734.0" width="5.1" height="12.7" fill="#E23B3B" opacity="0.5" stroke="none"/>
  <rect x="402.4" y="734.0" width="5.1" height="14.2" fill="#E23B3B" opacity="0.5" stroke="none"/>
  <rect x="412.6" y="734.0" width="5.1" height="14.5" fill="#E23B3B" opacity="0.5" stroke="none"/>
  <rect x="422.8" y="734.0" width="5.1" height="13.0" fill="#E23B3B" opacity="0.5" stroke="none"/>
  <rect x="432.9" y="734.0" width="5.1" height="11.3" fill="#E23B3B" opacity="0.5" stroke="none"/>
  <rect x="443.1" y="734.0" width="5.1" height="6.9" fill="#E23B3B" opacity="0.5" stroke="none"/>
  <rect x="453.2" y="734.0" width="5.1" height="3.9" fill="#E23B3B" opacity="0.5" stroke="none"/>
  <rect x="463.4" y="734.0" width="5.1" height="1.0" fill="#E23B3B" opacity="0.5" stroke="none"/>
  <rect x="473.5" y="731.6" width="5.1" height="2.4" fill="#4CAF50" opacity="0.5" stroke="none"/>
  <rect x="483.7" y="729.1" width="5.1" height="4.9" fill="#4CAF50" opacity="0.5" stroke="none"/>
  <rect x="493.8" y="728.5" width="5.1" height="5.5" fill="#4CAF50" opacity="0.5" stroke="none"/>
  <rect x="504.0" y="729.5" width="5.1" height="4.5" fill="#4CAF50" opacity="0.5" stroke="none"/>
  <rect x="514.2" y="728.1" width="5.1" height="5.9" fill="#4CAF50" opacity="0.5" stroke="none"/>
  <rect x="524.3" y="727.3" width="5.1" height="6.7" fill="#4CAF50" opacity="0.5" stroke="none"/>
  <rect x="534.5" y="728.1" width="5.1" height="5.9" fill="#4CAF50" opacity="0.5" stroke="none"/>
  <rect x="544.6" y="728.3" width="5.1" height="5.7" fill="#4CAF50" opacity="0.5" stroke="none"/>
  <rect x="554.8" y="729.4" width="5.1" height="4.6" fill="#4CAF50" opacity="0.5" stroke="none"/>
  <rect x="564.9" y="728.6" width="5.1" height="5.4" fill="#4CAF50" opacity="0.5" stroke="none"/>
  <rect x="575.1" y="728.2" width="5.1" height="5.8" fill="#4CAF50" opacity="0.5" stroke="none"/>
  <rect x="585.2" y="728.8" width="5.1" height="5.2" fill="#4CAF50" opacity="0.5" stroke="none"/>
  <rect x="595.4" y="728.0" width="5.1" height="6.0" fill="#4CAF50" opacity="0.5" stroke="none"/>
  <rect x="605.6" y="727.4" width="5.1" height="6.6" fill="#4CAF50" opacity="0.5" stroke="none"/>
  <rect x="615.7" y="728.4" width="5.1" height="5.6" fill="#4CAF50" opacity="0.5" stroke="none"/>
  <rect x="625.9" y="729.8" width="5.1" height="4.2" fill="#4CAF50" opacity="0.5" stroke="none"/>
  <rect x="636.0" y="732.8" width="5.1" height="1.2" fill="#4CAF50" opacity="0.5" stroke="none"/>
  <rect x="646.2" y="734.0" width="5.1" height="1.0" fill="#E23B3B" opacity="0.5" stroke="none"/>
  <rect x="656.3" y="734.0" width="5.1" height="1.5" fill="#E23B3B" opacity="0.5" stroke="none"/>
  <rect x="666.5" y="734.0" width="5.1" height="3.4" fill="#E23B3B" opacity="0.5" stroke="none"/>
  <rect x="676.6" y="734.0" width="5.1" height="4.7" fill="#E23B3B" opacity="0.5" stroke="none"/>
  <rect x="686.8" y="734.0" width="5.1" height="4.4" fill="#E23B3B" opacity="0.5" stroke="none"/>
  <rect x="697.0" y="734.0" width="5.1" height="4.3" fill="#E23B3B" opacity="0.5" stroke="none"/>
  <rect x="707.1" y="734.0" width="5.1" height="3.9" fill="#E23B3B" opacity="0.5" stroke="none"/>
  <rect x="717.3" y="734.0" width="5.1" height="3.8" fill="#E23B3B" opacity="0.5" stroke="none"/>
  <rect x="727.4" y="734.0" width="5.1" height="2.5" fill="#E23B3B" opacity="0.5" stroke="none"/>
  <rect x="737.6" y="734.0" width="5.1" height="1.5" fill="#E23B3B" opacity="0.5" stroke="none"/>
  <rect x="747.7" y="733.9" width="5.1" height="1.0" fill="#4CAF50" opacity="0.5" stroke="none"/>
  <rect x="757.9" y="732.7" width="5.1" height="1.3" fill="#4CAF50" opacity="0.5" stroke="none"/>
  <rect x="768.0" y="732.5" width="5.1" height="1.5" fill="#4CAF50" opacity="0.5" stroke="none"/>
  <rect x="778.2" y="731.3" width="5.1" height="2.7" fill="#4CAF50" opacity="0.5" stroke="none"/>
  <rect x="788.4" y="731.6" width="5.1" height="2.4" fill="#4CAF50" opacity="0.5" stroke="none"/>
  <rect x="798.5" y="730.4" width="5.1" height="3.6" fill="#4CAF50" opacity="0.5" stroke="none"/>
  <rect x="808.7" y="730.4" width="5.1" height="3.6" fill="#4CAF50" opacity="0.5" stroke="none"/>
  <rect x="818.8" y="730.1" width="5.1" height="3.9" fill="#4CAF50" opacity="0.5" stroke="none"/>
  <rect x="829.0" y="726.3" width="5.1" height="7.7" fill="#4CAF50" opacity="0.5" stroke="none"/>
  <rect x="839.1" y="724.7" width="5.1" height="9.3" fill="#4CAF50" opacity="0.5" stroke="none"/>
  <rect x="849.3" y="725.4" width="5.1" height="8.6" fill="#4CAF50" opacity="0.5" stroke="none"/>
  <rect x="859.4" y="725.8" width="5.1" height="8.2" fill="#4CAF50" opacity="0.5" stroke="none"/>
  <rect x="869.6" y="726.8" width="5.1" height="7.2" fill="#4CAF50" opacity="0.5" stroke="none"/>
  <rect x="879.8" y="729.8" width="5.1" height="4.2" fill="#4CAF50" opacity="0.5" stroke="none"/>
  <rect x="889.9" y="732.1" width="5.1" height="1.9" fill="#4CAF50" opacity="0.5" stroke="none"/>
  <rect x="900.1" y="734.0" width="5.1" height="1.4" fill="#E23B3B" opacity="0.5" stroke="none"/>
  <rect x="910.2" y="734.0" width="5.1" height="3.8" fill="#E23B3B" opacity="0.5" stroke="none"/>
  <rect x="920.4" y="734.0" width="5.1" height="5.4" fill="#E23B3B" opacity="0.5" stroke="none"/>
  <polyline points="19.1,776.8 29.2,774.8 39.4,771.8 49.5,768.6 59.7,766.0 69.9,764.6 80.0,763.3 90.2,760.9 100.3,758.0 110.5,755.6 120.6,752.6 130.8,750.1 140.9,745.9 151.1,742.2 161.3,738.9 171.4,736.0 181.6,732.8 191.7,731.1 201.9,727.0 212.0,722.1 222.2,717.2 232.3,713.1 242.5,710.0 252.7,708.4 262.8,708.3 273.0,707.2 283.1,706.5 293.3,707.8 303.4,707.8 313.6,708.9 323.7,713.0 333.9,715.4 344.1,715.5 354.2,716.2 364.4,717.0 374.5,719.3 384.7,728.4 394.8,733.8 405.0,738.9 415.1,742.8 425.3,744.6 435.5,745.6 445.6,743.1 455.8,741.0 465.9,738.3 476.1,734.3 486.2,730.6 496.4,728.6 506.5,728.5 516.7,725.7 526.9,723.2 537.0,722.5 547.2,721.3 557.3,721.3 567.5,719.1 577.6,717.2 587.8,716.5 597.9,714.3 608.1,712.0 618.3,711.6 628.4,712.0 638.6,714.7 648.7,716.0 658.9,717.8 669.0,720.5 679.2,723.0 689.3,723.8 699.5,724.8 709.7,725.4 719.8,726.2 730.0,725.5 740.1,724.9 750.3,723.3 760.4,721.8 770.6,721.2 780.7,719.4 790.9,719.0 801.1,716.9 811.2,716.0 821.4,714.7 831.5,709.1 841.7,705.1 851.8,703.6 862.0,702.0 872.1,701.2 882.3,703.1 892.5,704.9 902.6,708.6 912.8,712.0 922.9,714.9" fill="none" stroke="#5b9dff" stroke-width="1.5" stroke-linejoin="round" stroke-linecap="round"/>
  <polyline points="19.1,770.8 29.2,771.6 39.4,771.6 49.5,771.0 59.7,770.0 69.9,769.0 80.0,767.8 90.2,766.5 100.3,764.8 110.5,762.9 120.6,760.8 130.8,758.7 140.9,756.1 151.1,753.4 161.3,750.5 171.4,747.6 181.6,744.6 191.7,741.9 201.9,738.9 212.0,735.6 222.2,731.9 232.3,728.1 242.5,724.5 252.7,721.3 262.8,718.7 273.0,716.4 283.1,714.4 293.3,713.1 303.4,712.0 313.6,711.4 323.7,711.7 333.9,712.5 344.1,713.1 354.2,713.7 364.4,714.4 374.5,715.3 384.7,718.0 394.8,721.1 405.0,724.7 415.1,728.3 425.3,731.6 435.5,734.4 445.6,736.1 455.8,737.1 465.9,737.3 476.1,736.7 486.2,735.5 496.4,734.1 506.5,733.0 516.7,731.5 526.9,729.9 537.0,728.4 547.2,727.0 557.3,725.8 567.5,724.5 577.6,723.0 587.8,721.7 597.9,720.2 608.1,718.6 618.3,717.2 628.4,716.1 638.6,715.8 648.7,715.9 658.9,716.3 669.0,717.1 679.2,718.3 689.3,719.4 699.5,720.5 709.7,721.5 719.8,722.4 730.0,723.0 740.1,723.4 750.3,723.4 760.4,723.1 770.6,722.7 780.7,722.0 790.9,721.4 801.1,720.5 811.2,719.6 821.4,718.6 831.5,716.7 841.7,714.4 851.8,712.3 862.0,710.2 872.1,708.4 882.3,707.3 892.5,706.9 902.6,707.2 912.8,708.2 922.9,709.5" fill="none" stroke="#F59E0B" stroke-width="1.2" stroke-linejoin="round" stroke-linecap="round"/>
  <text x="936" y="718.9" fill="#4CAF50" font-size="9" font-family="monospace">1.113</text>
  <!-- header (rendered last so it sits on top) -->
  <rect x="0" y="0" width="1000" height="64" fill="#0A1020" opacity="0.9"/>
  <rect x="8.00" y="15.00" width="34.00" height="34.00" rx="8.93" fill="url(#mbTile_1063565857)"/><rect x="8.00" y="15.00" width="34.00" height="34.00" rx="8.93" fill="url(#mbGlow_1063565857)"/><rect x="8.00" y="15.00" width="34.00" height="34.00" rx="8.93" fill="url(#mbSheen_1063565857)"/><path d="M17.35,38.03 L17.35,26.56 L23.30,32.94 L29.25,24.86 L29.25,38.03" fill="none" stroke="#15205a" stroke-opacity=".30" stroke-width="2.80" stroke-linecap="round" stroke-linejoin="round"/><path d="M17.35,37.10 L17.35,25.62 L23.30,32.00 L29.25,23.92 L29.25,37.10" fill="none" stroke="url(#mbInk_1063565857)" stroke-width="2.80" stroke-linecap="round" stroke-linejoin="round"/>
  <text x="50.0" y="39.0" fill="#ffffff" font-size="20" font-weight="900" font-family="sans-serif" letter-spacing="0.07em">MASTERMIND</text>
  <text x="924.0" y="30.0" fill="#ffffff" font-size="26" font-weight="bold" text-anchor="end" font-family="sans-serif">HUBG</text><text x="924.0" y="48.0" fill="#8899bb" font-size="13" text-anchor="end" letter-spacing="1" font-family="sans-serif">DAILY</text>
  <!-- footer -->
  <rect x="0" y="834" width="1000" height="46" fill="#0A1020" opacity="0.94"/><rect x="0" y="834" width="1000" height="1.5" fill="url(#bb_laser_1063565857)"/><rect x="14.00" y="848.00" width="18.00" height="18.00" rx="4.73" fill="url(#mbTile_1063565857bb)"/><rect x="14.00" y="848.00" width="18.00" height="18.00" rx="4.73" fill="url(#mbGlow_1063565857bb)"/><rect x="14.00" y="848.00" width="18.00" height="18.00" rx="4.73" fill="url(#mbSheen_1063565857bb)"/><path d="M18.95,860.20 L18.95,854.12 L22.10,857.50 L25.25,853.22 L25.25,860.20" fill="none" stroke="#15205a" stroke-opacity=".30" stroke-width="1.48" stroke-linecap="round" stroke-linejoin="round"/><path d="M18.95,859.70 L18.95,853.62 L22.10,857.00 L25.25,852.73 L25.25,859.70" fill="none" stroke="url(#mbInk_1063565857bb)" stroke-width="1.48" stroke-linecap="round" stroke-linejoin="round"/><text x="41.0" y="862.0" fill="#ffffff" font-size="15" font-weight="800" font-family="sans-serif" letter-spacing="0.3">mastermind-x.com</text><circle cx="204.0" cy="857.0" r="1.5" fill="#3a4466"/><text x="215.0" y="861.0" fill="#93a7cc" font-size="11" font-weight="700" font-family="sans-serif" letter-spacing="1.4">AI STOCK SIGNALS</text><circle cx="376.4" cy="857.0" r="1.5" fill="#3a4466"/><text x="387.4" y="861.0" fill="#8899bb" font-size="11" font-family="sans-serif" letter-spacing="0.2">Daily stock signals</text><text x="986.0" y="860.0" fill="#3a4466" font-size="9" text-anchor="end" font-family="sans-serif">© 2026 Mastermind</text>
</svg>